<?xml version="1.0" encoding="utf-8" standalone="no"?>
<!DOCTYPE svg PUBLIC "-//W3C//DTD SVG 1.1//EN"
  "http://www.w3.org/Graphics/SVG/1.1/DTD/svg11.dtd">
<svg xmlns:xlink="http://www.w3.org/1999/xlink" width="460.8pt" height="345.6pt" viewBox="0 0 460.8 345.6" xmlns="http://www.w3.org/2000/svg" version="1.1">
 <metadata>
  <rdf:RDF xmlns:dc="http://purl.org/dc/elements/1.1/" xmlns:cc="http://creativecommons.org/ns#" xmlns:rdf="http://www.w3.org/1999/02/22-rdf-syntax-ns#">
   <cc:Work>
    <dc:type rdf:resource="http://purl.org/dc/dcmitype/StillImage"/>
    <dc:date>2023-04-27T15:12:43.270777</dc:date>
    <dc:format>image/svg+xml</dc:format>
    <dc:creator>
     <cc:Agent>
      <dc:title>Matplotlib v3.7.1, https://matplotlib.org/</dc:title>
     </cc:Agent>
    </dc:creator>
   </cc:Work>
  </rdf:RDF>
 </metadata>
 <defs>
  <style type="text/css">*{stroke-linejoin: round; stroke-linecap: butt}</style>
 </defs>
 <g id="figure_1">
  <g id="patch_1">
   <path d="M 0 345.6 
L 460.8 345.6 
L 460.8 0 
L 0 0 
z
" style="fill: #ffffff"/>
  </g>
  <g id="axes_1">
   <g id="patch_2">
    <path d="M 96.840525 278.817032 
L 441.36 278.817032 
L 441.36 19.44 
L 96.840525 19.44 
z
" style="fill: #eaeaf2"/>
   </g>
   <g id="matplotlib.axis_1">
    <g id="xtick_1">
     <g id="line2d_1">
      <path d="M 112.495533 278.817032 
L 112.495533 19.44 
" clip-path="url(#p427cda26b5)" style="fill: none; stroke: #ffffff; stroke-linecap: round"/>
     </g>
     <g id="text_1">
      <!-- $\mathdefault{0}$ -->
      <g style="fill: #262626" transform="translate(108.38339 300.770332) scale(0.18 -0.18)">
       <defs>
        <path id="CMR17-30" d="M 2688 2025 
C 2688 2416 2682 3080 2413 3591 
C 2176 4039 1798 4198 1466 4198 
C 1158 4198 768 4058 525 3597 
C 269 3118 243 2524 243 2025 
C 243 1661 250 1106 448 619 
C 723 -39 1216 -128 1466 -128 
C 1760 -128 2208 -7 2470 600 
C 2662 1042 2688 1559 2688 2025 
z
M 1466 -26 
C 1056 -26 813 325 723 812 
C 653 1188 653 1738 653 2096 
C 653 2588 653 2997 736 3387 
C 858 3929 1216 4096 1466 4096 
C 1728 4096 2067 3923 2189 3400 
C 2272 3036 2278 2607 2278 2096 
C 2278 1680 2278 1169 2202 792 
C 2067 95 1690 -26 1466 -26 
z
" transform="scale(0.015625)"/>
       </defs>
       <use xlink:href="#CMR17-30" transform="scale(0.996264)"/>
      </g>
     </g>
    </g>
    <g id="xtick_2">
     <g id="line2d_2">
      <path d="M 211.865592 278.817032 
L 211.865592 19.44 
" clip-path="url(#p427cda26b5)" style="fill: none; stroke: #ffffff; stroke-linecap: round"/>
     </g>
     <g id="text_2">
      <!-- $\mathdefault{20000}$ -->
      <g style="fill: #262626" transform="translate(191.304878 300.770332) scale(0.18 -0.18)">
       <defs>
        <path id="CMR17-32" d="M 2669 989 
L 2554 989 
C 2490 536 2438 459 2413 420 
C 2381 369 1920 369 1830 369 
L 602 369 
C 832 619 1280 1072 1824 1597 
C 2214 1967 2669 2402 2669 3035 
C 2669 3790 2067 4224 1395 4224 
C 691 4224 262 3604 262 3030 
C 262 2780 448 2748 525 2748 
C 589 2748 781 2787 781 3010 
C 781 3207 614 3264 525 3264 
C 486 3264 448 3258 422 3245 
C 544 3790 915 4058 1306 4058 
C 1862 4058 2227 3617 2227 3035 
C 2227 2479 1901 2000 1536 1584 
L 262 146 
L 262 0 
L 2515 0 
L 2669 989 
z
" transform="scale(0.015625)"/>
       </defs>
       <use xlink:href="#CMR17-32" transform="scale(0.996264)"/>
       <use xlink:href="#CMR17-30" transform="translate(45.690477 0) scale(0.996264)"/>
       <use xlink:href="#CMR17-30" transform="translate(91.380954 0) scale(0.996264)"/>
       <use xlink:href="#CMR17-30" transform="translate(137.071431 0) scale(0.996264)"/>
       <use xlink:href="#CMR17-30" transform="translate(182.761908 0) scale(0.996264)"/>
      </g>
     </g>
    </g>
    <g id="xtick_3">
     <g id="line2d_3">
      <path d="M 311.235652 278.817032 
L 311.235652 19.44 
" clip-path="url(#p427cda26b5)" style="fill: none; stroke: #ffffff; stroke-linecap: round"/>
     </g>
     <g id="text_3">
      <!-- $\mathdefault{40000}$ -->
      <g style="fill: #262626" transform="translate(290.674937 300.770332) scale(0.18 -0.18)">
       <defs>
        <path id="CMR17-34" d="M 2150 4122 
C 2150 4256 2144 4256 2029 4256 
L 128 1254 
L 128 1088 
L 1779 1088 
L 1779 457 
C 1779 224 1766 160 1318 160 
L 1197 160 
L 1197 0 
C 1402 0 1747 0 1965 0 
C 2182 0 2528 0 2733 0 
L 2733 160 
L 2611 160 
C 2163 160 2150 224 2150 457 
L 2150 1088 
L 2803 1088 
L 2803 1254 
L 2150 1254 
L 2150 4122 
z
M 1798 3703 
L 1798 1254 
L 256 1254 
L 1798 3703 
z
" transform="scale(0.015625)"/>
       </defs>
       <use xlink:href="#CMR17-34" transform="scale(0.996264)"/>
       <use xlink:href="#CMR17-30" transform="translate(45.690477 0) scale(0.996264)"/>
       <use xlink:href="#CMR17-30" transform="translate(91.380954 0) scale(0.996264)"/>
       <use xlink:href="#CMR17-30" transform="translate(137.071431 0) scale(0.996264)"/>
       <use xlink:href="#CMR17-30" transform="translate(182.761908 0) scale(0.996264)"/>
      </g>
     </g>
    </g>
    <g id="xtick_4">
     <g id="line2d_4">
      <path d="M 410.605712 278.817032 
L 410.605712 19.44 
" clip-path="url(#p427cda26b5)" style="fill: none; stroke: #ffffff; stroke-linecap: round"/>
     </g>
     <g id="text_4">
      <!-- $\mathdefault{60000}$ -->
      <g style="fill: #262626" transform="translate(390.044997 300.770332) scale(0.18 -0.18)">
       <defs>
        <path id="CMR17-36" d="M 678 2176 
C 678 3690 1395 4032 1811 4032 
C 1946 4032 2272 4009 2400 3776 
C 2298 3776 2106 3776 2106 3553 
C 2106 3381 2246 3323 2336 3323 
C 2394 3323 2566 3348 2566 3560 
C 2566 3954 2246 4179 1805 4179 
C 1043 4179 243 3390 243 1984 
C 243 253 966 -128 1478 -128 
C 2099 -128 2688 427 2688 1283 
C 2688 2081 2170 2662 1517 2662 
C 1126 2662 838 2407 678 1960 
L 678 2176 
z
M 1478 25 
C 691 25 691 1200 691 1436 
C 691 1896 909 2560 1504 2560 
C 1613 2560 1926 2560 2138 2120 
C 2253 1870 2253 1609 2253 1289 
C 2253 944 2253 690 2118 434 
C 1978 171 1773 25 1478 25 
z
" transform="scale(0.015625)"/>
       </defs>
       <use xlink:href="#CMR17-36" transform="scale(0.996264)"/>
       <use xlink:href="#CMR17-30" transform="translate(45.690477 0) scale(0.996264)"/>
       <use xlink:href="#CMR17-30" transform="translate(91.380954 0) scale(0.996264)"/>
       <use xlink:href="#CMR17-30" transform="translate(137.071431 0) scale(0.996264)"/>
       <use xlink:href="#CMR17-30" transform="translate(182.761908 0) scale(0.996264)"/>
      </g>
     </g>
    </g>
    <g id="text_5">
     <!-- Iteration $[-]$ -->
     <g style="fill: #262626" transform="translate(225.215788 321.691816) scale(0.18 -0.18)">
      <defs>
       <path id="CMSS17-49" d="M 1094 4416 
L 557 4416 
L 557 0 
L 1094 0 
L 1094 4416 
z
" transform="scale(0.015625)"/>
       <path id="CMSS17-74" d="M 1069 2368 
L 1901 2368 
L 1901 2737 
L 1069 2737 
L 1069 3520 
L 614 3520 
L 614 2737 
L 109 2737 
L 109 2368 
L 602 2368 
L 602 749 
C 602 384 685 -64 1107 -64 
C 1427 -64 1722 25 2003 172 
L 1901 548 
C 1747 414 1562 337 1363 337 
C 1082 337 1069 696 1069 856 
L 1069 2368 
z
" transform="scale(0.015625)"/>
       <path id="CMSS17-65" d="M 2502 1377 
C 2502 1590 2490 2003 2285 2345 
C 2061 2713 1696 2816 1421 2816 
C 755 2816 192 2188 192 1375 
C 192 582 774 -64 1510 -64 
C 1798 -64 2150 19 2470 248 
C 2470 274 2458 414 2451 420 
C 2451 433 2432 630 2432 656 
C 2125 407 1773 325 1517 325 
C 1107 325 666 667 646 1377 
L 2502 1377 
z
M 698 1728 
C 781 2084 1062 2421 1421 2421 
C 1517 2421 1965 2421 2080 1728 
L 698 1728 
z
" transform="scale(0.015625)"/>
       <path id="CMSS17-72" d="M 954 1363 
C 954 1965 1395 2368 1958 2368 
L 1958 2789 
C 1549 2789 1165 2585 934 2253 
L 934 2758 
L 480 2758 
L 480 0 
L 954 0 
L 954 1363 
z
" transform="scale(0.015625)"/>
       <path id="CMSS17-61" d="M 2406 1791 
C 2406 2392 1978 2808 1402 2808 
C 1120 2808 813 2757 461 2553 
L 499 2135 
C 659 2248 934 2432 1395 2432 
C 1722 2432 1920 2180 1920 1782 
L 1920 1536 
C 896 1536 256 1238 256 726 
C 256 461 416 -64 947 -64 
C 1043 -64 1562 -64 1933 217 
L 1933 -19 
L 2406 -19 
L 2406 1791 
z
M 1920 816 
C 1920 701 1920 548 1728 434 
C 1562 325 1350 325 1261 325 
C 941 325 723 511 723 744 
C 723 1211 1722 1211 1920 1211 
L 1920 816 
z
" transform="scale(0.015625)"/>
       <path id="CMSS17-69" d="M 979 4183 
L 442 4183 
L 442 3648 
L 979 3648 
L 979 4183 
z
M 947 2739 
L 474 2739 
L 474 0 
L 947 0 
L 947 2739 
z
" transform="scale(0.015625)"/>
       <path id="CMSS17-6f" d="M 2829 1356 
C 2829 2176 2221 2816 1504 2816 
C 768 2816 173 2157 173 1356 
C 173 544 787 -64 1498 -64 
C 2227 -64 2829 563 2829 1356 
z
M 1504 337 
C 1050 337 659 709 659 1408 
C 659 2151 1114 2427 1498 2427 
C 1914 2427 2342 2126 2342 1408 
C 2342 683 1926 337 1504 337 
z
" transform="scale(0.015625)"/>
       <path id="CMSS17-6e" d="M 2618 1877 
C 2618 2283 2522 2816 1798 2816 
C 1389 2816 1120 2606 941 2389 
L 941 2758 
L 474 2758 
L 474 0 
L 960 0 
L 960 1559 
C 960 1964 1114 2428 1549 2428 
C 2112 2428 2131 2048 2131 1829 
L 2131 0 
L 2618 0 
L 2618 1877 
z
" transform="scale(0.015625)"/>
       <path id="CMR17-5b" d="M 1504 -1600 
L 1504 -1377 
L 902 -1377 
L 902 4544 
L 1504 4544 
L 1504 4767 
L 678 4767 
L 678 -1600 
L 1504 -1600 
z
" transform="scale(0.015625)"/>
       <path id="CMSY10-0" d="M 4218 1472 
C 4326 1472 4442 1472 4442 1600 
C 4442 1728 4326 1728 4218 1728 
L 755 1728 
C 646 1728 531 1728 531 1600 
C 531 1472 646 1472 755 1472 
L 4218 1472 
z
" transform="scale(0.015625)"/>
       <path id="CMR17-5d" d="M 915 4767 
L 90 4767 
L 90 4544 
L 691 4544 
L 691 -1377 
L 90 -1377 
L 90 -1600 
L 915 -1600 
L 915 4767 
z
" transform="scale(0.015625)"/>
      </defs>
      <use xlink:href="#CMSS17-49" transform="scale(0.996264)"/>
      <use xlink:href="#CMSS17-74" transform="translate(25.783926 0) scale(0.996264)"/>
      <use xlink:href="#CMSS17-65" transform="translate(59.615492 0) scale(0.996264)"/>
      <use xlink:href="#CMSS17-72" transform="translate(101.254314 0) scale(0.996264)"/>
      <use xlink:href="#CMSS17-61" transform="translate(133.164087 0) scale(0.996264)"/>
      <use xlink:href="#CMSS17-74" transform="translate(178.086007 0) scale(0.996264)"/>
      <use xlink:href="#CMSS17-69" transform="translate(211.917574 0) scale(0.996264)"/>
      <use xlink:href="#CMSS17-6f" transform="translate(234.098297 0) scale(0.996264)"/>
      <use xlink:href="#CMSS17-6e" transform="translate(280.941921 0) scale(0.996264)"/>
      <use xlink:href="#CMR17-5b" transform="translate(360.375977 0) scale(0.996264)"/>
      <use xlink:href="#CMSY10-0" transform="translate(385.247035 0) scale(0.996264)"/>
      <use xlink:href="#CMR17-5d" transform="translate(462.734503 0) scale(0.996264)"/>
     </g>
    </g>
   </g>
   <g id="matplotlib.axis_2">
    <g id="ytick_1">
     <g id="line2d_5">
      <path d="M 96.840525 241.76317 
L 441.36 241.76317 
" clip-path="url(#p427cda26b5)" style="fill: none; stroke: #ffffff; stroke-linecap: round"/>
     </g>
     <g id="text_6">
      <!-- $\mathdefault{0.0200}$ -->
      <g style="fill: #262626" transform="translate(41.341604 247.98982) scale(0.18 -0.18)">
       <defs>
        <path id="CMMI12-3a" d="M 1178 307 
C 1178 492 1024 619 870 619 
C 685 619 557 466 557 313 
C 557 128 710 0 864 0 
C 1050 0 1178 153 1178 307 
z
" transform="scale(0.015625)"/>
       </defs>
       <use xlink:href="#CMR17-30" transform="scale(0.996264)"/>
       <use xlink:href="#CMMI12-3a" transform="translate(45.690477 0) scale(0.996264)"/>
       <use xlink:href="#CMR17-30" transform="translate(72.787654 0) scale(0.996264)"/>
       <use xlink:href="#CMR17-32" transform="translate(118.478131 0) scale(0.996264)"/>
       <use xlink:href="#CMR17-30" transform="translate(164.168608 0) scale(0.996264)"/>
       <use xlink:href="#CMR17-30" transform="translate(209.859086 0) scale(0.996264)"/>
      </g>
     </g>
    </g>
    <g id="ytick_2">
     <g id="line2d_6">
      <path d="M 96.840525 195.445843 
L 441.36 195.445843 
" clip-path="url(#p427cda26b5)" style="fill: none; stroke: #ffffff; stroke-linecap: round"/>
     </g>
     <g id="text_7">
      <!-- $\mathdefault{0.0225}$ -->
      <g style="fill: #262626" transform="translate(41.341604 201.672493) scale(0.18 -0.18)">
       <defs>
        <path id="CMR17-35" d="M 730 3692 
C 794 3666 1056 3584 1325 3584 
C 1920 3584 2246 3911 2432 4100 
C 2432 4157 2432 4192 2394 4192 
C 2387 4192 2374 4192 2323 4163 
C 2099 4058 1837 3973 1517 3973 
C 1325 3973 1037 3999 723 4139 
C 653 4171 640 4171 634 4171 
C 602 4171 595 4164 595 4037 
L 595 2203 
C 595 2089 595 2057 659 2057 
C 691 2057 704 2070 736 2114 
C 941 2401 1222 2522 1542 2522 
C 1766 2522 2246 2382 2246 1289 
C 2246 1085 2246 715 2054 421 
C 1894 159 1645 25 1370 25 
C 947 25 518 320 403 814 
C 429 807 480 795 506 795 
C 589 795 749 840 749 1038 
C 749 1210 627 1280 506 1280 
C 358 1280 262 1190 262 1011 
C 262 454 704 -128 1382 -128 
C 2042 -128 2669 440 2669 1264 
C 2669 2030 2170 2624 1549 2624 
C 1222 2624 947 2503 730 2274 
L 730 3692 
z
" transform="scale(0.015625)"/>
       </defs>
       <use xlink:href="#CMR17-30" transform="scale(0.996264)"/>
       <use xlink:href="#CMMI12-3a" transform="translate(45.690477 0) scale(0.996264)"/>
       <use xlink:href="#CMR17-30" transform="translate(72.787654 0) scale(0.996264)"/>
       <use xlink:href="#CMR17-32" transform="translate(118.478131 0) scale(0.996264)"/>
       <use xlink:href="#CMR17-32" transform="translate(164.168608 0) scale(0.996264)"/>
       <use xlink:href="#CMR17-35" transform="translate(209.859086 0) scale(0.996264)"/>
      </g>
     </g>
    </g>
    <g id="ytick_3">
     <g id="line2d_7">
      <path d="M 96.840525 149.128516 
L 441.36 149.128516 
" clip-path="url(#p427cda26b5)" style="fill: none; stroke: #ffffff; stroke-linecap: round"/>
     </g>
     <g id="text_8">
      <!-- $\mathdefault{0.0250}$ -->
      <g style="fill: #262626" transform="translate(41.341604 155.355166) scale(0.18 -0.18)">
       <use xlink:href="#CMR17-30" transform="scale(0.996264)"/>
       <use xlink:href="#CMMI12-3a" transform="translate(45.690477 0) scale(0.996264)"/>
       <use xlink:href="#CMR17-30" transform="translate(72.787654 0) scale(0.996264)"/>
       <use xlink:href="#CMR17-32" transform="translate(118.478131 0) scale(0.996264)"/>
       <use xlink:href="#CMR17-35" transform="translate(164.168608 0) scale(0.996264)"/>
       <use xlink:href="#CMR17-30" transform="translate(209.859086 0) scale(0.996264)"/>
      </g>
     </g>
    </g>
    <g id="ytick_4">
     <g id="line2d_8">
      <path d="M 96.840525 102.811189 
L 441.36 102.811189 
" clip-path="url(#p427cda26b5)" style="fill: none; stroke: #ffffff; stroke-linecap: round"/>
     </g>
     <g id="text_9">
      <!-- $\mathdefault{0.0275}$ -->
      <g style="fill: #262626" transform="translate(41.341604 109.037839) scale(0.18 -0.18)">
       <defs>
        <path id="CMR17-37" d="M 2886 3941 
L 2886 4081 
L 1382 4081 
C 634 4081 621 4165 595 4288 
L 480 4288 
L 294 3094 
L 410 3094 
C 429 3215 474 3540 550 3661 
C 589 3712 1062 3712 1171 3712 
L 2579 3712 
L 1869 2661 
C 1395 1954 1069 999 1069 165 
C 1069 89 1069 -128 1299 -128 
C 1530 -128 1530 89 1530 171 
L 1530 465 
C 1530 1508 1709 2196 2003 2636 
L 2886 3941 
z
" transform="scale(0.015625)"/>
       </defs>
       <use xlink:href="#CMR17-30" transform="scale(0.996264)"/>
       <use xlink:href="#CMMI12-3a" transform="translate(45.690477 0) scale(0.996264)"/>
       <use xlink:href="#CMR17-30" transform="translate(72.787654 0) scale(0.996264)"/>
       <use xlink:href="#CMR17-32" transform="translate(118.478131 0) scale(0.996264)"/>
       <use xlink:href="#CMR17-37" transform="translate(164.168608 0) scale(0.996264)"/>
       <use xlink:href="#CMR17-35" transform="translate(209.859086 0) scale(0.996264)"/>
      </g>
     </g>
    </g>
    <g id="ytick_5">
     <g id="line2d_9">
      <path d="M 96.840525 56.493862 
L 441.36 56.493862 
" clip-path="url(#p427cda26b5)" style="fill: none; stroke: #ffffff; stroke-linecap: round"/>
     </g>
     <g id="text_10">
      <!-- $\mathdefault{0.0300}$ -->
      <g style="fill: #262626" transform="translate(41.341604 62.720512) scale(0.18 -0.18)">
       <defs>
        <path id="CMR17-33" d="M 1414 2157 
C 1984 2157 2234 1662 2234 1090 
C 2234 320 1824 25 1453 25 
C 1114 25 563 194 390 693 
C 422 680 454 680 486 680 
C 640 680 755 782 755 948 
C 755 1133 614 1216 486 1216 
C 378 1216 211 1165 211 926 
C 211 335 787 -128 1466 -128 
C 2176 -128 2720 430 2720 1085 
C 2720 1707 2208 2157 1600 2227 
C 2086 2328 2554 2756 2554 3329 
C 2554 3820 2048 4179 1472 4179 
C 890 4179 378 3829 378 3329 
C 378 3110 544 3072 627 3072 
C 762 3072 877 3155 877 3321 
C 877 3486 762 3569 627 3569 
C 602 3569 570 3569 544 3557 
C 730 3959 1235 4032 1459 4032 
C 1683 4032 2106 3925 2106 3320 
C 2106 3143 2080 2828 1862 2550 
C 1670 2304 1453 2304 1242 2284 
C 1210 2284 1062 2269 1037 2269 
C 992 2263 966 2257 966 2208 
C 966 2163 973 2157 1101 2157 
L 1414 2157 
z
" transform="scale(0.015625)"/>
       </defs>
       <use xlink:href="#CMR17-30" transform="scale(0.996264)"/>
       <use xlink:href="#CMMI12-3a" transform="translate(45.690477 0) scale(0.996264)"/>
       <use xlink:href="#CMR17-30" transform="translate(72.787654 0) scale(0.996264)"/>
       <use xlink:href="#CMR17-33" transform="translate(118.478131 0) scale(0.996264)"/>
       <use xlink:href="#CMR17-30" transform="translate(164.168608 0) scale(0.996264)"/>
       <use xlink:href="#CMR17-30" transform="translate(209.859086 0) scale(0.996264)"/>
      </g>
     </g>
    </g>
    <g id="text_11">
     <!-- $C_D$ $[-]$ -->
     <g style="fill: #262626" transform="translate(32.87342 175.193454) rotate(-90) scale(0.18 -0.18)">
      <defs>
       <path id="CMMI12-43" d="M 4781 4423 
C 4781 4480 4736 4480 4723 4480 
C 4710 4480 4685 4480 4634 4416 
L 4192 3882 
C 3968 4264 3616 4480 3136 4480 
C 1754 4480 320 3088 320 1595 
C 320 533 1069 -128 2003 -128 
C 2515 -128 2963 88 3334 400 
C 3891 863 4058 1481 4058 1531 
C 4058 1588 4006 1588 3987 1588 
C 3930 1588 3923 1550 3910 1524 
C 3616 534 2752 57 2112 57 
C 1434 57 845 489 845 1391 
C 845 1595 909 2700 1632 3532 
C 1984 3939 2586 4295 3194 4295 
C 3898 4295 4211 3717 4211 3068 
C 4211 2903 4192 2764 4192 2738 
C 4192 2681 4256 2681 4275 2681 
C 4346 2681 4352 2687 4378 2801 
L 4781 4423 
z
" transform="scale(0.015625)"/>
       <path id="CMMI12-44" d="M 1005 472 
C 947 249 934 185 486 185 
C 365 185 301 185 301 70 
C 301 0 339 0 467 0 
L 2496 0 
C 3789 0 5050 1332 5050 2753 
C 5050 3671 4499 4352 3584 4352 
L 1530 4352 
C 1408 4352 1350 4352 1350 4231 
C 1350 4167 1408 4167 1504 4167 
C 1894 4167 1894 4116 1894 4046 
C 1894 4034 1894 3995 1869 3899 
L 1005 472 
z
M 2355 3931 
C 2413 4167 2438 4167 2688 4167 
L 3392 4167 
C 3994 4167 4544 3842 4544 2963 
C 4544 2644 4416 1536 3795 835 
C 3616 625 3130 185 2394 185 
L 1664 185 
C 1574 185 1562 185 1523 192 
C 1453 198 1446 211 1446 262 
C 1446 307 1459 345 1472 402 
L 2355 3931 
z
" transform="scale(0.015625)"/>
      </defs>
      <use xlink:href="#CMMI12-43" transform="scale(0.996264)"/>
      <use xlink:href="#CMMI12-44" transform="translate(69.792037 -14.943915) scale(0.697382)"/>
      <use xlink:href="#CMR17-5b" transform="translate(160.111785 0) scale(0.996264)"/>
      <use xlink:href="#CMSY10-0" transform="translate(184.982843 0) scale(0.996264)"/>
      <use xlink:href="#CMR17-5d" transform="translate(262.470311 0) scale(0.996264)"/>
     </g>
    </g>
   </g>
   <g id="line2d_10">
    <path d="M 112.500501 68.330718 
L 112.501113 -1 
M 114.95356 -1 
L 115.004627 65.298971 
L 115.079154 51.229249 
L 115.133808 60.763393 
L 115.163619 49.771365 
L 115.253146 -1 
M 115.421015 -1 
L 115.471666 38.120519 
L 115.541225 12.665442 
L 115.59091 73.752624 
L 115.739965 147.771974 
L 115.744934 148.1716 
L 115.779713 142.127559 
L 115.799587 139.318321 
L 115.869146 146.540489 
L 115.908894 147.28731 
L 115.983422 153.915319 
L 116.038075 149.340835 
L 116.08776 145.771807 
L 116.167256 146.635717 
L 116.266626 146.542712 
L 116.311343 146.659432 
L 116.85291 147.98596 
L 116.962217 147.995038 
L 116.987059 66.499331 
L 117.036744 189.690267 
L 117.061587 180.624484 
L 117.076492 184.184433 
L 117.165925 203.809456 
L 117.21561 201.169183 
L 117.414351 173.381751 
L 117.603154 101.977106 
L 117.667744 115.457487 
L 117.757177 147.952241 
L 117.806862 125.701953 
L 117.821768 121.4654 
L 117.861516 148.21625 
L 118.000634 222.487937 
L 118.030445 218.162084 
L 118.095036 200.953159 
L 118.174532 209.067213 
L 118.219248 208.379308 
L 118.283839 209.090001 
L 118.422957 209.227286 
L 118.537232 209.222284 
L 118.542201 209.224692 
L 118.61176 209.22321 
L 118.636602 170.591224 
L 118.721067 207.977644 
L 118.825405 217.757641 
L 118.87509 215.727274 
L 118.959555 213.284128 
L 119.014209 213.742114 
L 119.138421 216.739215 
L 119.381878 227.382567 
L 119.446468 225.040948 
L 119.451437 225.014084 
L 119.471311 225.514681 
L 119.635271 228.164218 
L 119.650177 228.24518 
L 119.70483 228.09326 
L 119.744578 228.142912 
L 119.928413 228.205533 
L 120.191744 228.217946 
L 120.211618 211.957044 
L 120.301051 224.722099 
L 120.420295 228.926786 
L 120.474948 227.910769 
L 120.524633 227.213045 
L 120.574318 228.026563 
L 121.00161 242.533705 
L 121.125822 240.654889 
L 121.145696 240.593195 
L 121.20035 240.869246 
L 121.349405 241.301664 
L 121.354373 241.299997 
L 121.652484 241.331308 
L 121.861161 241.340015 
L 121.876066 234.424838 
L 121.975436 238.273623 
L 122.666058 247.567287 
L 122.770397 246.301713 
L 122.934357 245.477264 
L 123.525609 245.387408 
L 123.540515 241.17457 
L 123.639885 242.569092 
L 123.659759 242.555382 
L 123.68957 242.796047 
L 123.858499 243.814843 
L 123.868436 243.816695 
L 123.893278 243.720355 
L 123.957869 243.460608 
L 124.02246 243.603821 
L 124.231137 244.852721 
L 124.434845 245.486713 
L 124.549121 245.792592 
L 124.593837 245.631408 
L 124.95157 243.769822 
L 125.110562 243.573992 
L 125.15031 243.597522 
L 126.104262 243.682931 
L 126.119168 240.183194 
L 126.218538 240.881844 
L 126.248349 240.762345 
L 126.27816 240.990412 
L 126.422247 241.85247 
L 126.457026 241.743532 
L 126.501743 241.586423 
L 126.551428 241.808561 
L 126.919097 243.566396 
L 126.943939 243.553242 
L 126.998593 243.460608 
L 127.112868 242.559087 
L 127.316577 241.619216 
L 127.435821 241.531213 
L 127.470601 241.553075 
L 128.076758 241.609767 
L 128.086695 239.273521 
L 128.191034 239.767264 
L 128.23575 239.733174 
L 128.250656 239.858417 
L 128.325183 240.226361 
L 128.374868 240.004594 
L 128.523923 239.612749 
L 128.538829 239.636649 
L 128.603419 239.958091 
L 128.672978 239.731322 
L 128.717695 239.806912 
L 128.722663 239.822104 
L 128.931341 240.558364 
L 129.010837 240.385137 
L 129.453033 238.869449 
L 129.815734 238.814053 
L 130.565978 238.841103 
L 130.943584 238.848514 
L 131.028049 236.914117 
L 131.05786 237.044546 
L 131.092639 236.876136 
L 131.137356 237.177755 
L 131.196978 237.620919 
L 131.251631 237.287434 
L 131.281442 237.166453 
L 131.35597 237.332455 
L 131.405655 237.219626 
L 131.534836 237.138663 
L 131.465277 237.301515 
L 131.549742 237.18498 
L 131.693828 238.140785 
L 131.818041 238.012764 
L 131.902505 237.408971 
L 132.08634 236.930976 
L 132.374513 236.537464 
L 132.647781 236.477807 
L 133.378151 236.501151 
L 133.54708 236.501151 
L 133.557017 235.246137 
L 133.661355 235.579807 
L 133.701103 235.359522 
L 133.74582 235.652247 
L 133.835253 236.387952 
L 133.879969 235.965353 
L 133.954497 235.101442 
L 134.014119 235.534972 
L 134.103552 236.144323 
L 134.163174 236.016116 
L 134.24267 236.339967 
L 134.361914 236.662336 
L 134.426505 236.577112 
L 134.506001 236.691793 
L 134.545749 236.709765 
L 134.585497 236.614166 
L 134.838891 236.022971 
L 135.251276 235.879202 
L 135.777938 235.91181 
L 137.343016 236.089112 
L 137.422512 233.833088 
L 137.457292 234.232343 
L 137.581504 234.654943 
L 137.492071 234.153974 
L 137.626221 234.389452 
L 137.725591 233.842352 
L 137.785213 233.959256 
L 137.839866 233.811226 
L 137.899488 233.716924 
L 137.929299 233.848465 
L 138.068418 234.627152 
L 138.113134 234.580094 
L 138.19263 234.693849 
L 138.232378 234.732941 
L 138.277095 234.639751 
L 138.614953 233.833829 
L 139.052181 233.712107 
L 139.41985 233.756016 
L 141.317818 233.814005 
L 141.327755 232.592339 
L 141.432094 232.811698 
L 141.466874 232.653664 
L 141.506622 232.93694 
L 141.576181 233.304144 
L 141.630834 233.077004 
L 141.789826 232.841712 
L 141.680519 233.140181 
L 141.824606 232.99845 
L 141.869322 233.2632 
L 141.923976 232.938793 
L 141.953787 232.848937 
L 142.018377 233.042914 
L 142.256866 233.38066 
L 142.291645 233.308405 
L 142.733842 232.219207 
L 143.086606 232.137689 
L 143.429432 232.1149 
L 145.009416 232.258669 
L 145.083944 230.501946 
L 145.123692 231.070352 
L 145.257841 232.081367 
L 145.337337 231.692301 
L 145.396959 231.376232 
L 145.456581 231.607077 
L 145.511235 231.828104 
L 145.56092 231.625975 
L 145.655322 231.091102 
L 145.705007 231.204302 
L 145.749723 231.300827 
L 145.819282 231.22042 
L 146.25651 230.649606 
L 146.569526 230.504354 
L 146.793109 230.490089 
L 148.984219 230.546781 
L 149.073652 228.811734 
L 149.103463 228.90159 
L 149.128305 228.835263 
L 149.153148 229.02572 
L 149.272392 230.185876 
L 149.31214 229.809409 
L 149.37673 229.077225 
L 149.441321 229.405152 
L 149.61025 229.898153 
L 149.774211 230.190323 
L 149.888486 230.136039 
L 150.181628 229.71696 
L 150.499612 229.025349 
L 152.437328 228.919746 
L 152.959021 228.934197 
L 153.033549 227.67066 
L 153.073297 228.159957 
L 153.197509 228.817107 
L 153.113045 228.047128 
L 153.277005 228.49937 
L 153.440966 227.997846 
L 153.480714 228.147914 
L 153.540336 228.4034 
L 153.604926 228.267413 
L 153.619832 228.255741 
L 153.65958 228.387467 
L 153.813603 228.511227 
L 153.719202 228.295574 
L 153.833477 228.480658 
L 154.121651 228.120865 
L 154.623469 227.725129 
L 154.98617 227.671772 
L 156.059367 227.623046 
L 156.933823 227.638794 
L 157.018288 226.730974 
L 156.973571 227.643611 
L 157.048099 226.934585 
L 157.122626 227.277704 
L 157.187217 227.801275 
L 157.27665 227.658618 
L 157.31143 227.550606 
L 157.336272 227.485206 
L 157.380989 227.704565 
L 157.465453 227.950788 
L 157.500233 227.777931 
L 157.530044 227.617117 
L 157.594634 227.905211 
L 157.664193 227.999884 
L 157.738721 227.918551 
L 157.982177 228.107896 
L 158.031863 228.054353 
L 158.53865 227.345142 
L 158.777138 227.139678 
L 160.834098 227.173953 
L 160.908626 227.176918 
L 160.923531 220.431262 
L 161.017933 225.422047 
L 161.147114 228.076215 
L 161.201767 227.63972 
L 161.261389 227.062792 
L 161.321011 227.493172 
L 161.415413 228.76801 
L 161.475035 228.119938 
L 161.489941 228.032306 
L 161.534657 228.551986 
L 161.743334 230.110657 
L 161.748303 230.119179 
L 161.778114 229.993011 
L 161.867547 228.28279 
L 162.111003 224.132202 
L 162.265027 224.001772 
L 162.424019 224.071804 
L 163.934444 224.984996 
L 164.774121 226.179798 
L 164.883428 226.227412 
L 164.962924 223.877642 
L 164.997704 224.770269 
L 165.136822 230.77281 
L 165.231223 229.923165 
L 165.310719 231.947232 
L 165.370341 232.915079 
L 165.434932 232.355195 
L 165.50946 230.210517 
L 165.618767 230.287219 
L 165.658515 229.96485 
L 165.713168 230.419686 
L 165.777759 230.778368 
L 165.837381 230.58365 
L 166.080837 229.136882 
L 166.354105 226.518656 
L 166.567751 225.874474 
L 166.721774 225.77202 
L 168.858231 225.853354 
L 168.947664 224.276341 
L 168.972506 224.492921 
L 169.106656 224.925896 
L 169.012254 224.446419 
L 169.141435 224.765452 
L 169.181183 224.593522 
L 169.250742 224.747852 
L 169.315333 224.941273 
L 169.42464 225.086524 
L 169.454451 225.008711 
L 169.474325 224.984626 
L 169.504136 225.155074 
L 169.538915 225.34201 
L 169.598537 225.067071 
L 169.663128 224.921449 
L 169.717782 225.002597 
L 169.827089 225.27309 
L 169.886711 225.139511 
L 169.986081 224.407697 
L 170.388529 220.275821 
L 170.577333 219.888238 
L 170.945002 219.844514 
L 171.903923 219.875454 
L 172.833033 219.890461 
L 172.922466 218.487972 
L 172.947308 218.625257 
L 172.952277 218.630259 
L 172.972151 218.521136 
L 173.001962 218.382554 
L 173.07649 218.574493 
L 173.136112 218.724932 
L 173.180828 218.540589 
L 173.260324 217.725033 
L 173.33982 218.028504 
L 173.692584 218.816455 
L 173.891324 219.085836 
L 174.030442 218.958186 
L 174.447796 217.842679 
L 175.252694 214.070596 
L 175.590552 213.700243 
L 175.694891 213.678196 
L 175.724702 213.706357 
L 176.06256 213.704689 
L 176.584253 213.739149 
L 176.807835 213.743225 
L 176.897268 212.431519 
L 176.842615 213.868838 
L 176.927079 212.616788 
L 176.971796 212.433186 
L 177.046323 212.627534 
L 177.096008 212.703123 
L 177.135756 212.583069 
L 177.394119 211.640974 
L 177.443804 211.343247 
L 177.473615 211.219487 
L 177.533237 211.502949 
L 177.568016 211.570202 
L 177.632607 211.466451 
L 177.791599 211.319347 
L 177.806504 211.326758 
L 177.960528 211.332316 
L 177.975433 211.300635 
L 178.477252 209.688051 
L 178.825048 208.166804 
L 179.525606 207.002202 
L 179.788937 206.967556 
L 179.992646 206.982748 
L 180.226165 206.981451 
L 180.782638 206.988121 
L 180.867102 206.173307 
L 180.817417 207.398678 
L 180.896913 206.466032 
L 180.90685 206.486968 
L 180.951567 206.255196 
L 181.170181 205.141357 
L 181.20496 204.955717 
L 181.264582 205.256224 
L 181.329173 205.442234 
L 181.383827 205.301985 
L 181.393764 205.297909 
L 181.418606 205.410182 
L 181.57263 205.74237 
L 181.791244 205.916523 
L 181.840929 205.972475 
L 181.885645 205.870021 
L 182.611047 203.930992 
L 182.839598 203.556563 
L 183.445755 202.301919 
L 183.674306 202.077929 
L 184.762409 201.834114 
L 184.767377 201.915447 
L 184.797188 202.964442 
L 184.846873 201.378166 
L 184.866747 201.480806 
L 184.876684 201.504335 
L 184.921401 201.247181 
L 184.946243 201.278121 
L 184.966117 201.342595 
L 185.030708 201.626242 
L 185.095298 201.428004 
L 185.28907 201.135834 
L 185.368566 201.179928 
L 185.38844 201.058762 
L 185.537495 200.836439 
L 185.696487 200.854966 
L 185.855479 200.941487 
L 185.875353 200.925739 
L 186.21818 200.475164 
L 187.405652 198.287504 
L 188.121117 197.914371 
L 188.732242 197.79969 
L 188.816707 197.02934 
L 188.767022 198.471847 
L 188.851487 197.253886 
L 188.911109 197.356711 
L 189.000542 197.776346 
L 189.055195 197.597746 
L 189.124754 197.379869 
L 189.179408 197.513819 
L 189.30362 197.581813 
L 189.318526 197.558654 
L 189.447707 197.131609 
L 189.552045 197.269264 
L 189.795502 197.511596 
L 190.098581 197.336146 
L 190.933289 195.898456 
L 191.360581 195.655753 
L 191.862399 195.436209 
L 192.716982 195.401749 
L 192.741824 196.075203 
L 192.791509 194.49115 
L 192.801446 194.553216 
L 192.836226 194.936353 
L 192.925659 194.758123 
L 193.044903 194.854834 
L 193.059809 194.826117 
L 193.313202 194.161742 
L 193.328108 194.155257 
L 193.367856 194.255303 
L 193.382761 194.27105 
L 193.437415 194.161371 
L 193.601375 194.026495 
L 193.626218 194.048542 
L 193.974013 194.286613 
L 194.301934 194.032794 
L 194.94784 193.475689 
L 195.921666 193.023447 
L 196.686816 192.702005 
L 196.691784 192.771295 
L 196.716627 193.614641 
L 196.766312 192.215673 
L 196.791154 192.45467 
L 196.950146 193.191301 
L 196.835871 192.388158 
L 196.979957 193.056795 
L 197.099201 191.678762 
L 197.163792 192.255876 
L 197.228383 192.174358 
L 197.283036 192.312383 
L 197.362532 192.337395 
L 197.40228 192.266622 
L 197.516556 192.112663 
L 197.566241 192.157683 
L 197.70039 192.200295 
L 197.725233 192.170652 
L 198.212146 191.683579 
L 199.007107 191.505165 
L 200.65665 191.421423 
L 200.696398 192.511918 
L 200.746083 191.188169 
L 200.760988 191.306371 
L 200.939854 192.232718 
L 200.944823 192.228086 
L 201.004445 191.802707 
L 201.143563 191.447361 
L 201.163437 191.47793 
L 201.198216 191.532585 
L 201.242933 191.390113 
L 201.282681 191.273208 
L 201.347272 191.427908 
L 201.48639 191.604284 
L 201.526138 191.555002 
L 201.680161 191.403267 
L 201.714941 191.444952 
L 201.814311 191.569824 
L 201.868964 191.508129 
L 202.21676 191.197803 
L 203.255177 190.817075 
L 204.631452 190.690165 
L 204.715917 189.946494 
L 204.666232 191.335829 
L 204.760633 190.32222 
L 204.820255 190.269789 
L 204.860003 190.358718 
L 204.879877 190.387065 
L 204.919625 190.213467 
L 205.053775 190.085446 
L 205.128302 190.208836 
L 205.192893 190.235885 
L 205.212767 190.148623 
L 205.292263 189.592074 
L 205.376727 189.752517 
L 205.481066 189.662662 
L 205.550625 189.634315 
L 205.60031 189.670258 
L 205.804019 189.669146 
L 206.723192 189.27971 
L 207.364129 189.091476 
L 208.1889 188.981056 
L 208.611223 188.914915 
L 208.616191 188.959194 
L 208.641034 189.767709 
L 208.690719 188.35818 
L 208.715561 188.630897 
L 208.874554 189.391798 
L 208.884491 189.382164 
L 208.998766 188.983094 
L 209.063357 188.590879 
L 209.127947 188.757436 
L 209.202475 188.851923 
L 209.247191 188.76392 
L 209.411152 188.616261 
L 210.971262 189.024038 
L 212.581057 189.089809 
L 212.620805 190.194199 
L 212.665521 188.984761 
L 212.695332 189.19745 
L 212.879167 189.868125 
L 212.73508 189.09055 
L 212.943758 189.500736 
L 212.998411 189.272299 
L 213.063002 189.443303 
L 213.137529 189.526674 
L 213.16734 189.420885 
L 213.281616 189.031634 
L 213.321364 189.134088 
L 213.36608 189.188558 
L 213.435639 189.137053 
L 213.559852 189.138905 
L 213.69897 189.084436 
L 213.89771 188.901761 
L 214.339907 188.668507 
L 216.555859 188.539003 
L 216.590639 189.819214 
L 216.645292 188.139563 
L 216.655229 188.214967 
L 216.824158 189.259145 
L 216.839064 189.225797 
L 217.047741 188.344656 
L 217.107363 188.44359 
L 217.132206 188.463599 
L 217.171954 188.332984 
L 217.186859 188.290742 
L 217.236544 188.506952 
L 217.271324 188.60533 
L 217.345851 188.493612 
L 217.499875 188.467489 
L 217.718489 188.4988 
L 217.91226 188.500653 
L 218.086158 188.384859 
L 218.667473 188.147159 
L 219.626394 188.010986 
L 220.530662 187.986715 
L 220.565441 188.936962 
L 220.615126 187.724374 
L 220.639969 187.999499 
L 220.793992 188.5642 
L 220.818835 188.583283 
L 220.848646 188.462302 
L 220.952984 187.55615 
L 221.022543 187.929653 
L 221.03248 187.938731 
L 221.062291 187.816638 
L 221.246126 187.331974 
L 221.459772 187.068891 
L 221.489583 187.095014 
L 221.792661 187.292141 
L 222.309386 187.348648 
L 223.660818 187.258978 
L 224.505464 187.244897 
L 224.515401 181.482836 
L 224.614771 184.338763 
L 224.753889 186.464358 
L 224.788669 186.197199 
L 224.868165 185.229538 
L 224.937724 185.504107 
L 225.002314 185.902436 
L 225.071873 185.702715 
L 225.270613 184.403792 
L 225.310361 184.652053 
L 225.374952 185.04223 
L 225.429606 184.768217 
L 225.936393 180.02699 
L 226.358716 175.593496 
L 226.517708 175.473626 
L 226.537582 175.491968 
L 226.562424 175.503084 
L 226.597204 175.405447 
L 226.627015 175.364873 
L 226.711479 175.405077 
L 226.751227 175.390255 
L 226.786007 175.328746 
L 226.900282 175.351163 
L 227.37229 175.320223 
L 227.47166 175.303364 
L 227.486566 175.289839 
L 227.720085 175.284281 
L 227.933731 175.265198 
L 228.480266 175.201836 
L 228.564731 173.536265 
L 228.594542 174.099669 
L 228.73366 177.731689 
L 228.798251 177.212194 
L 228.83303 176.973011 
L 228.882715 177.483798 
L 228.982085 179.194205 
L 229.046676 178.440529 
L 229.270258 175.833975 
L 229.290132 175.947916 
L 229.36466 176.970602 
L 229.424282 176.260836 
L 229.632959 175.08067 
L 230.045345 173.52237 
L 230.765778 172.520989 
L 231.053951 172.113212 
L 231.625329 171.841422 
L 232.007903 171.800848 
L 232.335825 171.72359 
L 232.455069 171.704322 
L 232.539533 171.078112 
L 232.494817 172.272173 
L 232.569344 171.305993 
L 232.743242 171.72007 
L 232.78299 171.619284 
L 232.887328 171.284317 
L 232.966825 171.361759 
L 233.01651 171.508307 
L 233.056258 171.628732 
L 233.145691 171.58927 
L 233.190407 171.690242 
L 233.240092 171.539062 
L 233.319588 171.218546 
L 233.374242 171.402889 
L 233.433864 171.595199 
L 233.498454 171.499229 
L 234.01021 170.670705 
L 235.321895 169.877382 
L 236.429871 169.569649 
L 236.519304 169.227272 
L 236.469619 170.437266 
L 236.544147 169.383639 
L 236.708107 169.837919 
L 236.578926 169.369558 
L 236.742887 169.682478 
L 236.946595 169.095175 
L 237.110556 168.795779 
L 237.145336 168.818382 
L 237.304328 168.791518 
L 237.557721 168.50713 
L 237.602438 168.54196 
L 237.850863 168.601061 
L 240.409642 167.380137 
L 240.414611 167.419228 
L 240.444422 168.499719 
L 240.489138 167.28287 
L 240.528886 167.553919 
L 240.613351 167.555772 
L 240.633225 167.600422 
L 240.687878 167.786803 
L 240.732595 167.560589 
L 240.856807 167.03498 
L 240.906492 167.043688 
L 240.990957 166.89714 
L 241.04561 166.678707 
L 241.184728 166.482507 
L 241.368563 166.406732 
L 241.666673 166.439895 
L 242.397043 166.246659 
L 242.73987 166.015072 
L 243.465271 165.612667 
L 244.379476 165.320312 
L 244.419224 166.647397 
L 244.493751 165.487796 
L 244.49872 165.495021 
L 244.528531 165.423137 
L 244.578216 165.416097 
L 244.652744 165.538189 
L 244.667649 165.540968 
L 244.69746 165.437217 
L 244.816704 164.908088 
L 244.871358 165.051116 
L 244.886263 165.059083 
L 244.926011 164.955517 
L 245.09494 164.78896 
L 245.820342 164.678169 
L 246.75442 164.414901 
L 248.145601 164.16627 
L 248.364215 164.235561 
L 248.394026 165.291966 
L 248.438743 164.021945 
L 248.473522 164.282804 
L 248.652388 164.477893 
L 248.533144 164.202027 
L 248.677231 164.448065 
L 248.751759 164.021019 
L 248.811381 163.750896 
L 248.885908 163.837787 
L 248.920688 163.834267 
L 248.965404 163.770905 
L 249.069743 163.546544 
L 249.149239 163.618243 
L 249.268483 163.550991 
L 249.447349 163.342192 
L 249.516908 163.426119 
L 249.760365 163.435938 
L 252.329081 162.9283 
L 252.36386 164.435096 
L 252.443356 163.305323 
L 252.602348 163.636029 
L 252.622222 163.604163 
L 252.970018 162.694491 
L 253.114104 162.631684 
L 253.332718 162.547201 
L 253.566238 162.485877 
L 253.933907 162.383053 
L 255.235655 162.157951 
L 256.303883 162.051236 
L 256.343631 163.531352 
L 256.418159 162.369528 
L 256.572182 162.582773 
L 256.44797 162.33618 
L 256.601993 162.51552 
L 256.780859 162.073468 
L 256.800733 162.091995 
L 256.865324 162.179442 
L 256.929914 162.103667 
L 257.302552 161.89635 
L 258.097513 161.832062 
L 260.278685 161.610109 
L 260.313465 163.097451 
L 260.392961 162.086251 
L 260.432709 162.074394 
L 260.546985 162.281896 
L 260.566859 162.279302 
L 260.606607 162.18852 
L 260.974276 161.183064 
L 261.009055 161.21493 
L 261.108425 161.298116 
L 261.15811 161.239756 
L 261.312134 161.215115 
L 261.575465 161.258098 
L 262.007724 161.225675 
L 264.253488 160.994459 
L 264.288267 162.610749 
L 264.367763 161.559716 
L 264.41248 161.513213 
L 264.526756 161.764253 
L 264.581409 161.670322 
L 264.760275 161.006317 
L 264.84474 161.178988 
L 264.869582 161.189177 
L 264.914299 161.095616 
L 264.949078 161.075607 
L 265.023606 161.120072 
L 265.202472 161.035033 
L 265.391275 161.010207 
L 265.614858 161.031513 
L 265.893094 160.952589 
L 268.22829 160.591313 
L 268.238227 153.820276 
L 268.342566 156.177457 
L 268.496589 156.972077 
L 268.5264 156.850356 
L 269.177274 152.151185 
L 269.202117 152.149147 
L 269.236896 152.233815 
L 269.316392 152.493748 
L 269.366077 152.338121 
L 269.992109 148.217362 
L 270.4194 144.733372 
L 270.702605 143.920966 
L 271.030526 143.448159 
L 271.179581 143.453347 
L 271.38329 143.396098 
L 271.437943 143.357748 
L 271.507502 143.413514 
L 271.621778 143.317359 
L 271.755927 143.292162 
L 272.088817 143.255479 
L 272.203093 143.244177 
L 272.242841 144.334302 
L 272.352148 144.221658 
L 272.471392 145.319008 
L 272.516108 144.957178 
L 272.605541 144.282982 
L 272.650258 144.636291 
L 272.719817 145.533365 
L 272.784407 145.019799 
L 273.032833 144.099751 
L 273.037801 144.102901 
L 273.092455 144.592568 
L 273.162014 145.086125 
L 273.226604 144.870471 
L 273.415407 144.726332 
L 273.733392 144.526982 
L 274.140809 144.086782 
L 274.473698 143.661404 
L 275.045076 143.354783 
L 275.402809 143.231209 
L 276.177895 142.963124 
L 276.187832 142.204817 
L 276.217643 143.492994 
L 276.287202 142.534225 
L 276.490911 143.165994 
L 276.510785 143.130607 
L 277.087131 140.862726 
L 277.141785 141.002234 
L 277.211344 141.177684 
L 277.265997 141.054294 
L 277.529328 140.530353 
L 277.78769 140.461803 
L 278.537934 139.101926 
L 278.841013 138.802531 
L 279.432264 138.557235 
L 280.152697 138.462747 
L 280.157666 138.136488 
L 280.192445 139.34185 
L 280.262004 138.385119 
L 280.271941 138.39216 
L 280.341501 138.306009 
L 280.545209 137.811526 
L 280.743949 137.262202 
L 280.838351 137.15734 
L 281.051996 136.85461 
L 281.191115 136.797176 
L 281.20602 136.808848 
L 281.53891 136.971515 
L 282.26928 136.666191 
L 283.402098 136.038128 
L 284.1275 135.729099 
L 284.167248 136.888329 
L 284.251712 135.959018 
L 284.544854 135.345406 
L 284.833027 134.647496 
L 285.1212 134.358847 
L 286.015531 134.28196 
L 287.188098 133.670201 
L 287.70979 133.482152 
L 287.933373 133.447136 
L 288.102302 133.41879 
L 288.14205 135.020629 
L 288.216578 134.080757 
L 288.226515 134.089465 
L 288.286137 134.002759 
L 288.633932 133.106982 
L 288.867452 132.873357 
L 289.727003 132.701983 
L 290.005239 132.604346 
L 290.243727 132.489479 
L 290.541837 132.359606 
L 290.859821 132.18749 
L 291.182774 132.114309 
L 292.077105 131.877905 
L 292.116853 133.658343 
L 292.196349 132.729774 
L 292.439805 132.220839 
L 292.693199 131.493472 
L 292.7876 131.354149 
L 292.961498 131.153873 
L 293.821049 130.91469 
L 294.188718 130.846141 
L 294.819718 130.664391 
L 296.037001 130.285145 
L 296.051907 130.285516 
L 296.091655 131.856599 
L 296.166183 130.911541 
L 296.345049 130.807234 
L 296.43945 130.456334 
L 296.762403 129.634479 
L 296.921395 129.635776 
L 297.36856 129.571303 
L 297.785914 129.475704 
L 298.556032 129.278948 
L 300.026709 129.02235 
L 300.066457 130.781852 
L 300.140985 129.85495 
L 300.38941 129.413453 
L 300.583182 128.743519 
L 300.617961 128.766493 
L 300.677583 128.710541 
L 300.68752 128.684233 
L 300.851481 128.527125 
L 301.477512 128.347043 
L 302.684858 128.280902 
L 303.981638 128.10434 
L 304.001512 128.103784 
L 304.04126 129.963703 
L 304.115787 129.041618 
L 304.165472 129.033836 
L 304.190315 128.968621 
L 304.488425 128.205682 
L 304.503331 128.213649 
L 304.53811 128.211241 
L 304.567921 128.137133 
L 304.826283 127.675997 
L 306.590102 127.499436 
L 307.976314 127.33751 
L 308.016062 128.977144 
L 308.09059 128.05617 
L 308.100527 128.055429 
L 308.120401 128.015226 
L 308.15518 127.978357 
L 308.741464 126.84525 
L 308.78618 126.885824 
L 308.960078 126.955115 
L 308.970015 126.946777 
L 309.228377 126.862295 
L 309.799755 126.868223 
L 310.232014 126.805232 
L 311.17603 126.638675 
L 311.951117 126.602732 
L 311.961054 118.049219 
L 312.065392 120.488289 
L 312.274069 121.526909 
L 312.318786 121.391848 
L 312.592053 119.587139 
L 312.900101 116.092219 
L 313.7994 110.920056 
L 313.988203 110.36536 
L 314.788132 107.578353 
L 315.806675 106.85006 
L 315.925919 106.821899 
L 315.965667 107.754359 
L 316.040194 107.165018 
L 316.184281 107.822353 
L 316.224029 107.723605 
L 316.38799 106.769468 
L 316.447612 107.128334 
L 316.48736 107.375854 
L 316.55195 107.088687 
L 316.780501 106.377438 
L 316.820249 106.712219 
L 316.879871 107.302117 
L 316.944462 106.930281 
L 316.979242 106.780954 
L 317.063706 106.865437 
L 317.471123 106.445061 
L 318.276021 105.737147 
L 318.638722 105.581336 
L 319.145509 105.451276 
L 319.900721 105.355678 
L 319.910658 104.928632 
L 319.940469 106.27591 
L 320.010028 105.40181 
L 320.218705 105.506487 
L 320.233611 105.477029 
L 320.770209 103.290295 
L 320.844737 103.142636 
L 320.89939 103.199699 
L 321.023603 103.297336 
L 321.058382 103.228786 
L 321.475737 102.365246 
L 321.873217 101.91393 
L 323.875524 101.535239 
L 323.915272 102.609616 
L 324.024579 101.867056 
L 324.104075 101.786464 
L 324.238224 101.495962 
L 324.546272 100.644094 
L 324.730106 100.370266 
L 325.04809 100.114224 
L 326.002043 100.179809 
L 326.747318 100.013437 
L 327.144799 99.928769 
L 327.850326 99.817978 
L 327.890074 101.245478 
L 327.964602 100.586475 
L 328.063972 100.404541 
L 328.79931 99.078753 
L 331.094759 98.678201 
L 331.825128 98.551477 
L 331.864876 100.012881 
L 331.939404 99.321271 
L 332.167955 98.980746 
L 332.500845 98.190387 
L 333.027506 97.934715 
L 333.683349 97.901367 
L 335.799931 97.70739 
L 335.809868 89.215201 
L 335.914206 91.407307 
L 336.311687 94.686574 
L 336.316655 94.684351 
L 336.361372 94.510753 
L 337.076836 90.061511 
L 337.379915 89.589259 
L 338.095379 87.170198 
L 338.45808 86.065993 
L 339.233166 84.523626 
L 339.774733 83.865735 
L 339.814481 84.30649 
L 339.869135 83.829051 
L 339.88404 83.866105 
L 339.968505 84.10677 
L 340.038064 84.030254 
L 340.21693 83.450176 
L 340.281521 83.219886 
L 340.341143 83.376438 
L 340.380891 83.459439 
L 340.425607 83.296958 
L 340.688938 82.132355 
L 340.728686 82.396364 
L 340.768434 82.569591 
L 340.818119 82.224804 
L 341.01189 81.26196 
L 341.235473 80.517733 
L 341.5783 80.121071 
L 341.960875 79.983602 
L 342.30867 79.898378 
L 342.909859 79.790921 
L 343.441488 79.719963 
L 343.739599 79.688838 
L 343.749536 79.686985 
L 343.789284 81.025556 
L 343.86878 80.323015 
L 344.191732 79.244748 
L 344.385504 78.778239 
L 344.395441 78.780833 
L 344.773047 79.100979 
L 345.056252 79.341643 
L 346.432527 79.180089 
L 347.05359 79.065592 
L 347.311952 79.04336 
L 347.555409 79.041322 
L 347.724338 78.99871 
L 347.734275 79.035949 
L 347.764086 79.821306 
L 347.858488 79.389999 
L 348.092007 79.409081 
L 348.265905 78.915339 
L 348.757787 77.679037 
L 348.787598 77.69497 
L 348.931684 77.638648 
L 349.67696 76.868113 
L 351.391093 76.598361 
L 351.69914 76.603363 
L 351.738888 77.548236 
L 351.818384 77.107296 
L 352.002219 76.878858 
L 352.171148 76.403272 
L 352.419573 76.001979 
L 352.89655 75.705177 
L 354.18836 75.690171 
L 354.705085 75.59698 
L 355.256589 75.547884 
L 355.673943 75.492488 
L 355.713691 77.908771 
L 355.788218 77.218828 
L 355.937273 76.437176 
L 356.275132 75.156224 
L 356.349659 75.245895 
L 356.538462 76.007907 
L 356.697454 76.266358 
L 357.194305 76.929622 
L 357.447698 77.138606 
L 357.795494 77.469682 
L 357.964423 77.672367 
L 358.242659 77.881536 
L 358.943218 78.049205 
L 359.584155 78.102562 
L 359.648745 78.104785 
L 359.663651 68.819273 
L 359.763021 71.687798 
L 360.220123 78.597972 
L 360.244966 78.563883 
L 360.349304 77.970095 
L 360.523202 74.921118 
L 360.76169 72.087979 
L 360.985272 71.220549 
L 361.323131 70.180817 
L 361.631178 69.341362 
L 363.221099 66.66737 
L 363.623548 66.444306 
L 363.628516 68.096723 
L 363.737823 67.972036 
L 363.862036 68.109692 
L 363.896815 68.095796 
L 364.070713 67.882181 
L 364.155177 67.623545 
L 364.214799 67.763979 
L 364.388697 67.969628 
L 364.458256 68.016872 
L 364.493036 67.942579 
L 364.587437 67.79251 
L 364.617248 67.914418 
L 364.656996 68.072638 
L 364.716618 67.84346 
L 364.746429 67.795475 
L 364.825925 67.855132 
L 365.322776 67.736559 
L 367.220744 67.495339 
L 367.578476 67.449392 
L 367.59835 67.444019 
L 367.638098 69.009359 
L 367.712626 68.682174 
L 367.821933 68.543036 
L 368.115074 67.645777 
L 368.388342 67.189274 
L 368.900098 66.732214 
L 369.237956 66.700348 
L 369.928578 66.718504 
L 370.42046 66.636245 
L 371.34957 66.56084 
L 371.573152 66.499887 
L 371.617869 68.233822 
L 371.687428 67.898485 
L 371.816609 67.733595 
L 372.412829 66.64662 
L 372.691066 66.5777 
L 373.103451 66.541202 
L 375.547955 66.649399 
L 375.587703 67.580192 
L 375.66223 67.290801 
L 375.836128 67.123874 
L 376.12927 66.487844 
L 376.32801 66.272376 
L 376.844734 65.809017 
L 377.594978 65.754363 
L 378.414781 65.684702 
L 379.522757 65.589288 
L 379.567474 66.602526 
L 379.637033 66.342222 
L 379.791056 66.215683 
L 380.039481 65.646536 
L 380.287907 65.330281 
L 380.819536 65.089431 
L 381.525064 65.069978 
L 382.647945 65.042743 
L 383.49756 64.998464 
L 383.512465 59.955989 
L 383.611835 61.482608 
L 384.088811 66.11045 
L 384.138496 65.99651 
L 384.322331 64.796521 
L 384.550882 63.458876 
L 384.774465 63.238591 
L 385.092449 62.950312 
L 386.811551 60.798038 
L 387.055008 60.509574 
L 387.472362 60.175904 
L 387.47733 61.949672 
L 387.586637 61.696594 
L 387.71085 61.566165 
L 388.262354 60.785255 
L 388.381598 60.72356 
L 388.500842 60.580347 
L 388.54059 60.636483 
L 388.570401 60.612769 
L 388.590275 60.554224 
L 388.784047 60.245936 
L 390.060952 60.026577 
L 391.447164 59.90819 
L 391.491881 60.98516 
L 391.56144 60.726339 
L 391.780054 60.218701 
L 392.252062 59.151365 
L 392.704196 58.924039 
L 393.424628 58.748589 
L 395.421967 58.655769 
L 395.466683 59.676974 
L 395.536242 59.50245 
L 395.764793 59.239553 
L 396.713777 58.150725 
L 399.396769 57.967864 
L 399.441486 58.471982 
L 399.511045 58.293568 
L 399.729659 57.992505 
L 400.251352 57.22197 
L 401.051281 57.041518 
L 401.796556 57.01521 
L 402.690887 57.003723 
L 403.371571 56.960926 
L 403.416288 57.456151 
L 403.485847 57.30775 
L 403.684587 57.144157 
L 404.231122 56.507572 
L 404.852185 56.350649 
L 405.493122 56.33453 
L 407.346374 56.311927 
L 407.366248 53.062489 
L 407.460649 54.030892 
L 407.773665 56.909421 
L 407.967437 57.710896 
L 408.036996 57.598808 
L 408.230767 56.752868 
L 408.543783 55.387433 
L 408.822019 54.97243 
L 410.471562 53.999025 
L 411.281428 53.672951 
L 411.321176 53.659056 
L 411.326145 54.572619 
L 411.435452 54.319171 
L 411.857775 53.760769 
L 411.967082 53.586616 
L 412.026704 53.639603 
L 412.245318 53.684994 
L 413.517255 53.467117 
L 414.610325 53.437289 
L 415.295979 53.398567 
L 415.340695 53.851736 
L 415.410254 53.711117 
L 415.872325 53.171798 
L 416.081002 52.983935 
L 416.642443 52.701214 
L 418.262175 52.631738 
L 419.270781 52.596351 
L 419.325435 52.917238 
L 419.385057 52.838128 
L 419.827253 52.520947 
L 420.045867 52.364765 
L 420.299261 52.235261 
L 420.652025 52.097236 
L 423.25552 51.990521 
L 423.295268 52.070186 
L 423.374764 51.992373 
L 423.792119 51.704465 
L 424.02067 51.550135 
L 424.512552 51.457686 
L 425.700024 51.433786 
L 425.700024 51.433786 
" clip-path="url(#p427cda26b5)" style="fill: none; stroke: #1a1a1a; stroke-width: 1.5; stroke-linecap: round"/>
   </g>
   <g id="patch_3">
    <path d="M 96.840525 278.817032 
L 96.840525 19.44 
" style="fill: none; stroke: #ffffff; stroke-width: 1.25; stroke-linejoin: miter; stroke-linecap: square"/>
   </g>
   <g id="patch_4">
    <path d="M 441.36 278.817032 
L 441.36 19.44 
" style="fill: none; stroke: #ffffff; stroke-width: 1.25; stroke-linejoin: miter; stroke-linecap: square"/>
   </g>
   <g id="patch_5">
    <path d="M 96.840525 278.817032 
L 441.36 278.817032 
" style="fill: none; stroke: #ffffff; stroke-width: 1.25; stroke-linejoin: miter; stroke-linecap: square"/>
   </g>
   <g id="patch_6">
    <path d="M 96.840525 19.44 
L 441.36 19.44 
" style="fill: none; stroke: #ffffff; stroke-width: 1.25; stroke-linejoin: miter; stroke-linecap: square"/>
   </g>
  </g>
 </g>
 <defs>
  <clipPath id="p427cda26b5">
   <rect x="96.840525" y="19.44" width="344.519475" height="259.377032"/>
  </clipPath>
 </defs>
</svg>
