<?xml version="1.0" encoding="utf-8" standalone="no"?>
<!DOCTYPE svg PUBLIC "-//W3C//DTD SVG 1.1//EN"
  "http://www.w3.org/Graphics/SVG/1.1/DTD/svg11.dtd">
<svg xmlns:xlink="http://www.w3.org/1999/xlink" width="460.8pt" height="345.6pt" viewBox="0 0 460.8 345.6" xmlns="http://www.w3.org/2000/svg" version="1.1">
 <metadata>
  <rdf:RDF xmlns:dc="http://purl.org/dc/elements/1.1/" xmlns:cc="http://creativecommons.org/ns#" xmlns:rdf="http://www.w3.org/1999/02/22-rdf-syntax-ns#">
   <cc:Work>
    <dc:type rdf:resource="http://purl.org/dc/dcmitype/StillImage"/>
    <dc:date>2023-04-27T15:12:43.362796</dc:date>
    <dc:format>image/svg+xml</dc:format>
    <dc:creator>
     <cc:Agent>
      <dc:title>Matplotlib v3.7.1, https://matplotlib.org/</dc:title>
     </cc:Agent>
    </dc:creator>
   </cc:Work>
  </rdf:RDF>
 </metadata>
 <defs>
  <style type="text/css">*{stroke-linejoin: round; stroke-linecap: butt}</style>
 </defs>
 <g id="figure_1">
  <g id="patch_1">
   <path d="M 0 345.6 
L 460.8 345.6 
L 460.8 0 
L 0 0 
z
" style="fill: #ffffff"/>
  </g>
  <g id="axes_1">
   <g id="patch_2">
    <path d="M 80.391953 278.817032 
L 441.36 278.817032 
L 441.36 25.66665 
L 80.391953 25.66665 
z
" style="fill: #eaeaf2"/>
   </g>
   <g id="matplotlib.axis_1">
    <g id="xtick_1">
     <g id="line2d_1">
      <path d="M 96.794386 278.817032 
L 96.794386 25.66665 
" clip-path="url(#p7eaeecc2e1)" style="fill: none; stroke: #ffffff; stroke-linecap: round"/>
     </g>
     <g id="text_1">
      <!-- $\mathdefault{0}$ -->
      <g style="fill: #262626" transform="translate(92.682243 300.770332) scale(0.18 -0.18)">
       <defs>
        <path id="CMR17-30" d="M 2688 2025 
C 2688 2416 2682 3080 2413 3591 
C 2176 4039 1798 4198 1466 4198 
C 1158 4198 768 4058 525 3597 
C 269 3118 243 2524 243 2025 
C 243 1661 250 1106 448 619 
C 723 -39 1216 -128 1466 -128 
C 1760 -128 2208 -7 2470 600 
C 2662 1042 2688 1559 2688 2025 
z
M 1466 -26 
C 1056 -26 813 325 723 812 
C 653 1188 653 1738 653 2096 
C 653 2588 653 2997 736 3387 
C 858 3929 1216 4096 1466 4096 
C 1728 4096 2067 3923 2189 3400 
C 2272 3036 2278 2607 2278 2096 
C 2278 1680 2278 1169 2202 792 
C 2067 95 1690 -26 1466 -26 
z
" transform="scale(0.015625)"/>
       </defs>
       <use xlink:href="#CMR17-30" transform="scale(0.996264)"/>
      </g>
     </g>
    </g>
    <g id="xtick_2">
     <g id="line2d_2">
      <path d="M 200.908722 278.817032 
L 200.908722 25.66665 
" clip-path="url(#p7eaeecc2e1)" style="fill: none; stroke: #ffffff; stroke-linecap: round"/>
     </g>
     <g id="text_2">
      <!-- $\mathdefault{20000}$ -->
      <g style="fill: #262626" transform="translate(180.348007 300.770332) scale(0.18 -0.18)">
       <defs>
        <path id="CMR17-32" d="M 2669 989 
L 2554 989 
C 2490 536 2438 459 2413 420 
C 2381 369 1920 369 1830 369 
L 602 369 
C 832 619 1280 1072 1824 1597 
C 2214 1967 2669 2402 2669 3035 
C 2669 3790 2067 4224 1395 4224 
C 691 4224 262 3604 262 3030 
C 262 2780 448 2748 525 2748 
C 589 2748 781 2787 781 3010 
C 781 3207 614 3264 525 3264 
C 486 3264 448 3258 422 3245 
C 544 3790 915 4058 1306 4058 
C 1862 4058 2227 3617 2227 3035 
C 2227 2479 1901 2000 1536 1584 
L 262 146 
L 262 0 
L 2515 0 
L 2669 989 
z
" transform="scale(0.015625)"/>
       </defs>
       <use xlink:href="#CMR17-32" transform="scale(0.996264)"/>
       <use xlink:href="#CMR17-30" transform="translate(45.690477 0) scale(0.996264)"/>
       <use xlink:href="#CMR17-30" transform="translate(91.380954 0) scale(0.996264)"/>
       <use xlink:href="#CMR17-30" transform="translate(137.071431 0) scale(0.996264)"/>
       <use xlink:href="#CMR17-30" transform="translate(182.761908 0) scale(0.996264)"/>
      </g>
     </g>
    </g>
    <g id="xtick_3">
     <g id="line2d_3">
      <path d="M 305.023058 278.817032 
L 305.023058 25.66665 
" clip-path="url(#p7eaeecc2e1)" style="fill: none; stroke: #ffffff; stroke-linecap: round"/>
     </g>
     <g id="text_3">
      <!-- $\mathdefault{40000}$ -->
      <g style="fill: #262626" transform="translate(284.462343 300.770332) scale(0.18 -0.18)">
       <defs>
        <path id="CMR17-34" d="M 2150 4122 
C 2150 4256 2144 4256 2029 4256 
L 128 1254 
L 128 1088 
L 1779 1088 
L 1779 457 
C 1779 224 1766 160 1318 160 
L 1197 160 
L 1197 0 
C 1402 0 1747 0 1965 0 
C 2182 0 2528 0 2733 0 
L 2733 160 
L 2611 160 
C 2163 160 2150 224 2150 457 
L 2150 1088 
L 2803 1088 
L 2803 1254 
L 2150 1254 
L 2150 4122 
z
M 1798 3703 
L 1798 1254 
L 256 1254 
L 1798 3703 
z
" transform="scale(0.015625)"/>
       </defs>
       <use xlink:href="#CMR17-34" transform="scale(0.996264)"/>
       <use xlink:href="#CMR17-30" transform="translate(45.690477 0) scale(0.996264)"/>
       <use xlink:href="#CMR17-30" transform="translate(91.380954 0) scale(0.996264)"/>
       <use xlink:href="#CMR17-30" transform="translate(137.071431 0) scale(0.996264)"/>
       <use xlink:href="#CMR17-30" transform="translate(182.761908 0) scale(0.996264)"/>
      </g>
     </g>
    </g>
    <g id="xtick_4">
     <g id="line2d_4">
      <path d="M 409.137394 278.817032 
L 409.137394 25.66665 
" clip-path="url(#p7eaeecc2e1)" style="fill: none; stroke: #ffffff; stroke-linecap: round"/>
     </g>
     <g id="text_4">
      <!-- $\mathdefault{60000}$ -->
      <g style="fill: #262626" transform="translate(388.576679 300.770332) scale(0.18 -0.18)">
       <defs>
        <path id="CMR17-36" d="M 678 2176 
C 678 3690 1395 4032 1811 4032 
C 1946 4032 2272 4009 2400 3776 
C 2298 3776 2106 3776 2106 3553 
C 2106 3381 2246 3323 2336 3323 
C 2394 3323 2566 3348 2566 3560 
C 2566 3954 2246 4179 1805 4179 
C 1043 4179 243 3390 243 1984 
C 243 253 966 -128 1478 -128 
C 2099 -128 2688 427 2688 1283 
C 2688 2081 2170 2662 1517 2662 
C 1126 2662 838 2407 678 1960 
L 678 2176 
z
M 1478 25 
C 691 25 691 1200 691 1436 
C 691 1896 909 2560 1504 2560 
C 1613 2560 1926 2560 2138 2120 
C 2253 1870 2253 1609 2253 1289 
C 2253 944 2253 690 2118 434 
C 1978 171 1773 25 1478 25 
z
" transform="scale(0.015625)"/>
       </defs>
       <use xlink:href="#CMR17-36" transform="scale(0.996264)"/>
       <use xlink:href="#CMR17-30" transform="translate(45.690477 0) scale(0.996264)"/>
       <use xlink:href="#CMR17-30" transform="translate(91.380954 0) scale(0.996264)"/>
       <use xlink:href="#CMR17-30" transform="translate(137.071431 0) scale(0.996264)"/>
       <use xlink:href="#CMR17-30" transform="translate(182.761908 0) scale(0.996264)"/>
      </g>
     </g>
    </g>
    <g id="text_5">
     <!-- Iteration $[-]$ -->
     <g style="fill: #262626" transform="translate(216.991502 321.691816) scale(0.18 -0.18)">
      <defs>
       <path id="CMSS17-49" d="M 1094 4416 
L 557 4416 
L 557 0 
L 1094 0 
L 1094 4416 
z
" transform="scale(0.015625)"/>
       <path id="CMSS17-74" d="M 1069 2368 
L 1901 2368 
L 1901 2737 
L 1069 2737 
L 1069 3520 
L 614 3520 
L 614 2737 
L 109 2737 
L 109 2368 
L 602 2368 
L 602 749 
C 602 384 685 -64 1107 -64 
C 1427 -64 1722 25 2003 172 
L 1901 548 
C 1747 414 1562 337 1363 337 
C 1082 337 1069 696 1069 856 
L 1069 2368 
z
" transform="scale(0.015625)"/>
       <path id="CMSS17-65" d="M 2502 1377 
C 2502 1590 2490 2003 2285 2345 
C 2061 2713 1696 2816 1421 2816 
C 755 2816 192 2188 192 1375 
C 192 582 774 -64 1510 -64 
C 1798 -64 2150 19 2470 248 
C 2470 274 2458 414 2451 420 
C 2451 433 2432 630 2432 656 
C 2125 407 1773 325 1517 325 
C 1107 325 666 667 646 1377 
L 2502 1377 
z
M 698 1728 
C 781 2084 1062 2421 1421 2421 
C 1517 2421 1965 2421 2080 1728 
L 698 1728 
z
" transform="scale(0.015625)"/>
       <path id="CMSS17-72" d="M 954 1363 
C 954 1965 1395 2368 1958 2368 
L 1958 2789 
C 1549 2789 1165 2585 934 2253 
L 934 2758 
L 480 2758 
L 480 0 
L 954 0 
L 954 1363 
z
" transform="scale(0.015625)"/>
       <path id="CMSS17-61" d="M 2406 1791 
C 2406 2392 1978 2808 1402 2808 
C 1120 2808 813 2757 461 2553 
L 499 2135 
C 659 2248 934 2432 1395 2432 
C 1722 2432 1920 2180 1920 1782 
L 1920 1536 
C 896 1536 256 1238 256 726 
C 256 461 416 -64 947 -64 
C 1043 -64 1562 -64 1933 217 
L 1933 -19 
L 2406 -19 
L 2406 1791 
z
M 1920 816 
C 1920 701 1920 548 1728 434 
C 1562 325 1350 325 1261 325 
C 941 325 723 511 723 744 
C 723 1211 1722 1211 1920 1211 
L 1920 816 
z
" transform="scale(0.015625)"/>
       <path id="CMSS17-69" d="M 979 4183 
L 442 4183 
L 442 3648 
L 979 3648 
L 979 4183 
z
M 947 2739 
L 474 2739 
L 474 0 
L 947 0 
L 947 2739 
z
" transform="scale(0.015625)"/>
       <path id="CMSS17-6f" d="M 2829 1356 
C 2829 2176 2221 2816 1504 2816 
C 768 2816 173 2157 173 1356 
C 173 544 787 -64 1498 -64 
C 2227 -64 2829 563 2829 1356 
z
M 1504 337 
C 1050 337 659 709 659 1408 
C 659 2151 1114 2427 1498 2427 
C 1914 2427 2342 2126 2342 1408 
C 2342 683 1926 337 1504 337 
z
" transform="scale(0.015625)"/>
       <path id="CMSS17-6e" d="M 2618 1877 
C 2618 2283 2522 2816 1798 2816 
C 1389 2816 1120 2606 941 2389 
L 941 2758 
L 474 2758 
L 474 0 
L 960 0 
L 960 1559 
C 960 1964 1114 2428 1549 2428 
C 2112 2428 2131 2048 2131 1829 
L 2131 0 
L 2618 0 
L 2618 1877 
z
" transform="scale(0.015625)"/>
       <path id="CMR17-5b" d="M 1504 -1600 
L 1504 -1377 
L 902 -1377 
L 902 4544 
L 1504 4544 
L 1504 4767 
L 678 4767 
L 678 -1600 
L 1504 -1600 
z
" transform="scale(0.015625)"/>
       <path id="CMSY10-0" d="M 4218 1472 
C 4326 1472 4442 1472 4442 1600 
C 4442 1728 4326 1728 4218 1728 
L 755 1728 
C 646 1728 531 1728 531 1600 
C 531 1472 646 1472 755 1472 
L 4218 1472 
z
" transform="scale(0.015625)"/>
       <path id="CMR17-5d" d="M 915 4767 
L 90 4767 
L 90 4544 
L 691 4544 
L 691 -1377 
L 90 -1377 
L 90 -1600 
L 915 -1600 
L 915 4767 
z
" transform="scale(0.015625)"/>
      </defs>
      <use xlink:href="#CMSS17-49" transform="scale(0.996264)"/>
      <use xlink:href="#CMSS17-74" transform="translate(25.783926 0) scale(0.996264)"/>
      <use xlink:href="#CMSS17-65" transform="translate(59.615492 0) scale(0.996264)"/>
      <use xlink:href="#CMSS17-72" transform="translate(101.254314 0) scale(0.996264)"/>
      <use xlink:href="#CMSS17-61" transform="translate(133.164087 0) scale(0.996264)"/>
      <use xlink:href="#CMSS17-74" transform="translate(178.086007 0) scale(0.996264)"/>
      <use xlink:href="#CMSS17-69" transform="translate(211.917574 0) scale(0.996264)"/>
      <use xlink:href="#CMSS17-6f" transform="translate(234.098297 0) scale(0.996264)"/>
      <use xlink:href="#CMSS17-6e" transform="translate(280.941921 0) scale(0.996264)"/>
      <use xlink:href="#CMR17-5b" transform="translate(360.375977 0) scale(0.996264)"/>
      <use xlink:href="#CMSY10-0" transform="translate(385.247035 0) scale(0.996264)"/>
      <use xlink:href="#CMR17-5d" transform="translate(462.734503 0) scale(0.996264)"/>
     </g>
    </g>
   </g>
   <g id="matplotlib.axis_2">
    <g id="ytick_1">
     <g id="line2d_5">
      <path d="M 80.391953 278.817032 
L 441.36 278.817032 
" clip-path="url(#p7eaeecc2e1)" style="fill: none; stroke: #ffffff; stroke-linecap: round"/>
     </g>
     <g id="text_6">
      <!-- $\mathdefault{0.30}$ -->
      <g style="fill: #262626" transform="translate(41.341604 285.043682) scale(0.18 -0.18)">
       <defs>
        <path id="CMMI12-3a" d="M 1178 307 
C 1178 492 1024 619 870 619 
C 685 619 557 466 557 313 
C 557 128 710 0 864 0 
C 1050 0 1178 153 1178 307 
z
" transform="scale(0.015625)"/>
        <path id="CMR17-33" d="M 1414 2157 
C 1984 2157 2234 1662 2234 1090 
C 2234 320 1824 25 1453 25 
C 1114 25 563 194 390 693 
C 422 680 454 680 486 680 
C 640 680 755 782 755 948 
C 755 1133 614 1216 486 1216 
C 378 1216 211 1165 211 926 
C 211 335 787 -128 1466 -128 
C 2176 -128 2720 430 2720 1085 
C 2720 1707 2208 2157 1600 2227 
C 2086 2328 2554 2756 2554 3329 
C 2554 3820 2048 4179 1472 4179 
C 890 4179 378 3829 378 3329 
C 378 3110 544 3072 627 3072 
C 762 3072 877 3155 877 3321 
C 877 3486 762 3569 627 3569 
C 602 3569 570 3569 544 3557 
C 730 3959 1235 4032 1459 4032 
C 1683 4032 2106 3925 2106 3320 
C 2106 3143 2080 2828 1862 2550 
C 1670 2304 1453 2304 1242 2284 
C 1210 2284 1062 2269 1037 2269 
C 992 2263 966 2257 966 2208 
C 966 2163 973 2157 1101 2157 
L 1414 2157 
z
" transform="scale(0.015625)"/>
       </defs>
       <use xlink:href="#CMR17-30" transform="scale(0.996264)"/>
       <use xlink:href="#CMMI12-3a" transform="translate(45.690477 0) scale(0.996264)"/>
       <use xlink:href="#CMR17-33" transform="translate(72.787654 0) scale(0.996264)"/>
       <use xlink:href="#CMR17-30" transform="translate(118.478131 0) scale(0.996264)"/>
      </g>
     </g>
    </g>
    <g id="ytick_2">
     <g id="line2d_6">
      <path d="M 80.391953 242.652692 
L 441.36 242.652692 
" clip-path="url(#p7eaeecc2e1)" style="fill: none; stroke: #ffffff; stroke-linecap: round"/>
     </g>
     <g id="text_7">
      <!-- $\mathdefault{0.35}$ -->
      <g style="fill: #262626" transform="translate(41.341604 248.879342) scale(0.18 -0.18)">
       <defs>
        <path id="CMR17-35" d="M 730 3692 
C 794 3666 1056 3584 1325 3584 
C 1920 3584 2246 3911 2432 4100 
C 2432 4157 2432 4192 2394 4192 
C 2387 4192 2374 4192 2323 4163 
C 2099 4058 1837 3973 1517 3973 
C 1325 3973 1037 3999 723 4139 
C 653 4171 640 4171 634 4171 
C 602 4171 595 4164 595 4037 
L 595 2203 
C 595 2089 595 2057 659 2057 
C 691 2057 704 2070 736 2114 
C 941 2401 1222 2522 1542 2522 
C 1766 2522 2246 2382 2246 1289 
C 2246 1085 2246 715 2054 421 
C 1894 159 1645 25 1370 25 
C 947 25 518 320 403 814 
C 429 807 480 795 506 795 
C 589 795 749 840 749 1038 
C 749 1210 627 1280 506 1280 
C 358 1280 262 1190 262 1011 
C 262 454 704 -128 1382 -128 
C 2042 -128 2669 440 2669 1264 
C 2669 2030 2170 2624 1549 2624 
C 1222 2624 947 2503 730 2274 
L 730 3692 
z
" transform="scale(0.015625)"/>
       </defs>
       <use xlink:href="#CMR17-30" transform="scale(0.996264)"/>
       <use xlink:href="#CMMI12-3a" transform="translate(45.690477 0) scale(0.996264)"/>
       <use xlink:href="#CMR17-33" transform="translate(72.787654 0) scale(0.996264)"/>
       <use xlink:href="#CMR17-35" transform="translate(118.478131 0) scale(0.996264)"/>
      </g>
     </g>
    </g>
    <g id="ytick_3">
     <g id="line2d_7">
      <path d="M 80.391953 206.488351 
L 441.36 206.488351 
" clip-path="url(#p7eaeecc2e1)" style="fill: none; stroke: #ffffff; stroke-linecap: round"/>
     </g>
     <g id="text_8">
      <!-- $\mathdefault{0.40}$ -->
      <g style="fill: #262626" transform="translate(41.341604 212.715001) scale(0.18 -0.18)">
       <use xlink:href="#CMR17-30" transform="scale(0.996264)"/>
       <use xlink:href="#CMMI12-3a" transform="translate(45.690477 0) scale(0.996264)"/>
       <use xlink:href="#CMR17-34" transform="translate(72.787654 0) scale(0.996264)"/>
       <use xlink:href="#CMR17-30" transform="translate(118.478131 0) scale(0.996264)"/>
      </g>
     </g>
    </g>
    <g id="ytick_4">
     <g id="line2d_8">
      <path d="M 80.391953 170.324011 
L 441.36 170.324011 
" clip-path="url(#p7eaeecc2e1)" style="fill: none; stroke: #ffffff; stroke-linecap: round"/>
     </g>
     <g id="text_9">
      <!-- $\mathdefault{0.45}$ -->
      <g style="fill: #262626" transform="translate(41.341604 176.550661) scale(0.18 -0.18)">
       <use xlink:href="#CMR17-30" transform="scale(0.996264)"/>
       <use xlink:href="#CMMI12-3a" transform="translate(45.690477 0) scale(0.996264)"/>
       <use xlink:href="#CMR17-34" transform="translate(72.787654 0) scale(0.996264)"/>
       <use xlink:href="#CMR17-35" transform="translate(118.478131 0) scale(0.996264)"/>
      </g>
     </g>
    </g>
    <g id="ytick_5">
     <g id="line2d_9">
      <path d="M 80.391953 134.159671 
L 441.36 134.159671 
" clip-path="url(#p7eaeecc2e1)" style="fill: none; stroke: #ffffff; stroke-linecap: round"/>
     </g>
     <g id="text_10">
      <!-- $\mathdefault{0.50}$ -->
      <g style="fill: #262626" transform="translate(41.341604 140.386321) scale(0.18 -0.18)">
       <use xlink:href="#CMR17-30" transform="scale(0.996264)"/>
       <use xlink:href="#CMMI12-3a" transform="translate(45.690477 0) scale(0.996264)"/>
       <use xlink:href="#CMR17-35" transform="translate(72.787654 0) scale(0.996264)"/>
       <use xlink:href="#CMR17-30" transform="translate(118.478131 0) scale(0.996264)"/>
      </g>
     </g>
    </g>
    <g id="ytick_6">
     <g id="line2d_10">
      <path d="M 80.391953 97.995331 
L 441.36 97.995331 
" clip-path="url(#p7eaeecc2e1)" style="fill: none; stroke: #ffffff; stroke-linecap: round"/>
     </g>
     <g id="text_11">
      <!-- $\mathdefault{0.55}$ -->
      <g style="fill: #262626" transform="translate(41.341604 104.221981) scale(0.18 -0.18)">
       <use xlink:href="#CMR17-30" transform="scale(0.996264)"/>
       <use xlink:href="#CMMI12-3a" transform="translate(45.690477 0) scale(0.996264)"/>
       <use xlink:href="#CMR17-35" transform="translate(72.787654 0) scale(0.996264)"/>
       <use xlink:href="#CMR17-35" transform="translate(118.478131 0) scale(0.996264)"/>
      </g>
     </g>
    </g>
    <g id="ytick_7">
     <g id="line2d_11">
      <path d="M 80.391953 61.83099 
L 441.36 61.83099 
" clip-path="url(#p7eaeecc2e1)" style="fill: none; stroke: #ffffff; stroke-linecap: round"/>
     </g>
     <g id="text_12">
      <!-- $\mathdefault{0.60}$ -->
      <g style="fill: #262626" transform="translate(41.341604 68.05764) scale(0.18 -0.18)">
       <use xlink:href="#CMR17-30" transform="scale(0.996264)"/>
       <use xlink:href="#CMMI12-3a" transform="translate(45.690477 0) scale(0.996264)"/>
       <use xlink:href="#CMR17-36" transform="translate(72.787654 0) scale(0.996264)"/>
       <use xlink:href="#CMR17-30" transform="translate(118.478131 0) scale(0.996264)"/>
      </g>
     </g>
    </g>
    <g id="ytick_8">
     <g id="line2d_12">
      <path d="M 80.391953 25.66665 
L 441.36 25.66665 
" clip-path="url(#p7eaeecc2e1)" style="fill: none; stroke: #ffffff; stroke-linecap: round"/>
     </g>
     <g id="text_13">
      <!-- $\mathdefault{0.65}$ -->
      <g style="fill: #262626" transform="translate(41.341604 31.8933) scale(0.18 -0.18)">
       <use xlink:href="#CMR17-30" transform="scale(0.996264)"/>
       <use xlink:href="#CMMI12-3a" transform="translate(45.690477 0) scale(0.996264)"/>
       <use xlink:href="#CMR17-36" transform="translate(72.787654 0) scale(0.996264)"/>
       <use xlink:href="#CMR17-35" transform="translate(118.478131 0) scale(0.996264)"/>
      </g>
     </g>
    </g>
    <g id="text_14">
     <!-- $C_L$ $[-]$ -->
     <g style="fill: #262626" transform="translate(32.87342 177.214805) rotate(-90) scale(0.18 -0.18)">
      <defs>
       <path id="CMMI12-43" d="M 4781 4423 
C 4781 4480 4736 4480 4723 4480 
C 4710 4480 4685 4480 4634 4416 
L 4192 3882 
C 3968 4264 3616 4480 3136 4480 
C 1754 4480 320 3088 320 1595 
C 320 533 1069 -128 2003 -128 
C 2515 -128 2963 88 3334 400 
C 3891 863 4058 1481 4058 1531 
C 4058 1588 4006 1588 3987 1588 
C 3930 1588 3923 1550 3910 1524 
C 3616 534 2752 57 2112 57 
C 1434 57 845 489 845 1391 
C 845 1595 909 2700 1632 3532 
C 1984 3939 2586 4295 3194 4295 
C 3898 4295 4211 3717 4211 3068 
C 4211 2903 4192 2764 4192 2738 
C 4192 2681 4256 2681 4275 2681 
C 4346 2681 4352 2687 4378 2801 
L 4781 4423 
z
" transform="scale(0.015625)"/>
       <path id="CMMI12-4c" d="M 2349 3861 
C 2406 4103 2426 4167 2989 4167 
C 3162 4167 3206 4167 3206 4288 
C 3206 4352 3136 4352 3110 4352 
C 2982 4352 2835 4352 2707 4352 
L 1850 4352 
C 1728 4352 1587 4352 1466 4352 
C 1414 4352 1344 4352 1344 4231 
C 1344 4167 1402 4167 1498 4167 
C 1888 4167 1888 4116 1888 4046 
C 1888 4034 1888 3995 1862 3899 
L 998 472 
C 941 249 928 185 480 185 
C 358 185 294 185 294 70 
C 294 0 333 0 461 0 
L 3328 0 
C 3469 0 3475 6 3520 121 
L 4013 1478 
C 4026 1510 4038 1548 4038 1567 
C 4038 1605 4006 1631 3974 1631 
C 3968 1631 3936 1631 3923 1605 
C 3910 1599 3910 1586 3859 1465 
C 3654 905 3366 185 2285 185 
L 1670 185 
C 1581 185 1568 185 1530 192 
C 1459 198 1453 211 1453 262 
C 1453 307 1466 345 1478 401 
L 2349 3861 
z
" transform="scale(0.015625)"/>
      </defs>
      <use xlink:href="#CMMI12-43" transform="scale(0.996264)"/>
      <use xlink:href="#CMMI12-4c" transform="translate(69.792037 -14.943915) scale(0.697382)"/>
      <use xlink:href="#CMR17-5b" transform="translate(147.978695 0) scale(0.996264)"/>
      <use xlink:href="#CMSY10-0" transform="translate(172.849753 0) scale(0.996264)"/>
      <use xlink:href="#CMR17-5d" transform="translate(250.337221 0) scale(0.996264)"/>
     </g>
    </g>
   </g>
   <g id="line2d_13">
    <path d="M 96.812174 346.6 
L 96.846443 218.272646 
L 96.919323 342.489705 
L 96.923718 346.6 
M 97.068685 346.6 
L 97.11714 316.913344 
L 97.195226 325.062399 
L 97.294135 335.893185 
L 97.342646 346.6 
M 102.305938 346.6 
L 102.328063 344.711281 
L 102.415729 346.6 
M 102.511033 346.6 
L 102.749726 282.501093 
L 102.92672 278.455461 
L 103.082892 278.423058 
L 103.202623 278.422624 
L 103.228652 276.900177 
L 103.317149 277.557717 
L 103.337972 277.675613 
L 103.426469 277.568856 
L 103.488938 277.766096 
L 103.561818 278.141265 
L 103.624286 277.955163 
L 103.681549 277.688488 
L 103.733607 277.916612 
L 103.764841 278.03053 
L 103.806487 277.706931 
L 103.967864 274.372579 
L 104.212532 258.972935 
L 104.441584 252.754839 
L 104.634196 252.47348 
L 104.858041 252.447731 
L 104.878864 251.807477 
L 104.972567 252.022149 
L 105.154767 252.042907 
L 105.290116 251.933836 
L 105.638899 249.420559 
L 105.774247 242.230148 
L 106.060562 228.347959 
L 106.221939 227.766147 
L 106.539488 227.68919 
L 106.607162 227.683186 
L 106.633191 227.329065 
L 106.721688 227.476688 
L 106.909094 227.320241 
L 106.966357 227.42707 
L 107.008002 227.448118 
L 107.054854 227.373837 
L 107.361991 226.467269 
L 107.486928 223.573037 
L 107.97106 210.779467 
L 108.231346 210.695132 
L 108.351077 210.684572 
L 108.397929 210.373631 
L 108.470809 210.443139 
L 108.642597 210.229335 
L 108.66342 210.252481 
L 108.731095 210.309259 
L 108.783152 210.249443 
L 109.241255 209.138764 
L 109.397426 208.340255 
L 109.553598 205.910084 
L 109.860735 201.867634 
L 110.136638 200.513351 
L 110.443775 200.358351 
L 111.073667 200.179627 
L 111.089284 200.129937 
L 111.141342 200.257742 
L 111.172576 200.229389 
L 111.354776 200.178831 
L 111.380804 200.233656 
L 111.64109 200.529336 
L 111.802468 200.52883 
L 111.812879 200.51205 
L 111.96905 200.011101 
L 112.109605 198.544854 
L 112.494828 194.496618 
L 112.697851 194.346608 
L 113.119514 194.328164 
L 113.213217 194.407364 
L 113.16116 194.274569 
L 113.23404 194.376625 
L 113.27048 194.344077 
L 113.348565 194.385666 
L 113.551588 194.322378 
L 113.936811 193.701943 
L 114.160657 192.745757 
L 114.696846 189.887617 
L 114.993572 189.67649 
L 115.420441 189.639241 
L 116.133624 189.531254 
L 116.159653 189.353253 
L 116.24815 189.459287 
L 116.560493 189.527059 
L 116.773927 189.659059 
L 116.935304 189.768998 
L 116.961333 189.738476 
L 117.065447 189.336907 
L 117.502727 187.417882 
L 117.88795 186.774012 
L 118.169059 186.681215 
L 119.184174 186.749493 
L 119.376785 186.775459 
L 119.496517 186.735099 
L 119.944209 186.274149 
L 120.230523 185.523956 
L 120.594923 185.30169 
L 121.308106 185.094974 
L 122.942701 185.060907 
L 122.973936 185.033712 
L 123.057227 185.080943 
L 123.33313 185.045574 
L 123.567388 185.151752 
L 123.775616 184.95755 
L 123.936993 184.414506 
L 124.192074 183.739607 
L 124.650177 183.396842 
L 127.050012 183.267229 
L 127.185361 183.315761 
L 127.195772 183.309468 
L 127.383178 183.307516 
L 127.445647 183.329431 
L 127.482087 183.255873 
L 127.674698 183.07563 
L 127.929778 183.268675 
L 127.992247 183.258621 
L 128.018275 183.206834 
L 128.476378 182.281027 
L 128.913659 182.137672 
L 129.449847 182.124074 
L 130.886625 182.119155 
L 130.897037 182.104617 
L 130.949094 182.19727 
L 130.969917 182.199006 
L 131.375963 182.40536 
L 131.521723 182.468286 
L 131.641454 182.410857 
L 131.964209 181.962781 
L 132.427517 180.917776 
L 132.682598 180.765379 
L 134.129787 180.577036 
L 135.686296 180.686469 
L 135.899731 180.78932 
L 136.191251 180.657899 
L 136.352628 180.240563 
L 136.685794 179.410808 
L 137.284451 179.077156 
L 137.955989 178.934379 
L 139.455235 178.80303 
L 139.63223 178.787841 
L 140.100744 178.88845 
L 140.61611 178.326818 
L 140.985716 177.886915 
L 141.34491 177.799904 
L 143.614603 177.563099 
L 143.916534 177.765764 
L 144.197643 177.802941 
L 144.416283 177.72649 
L 144.957678 176.997055 
L 145.348107 176.315719 
L 145.84265 176.198113 
L 147.086816 176.120359 
L 147.51889 176.115875 
L 147.633416 176.533067 
L 147.789588 176.620801 
L 147.810411 176.602864 
L 147.987405 176.230661 
L 148.226868 175.304564 
L 148.450714 172.743044 
L 148.92964 163.24325 
L 149.137868 162.947643 
L 149.429389 162.906126 
L 149.866669 163.134613 
L 150.298743 163.630353 
L 150.803698 164.502493 
L 151.496058 166.134734 
L 151.683464 166.339352 
L 151.714698 165.968089 
L 151.79799 166.066239 
L 151.912515 166.306804 
L 151.964573 166.336097 
L 152.021836 166.278596 
L 152.094716 166.012354 
L 152.302944 165.378104 
L 152.74543 164.068376 
L 152.932836 162.600031 
L 153.609579 155.923443 
L 154.036448 155.467989 
L 154.95786 155.276752 
L 155.86886 155.096003 
L 155.889683 155.016731 
L 155.936535 155.175348 
L 155.972975 155.130576 
L 156.347786 155.045952 
L 156.785066 154.831425 
L 156.910004 154.545943 
L 157.029735 153.495659 
L 157.617981 146.791513 
L 157.86265 146.216283 
L 158.11773 146.120303 
L 159.544096 145.935576 
L 160.023022 145.868672 
L 160.049051 145.703184 
L 160.095902 145.87981 
L 160.137548 145.829614 
L 160.335365 145.83258 
L 161.069371 145.856014 
L 161.272394 145.614292 
L 161.772143 144.1249 
L 162.120926 141.169839 
L 162.402035 139.730209 
L 163.276595 137.902608 
L 163.557704 137.844456 
L 164.192801 137.776611 
L 164.21883 137.612353 
L 164.260476 137.809159 
L 164.302121 137.743123 
L 164.562407 137.771042 
L 164.775842 137.766051 
L 164.978865 137.713468 
L 165.442173 137.201237 
L 165.941922 135.644651 
L 166.415642 133.578799 
L 166.826894 132.392537 
L 167.482814 131.813112 
L 168.357375 131.643935 
L 168.383403 131.465572 
L 168.425049 131.68603 
L 168.471901 131.602129 
L 168.706158 131.607481 
L 169.55469 131.367567 
L 171.371485 127.549263 
L 171.928497 127.331626 
L 172.45948 127.230077 
L 172.506331 127.222338 
L 172.511537 127.378495 
L 172.547977 127.170044 
L 172.615651 127.316582 
L 172.839497 127.306456 
L 173.104989 127.355857 
L 173.688029 127.233187 
L 174.203395 126.414643 
L 174.578206 125.722675 
L 175.223715 124.681214 
L 175.593321 124.366512 
L 175.994161 124.227713 
L 176.691727 123.84589 
L 176.71255 123.716205 
L 176.759402 123.898618 
L 176.801047 123.846903 
L 176.952013 123.876485 
L 177.217505 123.773272 
L 178.144122 123.24426 
L 178.909363 122.048812 
L 179.429934 121.750384 
L 180.049415 121.38346 
L 180.861507 121.137905 
L 180.871918 121.094797 
L 180.918769 121.270121 
L 180.960415 121.213054 
L 181.382078 121.309251 
L 181.678804 121.234536 
L 182.19417 121.305345 
L 182.44925 121.127489 
L 183.172845 120.648818 
L 185.015669 119.763226 
L 185.041697 119.635132 
L 185.088549 119.825356 
L 185.119783 119.796135 
L 185.655972 119.731039 
L 186.030783 119.533871 
L 186.306686 119.212877 
L 186.650264 118.791345 
L 187.358241 118.616527 
L 189.232299 118.429702 
L 189.320796 118.476137 
L 189.352031 118.454077 
L 189.883014 118.434475 
L 190.1433 118.468398 
L 190.528523 118.387173 
L 190.918951 118.183278 
L 191.335409 117.946908 
L 191.829952 117.82988 
L 193.33961 117.565808 
L 193.365638 117.392798 
L 193.417696 117.600815 
L 193.44893 117.549751 
L 193.620718 117.574632 
L 195.260519 117.234977 
L 195.994525 116.973002 
L 197.493772 116.737645 
L 197.535417 116.493101 
L 197.613503 116.617073 
L 198.758761 116.8052 
L 201.715608 116.873116 
L 201.746842 116.974087 
L 201.840545 116.939297 
L 201.94466 117.034771 
L 202.38194 117.171906 
L 202.616197 117.168796 
L 202.787986 117.13227 
L 204.287232 116.768674 
L 206.08841 116.702855 
L 206.312256 116.675008 
L 206.520485 116.626837 
L 206.874473 116.633636 
L 207.473131 116.539681 
L 208.149874 116.359655 
L 210.008315 116.030487 
L 210.029138 115.967633 
L 210.075989 116.127335 
L 210.107224 116.087265 
L 210.627795 116.079598 
L 210.836024 116.015153 
L 211.512767 116.033163 
L 214.152066 115.871364 
L 214.240563 116.325516 
L 214.266591 116.308374 
L 214.5477 116.383668 
L 214.563317 116.349891 
L 214.922512 115.115457 
L 215.411849 111.845043 
L 216.171884 105.643004 
L 216.619575 105.233117 
L 217.207821 104.948359 
L 217.535781 104.704611 
L 217.832507 104.552866 
L 218.274993 104.322788 
L 218.316639 104.306153 
L 218.347873 103.981325 
L 218.431165 104.117809 
L 218.655011 104.188691 
L 218.660216 104.182254 
L 218.785153 103.814535 
L 219.118319 102.902108 
L 219.133936 102.915851 
L 219.191199 102.993893 
L 219.232845 102.893646 
L 219.623274 100.800671 
L 219.92 99.883688 
L 220.419749 99.257611 
L 220.680034 98.855319 
L 221.080875 98.251808 
L 222.257367 97.739938 
L 223.319333 97.560274 
L 223.970047 96.66159 
L 224.42815 96.222772 
L 225.500528 95.6832 
L 227.046626 95.322714 
L 227.208003 95.294578 
L 230.284582 93.837589 
L 230.831182 93.547478 
L 230.940502 93.540752 
L 230.950914 93.54878 
L 231.148731 93.582413 
L 231.887943 93.222289 
L 232.92388 92.804518 
L 233.803646 92.3691 
L 234.152429 92.214895 
L 234.974933 91.951112 
L 235.016578 91.871623 
L 235.084253 91.938455 
L 235.230013 91.946266 
L 235.50071 91.949159 
L 236.380476 91.665124 
L 238.827163 90.965345 
L 240.977124 90.584679 
L 247.468653 89.271985 
L 247.505093 89.171738 
L 247.577973 89.242548 
L 247.70291 89.282618 
L 247.978813 89.286379 
L 248.249511 89.310971 
L 248.577471 89.29108 
L 249.337505 89.222585 
L 250.071511 89.06433 
L 251.654049 88.855879 
L 251.685284 88.804959 
L 251.768575 88.86275 
L 251.945569 88.876492 
L 252.356821 88.862967 
L 252.648341 88.836567 
L 253.522902 88.714114 
L 255.7978 88.413227 
L 255.896709 88.446064 
L 255.844651 88.378292 
L 255.917531 88.434926 
L 257.739532 88.273922 
L 258.686973 88.125721 
L 259.962373 87.977447 
L 260.056076 88.357028 
L 260.082105 88.342779 
L 260.451711 88.323829 
L 261.185717 86.869444 
L 261.914517 83.825274 
L 262.289329 82.266953 
L 262.679757 81.542798 
L 262.986895 81.233738 
L 263.507466 81.064633 
L 263.955158 80.925907 
L 264.126947 80.881858 
L 264.132152 80.560647 
L 264.236267 80.683389 
L 264.371615 80.78718 
L 264.43929 80.850685 
L 264.506964 80.796511 
L 264.918216 80.173327 
L 264.970273 80.131738 
L 265.017124 80.206236 
L 265.090004 80.295779 
L 265.147267 80.228369 
L 265.527285 79.677152 
L 266.297731 78.835608 
L 266.729805 78.292781 
L 268.484132 77.39605 
L 268.817298 77.279239 
L 269.119229 76.720789 
L 269.400338 76.23503 
L 269.764738 75.898485 
L 270.123933 75.555502 
L 271.508653 74.507749 
L 272.461299 74.291631 
L 272.471711 74.349421 
L 272.560208 74.400847 
L 272.591442 74.393253 
L 273.002694 74.419942 
L 273.570117 74.173084 
L 274.220832 73.999061 
L 274.902781 73.798711 
L 276.360381 73.38217 
L 276.792456 73.304127 
L 277.37029 73.226736 
L 278.088679 72.990582 
L 278.807068 72.76998 
L 279.301611 72.658666 
L 280.785241 72.297095 
L 280.790446 72.194461 
L 280.821681 72.316551 
L 280.894561 72.301218 
L 281.305812 72.316985 
L 281.711858 72.234965 
L 283.393305 71.865944 
L 284.236631 71.712824 
L 284.949814 71.578437 
L 284.95502 71.443327 
L 284.986254 71.628778 
L 285.059134 71.615397 
L 285.470386 71.648307 
L 286.069043 71.496634 
L 286.750992 71.341633 
L 289.067536 70.971817 
L 289.114387 70.967694 
L 289.119593 70.784124 
L 289.223707 70.935074 
L 289.53605 70.983028 
L 289.900451 70.872509 
L 291.915063 70.56598 
L 293.278961 70.398612 
L 293.284167 70.215403 
L 293.388281 70.343425 
L 293.674595 70.374743 
L 294.018173 70.331274 
L 294.320104 70.262851 
L 295.293573 70.213089 
L 297.105163 70.073205 
L 297.443534 70.043261 
L 297.44874 69.926812 
L 297.479974 70.113782 
L 297.552854 70.084344 
L 299.98913 69.857666 
L 301.608108 69.729499 
L 301.613313 69.566904 
L 301.717428 69.681184 
L 302.63884 69.672649 
L 303.060503 69.652975 
L 305.304167 69.510777 
L 305.793504 69.581732 
L 305.814327 69.77145 
L 305.913235 69.727763 
L 306.282841 69.734128 
L 306.813825 69.241787 
L 307.00123 68.65578 
L 307.386453 67.745596 
L 307.719619 67.343304 
L 307.990317 67.004227 
L 308.734734 65.869462 
L 309.937255 65.256766 
L 309.94246 65.068422 
L 310.046575 65.186245 
L 310.254803 65.279983 
L 310.374535 65.252137 
L 310.676466 64.918268 
L 310.822226 64.816574 
L 310.858666 64.868072 
L 310.931546 64.921016 
L 310.978398 64.867638 
L 311.358415 64.457823 
L 311.712404 64.123159 
L 312.076804 63.886499 
L 312.394353 63.598414 
L 312.717107 63.4194 
L 313.867571 63.058842 
L 314.101828 62.999026 
L 314.107034 62.861312 
L 314.138268 63.082638 
L 314.211148 62.995265 
L 314.846246 62.738571 
L 315.226263 62.225833 
L 315.783275 61.722136 
L 316.11644 61.506886 
L 317.194024 61.279123 
L 318.084201 61.134971 
L 318.266401 61.123327 
L 318.271607 61.012447 
L 318.302841 61.18524 
L 318.375722 61.142421 
L 319.20343 60.961961 
L 319.651122 60.905907 
L 325.861542 60.499636 
L 330.775739 60.285688 
L 330.801768 60.496382 
L 330.89547 60.401559 
L 332.498831 59.932073 
L 333.159957 59.479223 
L 333.680529 59.108322 
L 334.065752 58.851989 
L 334.690438 58.559636 
L 335.788844 58.173184 
L 336.137627 57.706447 
L 336.569702 57.069015 
L 336.970542 56.887904 
L 337.782634 56.755253 
L 342.613539 56.174092 
L 343.550568 56.079558 
L 343.899351 56.040645 
L 345.497506 55.385058 
L 348.313799 55.118455 
L 348.771902 55.058422 
L 351.963006 54.903711 
L 352.171235 54.897563 
L 352.514812 54.961936 
L 353.04059 55.327123 
L 355.091642 55.837908 
L 355.752768 55.793498 
L 355.757974 55.764061 
L 355.794414 56.03674 
L 355.83606 55.930995 
L 356.153608 55.97772 
L 356.71062 55.651879 
L 357.205163 55.043305 
L 357.798615 54.622642 
L 358.298364 54.416433 
L 358.85017 54.083793 
L 359.381153 53.790934 
L 360.23489 53.645481 
L 360.63573 53.615682 
L 361.046982 53.473556 
L 361.411382 53.277256 
L 362.941863 53.113576 
L 367.085614 52.707089 
L 369.214752 52.50804 
L 369.740529 52.476939 
L 373.171097 52.461822 
L 374.852543 52.224801 
L 377.491841 52.077468 
L 378.043647 52.009551 
L 381.130638 52.034288 
L 381.567918 51.971289 
L 386.044834 51.175384 
L 386.59664 50.886793 
L 390.521751 50.612089 
L 393.17146 50.539109 
L 394.415627 50.410798 
L 395.545267 50.36552 
L 401.989945 50.20741 
L 402.338728 50.189255 
L 404.556363 50.115625 
L 406.852084 50.03751 
L 407.893228 49.877229 
L 412.95839 49.425681 
L 422.870075 49.123637 
L 423.224064 49.099407 
L 424.952362 49.031852 
L 424.952362 49.031852 
" clip-path="url(#p7eaeecc2e1)" style="fill: none; stroke: #1a1a1a; stroke-width: 1.5; stroke-linecap: round"/>
   </g>
   <g id="patch_3">
    <path d="M 80.391953 278.817032 
L 80.391953 25.66665 
" style="fill: none; stroke: #ffffff; stroke-width: 1.25; stroke-linejoin: miter; stroke-linecap: square"/>
   </g>
   <g id="patch_4">
    <path d="M 441.36 278.817032 
L 441.36 25.66665 
" style="fill: none; stroke: #ffffff; stroke-width: 1.25; stroke-linejoin: miter; stroke-linecap: square"/>
   </g>
   <g id="patch_5">
    <path d="M 80.391953 278.817032 
L 441.36 278.817032 
" style="fill: none; stroke: #ffffff; stroke-width: 1.25; stroke-linejoin: miter; stroke-linecap: square"/>
   </g>
   <g id="patch_6">
    <path d="M 80.391953 25.66665 
L 441.36 25.66665 
" style="fill: none; stroke: #ffffff; stroke-width: 1.25; stroke-linejoin: miter; stroke-linecap: square"/>
   </g>
  </g>
 </g>
 <defs>
  <clipPath id="p7eaeecc2e1">
   <rect x="80.391953" y="25.66665" width="360.968047" height="253.150382"/>
  </clipPath>
 </defs>
</svg>
