<?xml version="1.0" encoding="utf-8" standalone="no"?>
<!DOCTYPE svg PUBLIC "-//W3C//DTD SVG 1.1//EN"
  "http://www.w3.org/Graphics/SVG/1.1/DTD/svg11.dtd">
<svg xmlns:xlink="http://www.w3.org/1999/xlink" width="460.8pt" height="345.6pt" viewBox="0 0 460.8 345.6" xmlns="http://www.w3.org/2000/svg" version="1.1">
 <metadata>
  <rdf:RDF xmlns:dc="http://purl.org/dc/elements/1.1/" xmlns:cc="http://creativecommons.org/ns#" xmlns:rdf="http://www.w3.org/1999/02/22-rdf-syntax-ns#">
   <cc:Work>
    <dc:type rdf:resource="http://purl.org/dc/dcmitype/StillImage"/>
    <dc:date>2023-04-27T15:12:43.438128</dc:date>
    <dc:format>image/svg+xml</dc:format>
    <dc:creator>
     <cc:Agent>
      <dc:title>Matplotlib v3.7.1, https://matplotlib.org/</dc:title>
     </cc:Agent>
    </dc:creator>
   </cc:Work>
  </rdf:RDF>
 </metadata>
 <defs>
  <style type="text/css">*{stroke-linejoin: round; stroke-linecap: butt}</style>
 </defs>
 <g id="figure_1">
  <g id="patch_1">
   <path d="M 0 345.6 
L 460.8 345.6 
L 460.8 0 
L 0 0 
z
" style="fill: #ffffff"/>
  </g>
  <g id="axes_1">
   <g id="patch_2">
    <path d="M 94.339695 278.817032 
L 441.36 278.817032 
L 441.36 25.66665 
L 94.339695 25.66665 
z
" style="fill: #eaeaf2"/>
   </g>
   <g id="matplotlib.axis_1">
    <g id="xtick_1">
     <g id="line2d_1">
      <path d="M 110.108341 278.817032 
L 110.108341 25.66665 
" clip-path="url(#pec55d56104)" style="fill: none; stroke: #ffffff; stroke-linecap: round"/>
     </g>
     <g id="text_1">
      <!-- $\mathdefault{0}$ -->
      <g style="fill: #262626" transform="translate(105.996198 300.770332) scale(0.18 -0.18)">
       <defs>
        <path id="CMR17-30" d="M 2688 2025 
C 2688 2416 2682 3080 2413 3591 
C 2176 4039 1798 4198 1466 4198 
C 1158 4198 768 4058 525 3597 
C 269 3118 243 2524 243 2025 
C 243 1661 250 1106 448 619 
C 723 -39 1216 -128 1466 -128 
C 1760 -128 2208 -7 2470 600 
C 2662 1042 2688 1559 2688 2025 
z
M 1466 -26 
C 1056 -26 813 325 723 812 
C 653 1188 653 1738 653 2096 
C 653 2588 653 2997 736 3387 
C 858 3929 1216 4096 1466 4096 
C 1728 4096 2067 3923 2189 3400 
C 2272 3036 2278 2607 2278 2096 
C 2278 1680 2278 1169 2202 792 
C 2067 95 1690 -26 1466 -26 
z
" transform="scale(0.015625)"/>
       </defs>
       <use xlink:href="#CMR17-30" transform="scale(0.996264)"/>
      </g>
     </g>
    </g>
    <g id="xtick_2">
     <g id="line2d_2">
      <path d="M 210.199717 278.817032 
L 210.199717 25.66665 
" clip-path="url(#pec55d56104)" style="fill: none; stroke: #ffffff; stroke-linecap: round"/>
     </g>
     <g id="text_2">
      <!-- $\mathdefault{20000}$ -->
      <g style="fill: #262626" transform="translate(189.639002 300.770332) scale(0.18 -0.18)">
       <defs>
        <path id="CMR17-32" d="M 2669 989 
L 2554 989 
C 2490 536 2438 459 2413 420 
C 2381 369 1920 369 1830 369 
L 602 369 
C 832 619 1280 1072 1824 1597 
C 2214 1967 2669 2402 2669 3035 
C 2669 3790 2067 4224 1395 4224 
C 691 4224 262 3604 262 3030 
C 262 2780 448 2748 525 2748 
C 589 2748 781 2787 781 3010 
C 781 3207 614 3264 525 3264 
C 486 3264 448 3258 422 3245 
C 544 3790 915 4058 1306 4058 
C 1862 4058 2227 3617 2227 3035 
C 2227 2479 1901 2000 1536 1584 
L 262 146 
L 262 0 
L 2515 0 
L 2669 989 
z
" transform="scale(0.015625)"/>
       </defs>
       <use xlink:href="#CMR17-32" transform="scale(0.996264)"/>
       <use xlink:href="#CMR17-30" transform="translate(45.690477 0) scale(0.996264)"/>
       <use xlink:href="#CMR17-30" transform="translate(91.380954 0) scale(0.996264)"/>
       <use xlink:href="#CMR17-30" transform="translate(137.071431 0) scale(0.996264)"/>
       <use xlink:href="#CMR17-30" transform="translate(182.761908 0) scale(0.996264)"/>
      </g>
     </g>
    </g>
    <g id="xtick_3">
     <g id="line2d_3">
      <path d="M 310.291093 278.817032 
L 310.291093 25.66665 
" clip-path="url(#pec55d56104)" style="fill: none; stroke: #ffffff; stroke-linecap: round"/>
     </g>
     <g id="text_3">
      <!-- $\mathdefault{40000}$ -->
      <g style="fill: #262626" transform="translate(289.730379 300.770332) scale(0.18 -0.18)">
       <defs>
        <path id="CMR17-34" d="M 2150 4122 
C 2150 4256 2144 4256 2029 4256 
L 128 1254 
L 128 1088 
L 1779 1088 
L 1779 457 
C 1779 224 1766 160 1318 160 
L 1197 160 
L 1197 0 
C 1402 0 1747 0 1965 0 
C 2182 0 2528 0 2733 0 
L 2733 160 
L 2611 160 
C 2163 160 2150 224 2150 457 
L 2150 1088 
L 2803 1088 
L 2803 1254 
L 2150 1254 
L 2150 4122 
z
M 1798 3703 
L 1798 1254 
L 256 1254 
L 1798 3703 
z
" transform="scale(0.015625)"/>
       </defs>
       <use xlink:href="#CMR17-34" transform="scale(0.996264)"/>
       <use xlink:href="#CMR17-30" transform="translate(45.690477 0) scale(0.996264)"/>
       <use xlink:href="#CMR17-30" transform="translate(91.380954 0) scale(0.996264)"/>
       <use xlink:href="#CMR17-30" transform="translate(137.071431 0) scale(0.996264)"/>
       <use xlink:href="#CMR17-30" transform="translate(182.761908 0) scale(0.996264)"/>
      </g>
     </g>
    </g>
    <g id="xtick_4">
     <g id="line2d_4">
      <path d="M 410.38247 278.817032 
L 410.38247 25.66665 
" clip-path="url(#pec55d56104)" style="fill: none; stroke: #ffffff; stroke-linecap: round"/>
     </g>
     <g id="text_4">
      <!-- $\mathdefault{60000}$ -->
      <g style="fill: #262626" transform="translate(389.821755 300.770332) scale(0.18 -0.18)">
       <defs>
        <path id="CMR17-36" d="M 678 2176 
C 678 3690 1395 4032 1811 4032 
C 1946 4032 2272 4009 2400 3776 
C 2298 3776 2106 3776 2106 3553 
C 2106 3381 2246 3323 2336 3323 
C 2394 3323 2566 3348 2566 3560 
C 2566 3954 2246 4179 1805 4179 
C 1043 4179 243 3390 243 1984 
C 243 253 966 -128 1478 -128 
C 2099 -128 2688 427 2688 1283 
C 2688 2081 2170 2662 1517 2662 
C 1126 2662 838 2407 678 1960 
L 678 2176 
z
M 1478 25 
C 691 25 691 1200 691 1436 
C 691 1896 909 2560 1504 2560 
C 1613 2560 1926 2560 2138 2120 
C 2253 1870 2253 1609 2253 1289 
C 2253 944 2253 690 2118 434 
C 1978 171 1773 25 1478 25 
z
" transform="scale(0.015625)"/>
       </defs>
       <use xlink:href="#CMR17-36" transform="scale(0.996264)"/>
       <use xlink:href="#CMR17-30" transform="translate(45.690477 0) scale(0.996264)"/>
       <use xlink:href="#CMR17-30" transform="translate(91.380954 0) scale(0.996264)"/>
       <use xlink:href="#CMR17-30" transform="translate(137.071431 0) scale(0.996264)"/>
       <use xlink:href="#CMR17-30" transform="translate(182.761908 0) scale(0.996264)"/>
      </g>
     </g>
    </g>
    <g id="text_5">
     <!-- Iteration $[-]$ -->
     <g style="fill: #262626" transform="translate(223.965373 321.691816) scale(0.18 -0.18)">
      <defs>
       <path id="CMSS17-49" d="M 1094 4416 
L 557 4416 
L 557 0 
L 1094 0 
L 1094 4416 
z
" transform="scale(0.015625)"/>
       <path id="CMSS17-74" d="M 1069 2368 
L 1901 2368 
L 1901 2737 
L 1069 2737 
L 1069 3520 
L 614 3520 
L 614 2737 
L 109 2737 
L 109 2368 
L 602 2368 
L 602 749 
C 602 384 685 -64 1107 -64 
C 1427 -64 1722 25 2003 172 
L 1901 548 
C 1747 414 1562 337 1363 337 
C 1082 337 1069 696 1069 856 
L 1069 2368 
z
" transform="scale(0.015625)"/>
       <path id="CMSS17-65" d="M 2502 1377 
C 2502 1590 2490 2003 2285 2345 
C 2061 2713 1696 2816 1421 2816 
C 755 2816 192 2188 192 1375 
C 192 582 774 -64 1510 -64 
C 1798 -64 2150 19 2470 248 
C 2470 274 2458 414 2451 420 
C 2451 433 2432 630 2432 656 
C 2125 407 1773 325 1517 325 
C 1107 325 666 667 646 1377 
L 2502 1377 
z
M 698 1728 
C 781 2084 1062 2421 1421 2421 
C 1517 2421 1965 2421 2080 1728 
L 698 1728 
z
" transform="scale(0.015625)"/>
       <path id="CMSS17-72" d="M 954 1363 
C 954 1965 1395 2368 1958 2368 
L 1958 2789 
C 1549 2789 1165 2585 934 2253 
L 934 2758 
L 480 2758 
L 480 0 
L 954 0 
L 954 1363 
z
" transform="scale(0.015625)"/>
       <path id="CMSS17-61" d="M 2406 1791 
C 2406 2392 1978 2808 1402 2808 
C 1120 2808 813 2757 461 2553 
L 499 2135 
C 659 2248 934 2432 1395 2432 
C 1722 2432 1920 2180 1920 1782 
L 1920 1536 
C 896 1536 256 1238 256 726 
C 256 461 416 -64 947 -64 
C 1043 -64 1562 -64 1933 217 
L 1933 -19 
L 2406 -19 
L 2406 1791 
z
M 1920 816 
C 1920 701 1920 548 1728 434 
C 1562 325 1350 325 1261 325 
C 941 325 723 511 723 744 
C 723 1211 1722 1211 1920 1211 
L 1920 816 
z
" transform="scale(0.015625)"/>
       <path id="CMSS17-69" d="M 979 4183 
L 442 4183 
L 442 3648 
L 979 3648 
L 979 4183 
z
M 947 2739 
L 474 2739 
L 474 0 
L 947 0 
L 947 2739 
z
" transform="scale(0.015625)"/>
       <path id="CMSS17-6f" d="M 2829 1356 
C 2829 2176 2221 2816 1504 2816 
C 768 2816 173 2157 173 1356 
C 173 544 787 -64 1498 -64 
C 2227 -64 2829 563 2829 1356 
z
M 1504 337 
C 1050 337 659 709 659 1408 
C 659 2151 1114 2427 1498 2427 
C 1914 2427 2342 2126 2342 1408 
C 2342 683 1926 337 1504 337 
z
" transform="scale(0.015625)"/>
       <path id="CMSS17-6e" d="M 2618 1877 
C 2618 2283 2522 2816 1798 2816 
C 1389 2816 1120 2606 941 2389 
L 941 2758 
L 474 2758 
L 474 0 
L 960 0 
L 960 1559 
C 960 1964 1114 2428 1549 2428 
C 2112 2428 2131 2048 2131 1829 
L 2131 0 
L 2618 0 
L 2618 1877 
z
" transform="scale(0.015625)"/>
       <path id="CMR17-5b" d="M 1504 -1600 
L 1504 -1377 
L 902 -1377 
L 902 4544 
L 1504 4544 
L 1504 4767 
L 678 4767 
L 678 -1600 
L 1504 -1600 
z
" transform="scale(0.015625)"/>
       <path id="CMSY10-0" d="M 4218 1472 
C 4326 1472 4442 1472 4442 1600 
C 4442 1728 4326 1728 4218 1728 
L 755 1728 
C 646 1728 531 1728 531 1600 
C 531 1472 646 1472 755 1472 
L 4218 1472 
z
" transform="scale(0.015625)"/>
       <path id="CMR17-5d" d="M 915 4767 
L 90 4767 
L 90 4544 
L 691 4544 
L 691 -1377 
L 90 -1377 
L 90 -1600 
L 915 -1600 
L 915 4767 
z
" transform="scale(0.015625)"/>
      </defs>
      <use xlink:href="#CMSS17-49" transform="scale(0.996264)"/>
      <use xlink:href="#CMSS17-74" transform="translate(25.783926 0) scale(0.996264)"/>
      <use xlink:href="#CMSS17-65" transform="translate(59.615492 0) scale(0.996264)"/>
      <use xlink:href="#CMSS17-72" transform="translate(101.254314 0) scale(0.996264)"/>
      <use xlink:href="#CMSS17-61" transform="translate(133.164087 0) scale(0.996264)"/>
      <use xlink:href="#CMSS17-74" transform="translate(178.086007 0) scale(0.996264)"/>
      <use xlink:href="#CMSS17-69" transform="translate(211.917574 0) scale(0.996264)"/>
      <use xlink:href="#CMSS17-6f" transform="translate(234.098297 0) scale(0.996264)"/>
      <use xlink:href="#CMSS17-6e" transform="translate(280.941921 0) scale(0.996264)"/>
      <use xlink:href="#CMR17-5b" transform="translate(360.375977 0) scale(0.996264)"/>
      <use xlink:href="#CMSY10-0" transform="translate(385.247035 0) scale(0.996264)"/>
      <use xlink:href="#CMR17-5d" transform="translate(462.734503 0) scale(0.996264)"/>
     </g>
    </g>
   </g>
   <g id="matplotlib.axis_2">
    <g id="ytick_1">
     <g id="line2d_5">
      <path d="M 94.339695 278.817032 
L 441.36 278.817032 
" clip-path="url(#pec55d56104)" style="fill: none; stroke: #ffffff; stroke-linecap: round"/>
     </g>
     <g id="text_6">
      <!-- $\mathdefault{−0.15}$ -->
      <g style="fill: #262626" transform="translate(41.341604 285.043682) scale(0.18 -0.18)">
       <defs>
        <path id="CMMI12-3a" d="M 1178 307 
C 1178 492 1024 619 870 619 
C 685 619 557 466 557 313 
C 557 128 710 0 864 0 
C 1050 0 1178 153 1178 307 
z
" transform="scale(0.015625)"/>
        <path id="CMR17-31" d="M 1702 4058 
C 1702 4192 1696 4192 1606 4192 
C 1357 3916 979 3827 621 3827 
C 602 3827 570 3827 563 3808 
C 557 3795 557 3782 557 3648 
C 755 3648 1088 3686 1344 3839 
L 1344 461 
C 1344 236 1331 160 781 160 
L 589 160 
L 589 0 
C 896 0 1216 0 1523 0 
C 1830 0 2150 0 2458 0 
L 2458 160 
L 2266 160 
C 1715 160 1702 230 1702 458 
L 1702 4058 
z
" transform="scale(0.015625)"/>
        <path id="CMR17-35" d="M 730 3692 
C 794 3666 1056 3584 1325 3584 
C 1920 3584 2246 3911 2432 4100 
C 2432 4157 2432 4192 2394 4192 
C 2387 4192 2374 4192 2323 4163 
C 2099 4058 1837 3973 1517 3973 
C 1325 3973 1037 3999 723 4139 
C 653 4171 640 4171 634 4171 
C 602 4171 595 4164 595 4037 
L 595 2203 
C 595 2089 595 2057 659 2057 
C 691 2057 704 2070 736 2114 
C 941 2401 1222 2522 1542 2522 
C 1766 2522 2246 2382 2246 1289 
C 2246 1085 2246 715 2054 421 
C 1894 159 1645 25 1370 25 
C 947 25 518 320 403 814 
C 429 807 480 795 506 795 
C 589 795 749 840 749 1038 
C 749 1210 627 1280 506 1280 
C 358 1280 262 1190 262 1011 
C 262 454 704 -128 1382 -128 
C 2042 -128 2669 440 2669 1264 
C 2669 2030 2170 2624 1549 2624 
C 1222 2624 947 2503 730 2274 
L 730 3692 
z
" transform="scale(0.015625)"/>
       </defs>
       <use xlink:href="#CMSY10-0" transform="scale(0.996264)"/>
       <use xlink:href="#CMR17-30" transform="translate(77.487468 0) scale(0.996264)"/>
       <use xlink:href="#CMMI12-3a" transform="translate(123.177945 0) scale(0.996264)"/>
       <use xlink:href="#CMR17-31" transform="translate(150.275122 0) scale(0.996264)"/>
       <use xlink:href="#CMR17-35" transform="translate(195.965599 0) scale(0.996264)"/>
      </g>
     </g>
    </g>
    <g id="ytick_2">
     <g id="line2d_6">
      <path d="M 94.339695 215.529437 
L 441.36 215.529437 
" clip-path="url(#pec55d56104)" style="fill: none; stroke: #ffffff; stroke-linecap: round"/>
     </g>
     <g id="text_7">
      <!-- $\mathdefault{−0.10}$ -->
      <g style="fill: #262626" transform="translate(41.341604 221.756087) scale(0.18 -0.18)">
       <use xlink:href="#CMSY10-0" transform="scale(0.996264)"/>
       <use xlink:href="#CMR17-30" transform="translate(77.487468 0) scale(0.996264)"/>
       <use xlink:href="#CMMI12-3a" transform="translate(123.177945 0) scale(0.996264)"/>
       <use xlink:href="#CMR17-31" transform="translate(150.275122 0) scale(0.996264)"/>
       <use xlink:href="#CMR17-30" transform="translate(195.965599 0) scale(0.996264)"/>
      </g>
     </g>
    </g>
    <g id="ytick_3">
     <g id="line2d_7">
      <path d="M 94.339695 152.241841 
L 441.36 152.241841 
" clip-path="url(#pec55d56104)" style="fill: none; stroke: #ffffff; stroke-linecap: round"/>
     </g>
     <g id="text_8">
      <!-- $\mathdefault{−0.05}$ -->
      <g style="fill: #262626" transform="translate(41.341604 158.468491) scale(0.18 -0.18)">
       <use xlink:href="#CMSY10-0" transform="scale(0.996264)"/>
       <use xlink:href="#CMR17-30" transform="translate(77.487468 0) scale(0.996264)"/>
       <use xlink:href="#CMMI12-3a" transform="translate(123.177945 0) scale(0.996264)"/>
       <use xlink:href="#CMR17-30" transform="translate(150.275122 0) scale(0.996264)"/>
       <use xlink:href="#CMR17-35" transform="translate(195.965599 0) scale(0.996264)"/>
      </g>
     </g>
    </g>
    <g id="ytick_4">
     <g id="line2d_8">
      <path d="M 94.339695 88.954246 
L 441.36 88.954246 
" clip-path="url(#pec55d56104)" style="fill: none; stroke: #ffffff; stroke-linecap: round"/>
     </g>
     <g id="text_9">
      <!-- $\mathdefault{0.00}$ -->
      <g style="fill: #262626" transform="translate(55.289345 95.180896) scale(0.18 -0.18)">
       <use xlink:href="#CMR17-30" transform="scale(0.996264)"/>
       <use xlink:href="#CMMI12-3a" transform="translate(45.690477 0) scale(0.996264)"/>
       <use xlink:href="#CMR17-30" transform="translate(72.787654 0) scale(0.996264)"/>
       <use xlink:href="#CMR17-30" transform="translate(118.478131 0) scale(0.996264)"/>
      </g>
     </g>
    </g>
    <g id="ytick_5">
     <g id="line2d_9">
      <path d="M 94.339695 25.66665 
L 441.36 25.66665 
" clip-path="url(#pec55d56104)" style="fill: none; stroke: #ffffff; stroke-linecap: round"/>
     </g>
     <g id="text_10">
      <!-- $\mathdefault{0.05}$ -->
      <g style="fill: #262626" transform="translate(55.289345 31.8933) scale(0.18 -0.18)">
       <use xlink:href="#CMR17-30" transform="scale(0.996264)"/>
       <use xlink:href="#CMMI12-3a" transform="translate(45.690477 0) scale(0.996264)"/>
       <use xlink:href="#CMR17-30" transform="translate(72.787654 0) scale(0.996264)"/>
       <use xlink:href="#CMR17-35" transform="translate(118.478131 0) scale(0.996264)"/>
      </g>
     </g>
    </g>
    <g id="text_11">
     <!-- $C_M$ $[-]$ -->
     <g style="fill: #262626" transform="translate(32.87342 179.634571) rotate(-90) scale(0.18 -0.18)">
      <defs>
       <path id="CMMI12-43" d="M 4781 4423 
C 4781 4480 4736 4480 4723 4480 
C 4710 4480 4685 4480 4634 4416 
L 4192 3882 
C 3968 4264 3616 4480 3136 4480 
C 1754 4480 320 3088 320 1595 
C 320 533 1069 -128 2003 -128 
C 2515 -128 2963 88 3334 400 
C 3891 863 4058 1481 4058 1531 
C 4058 1588 4006 1588 3987 1588 
C 3930 1588 3923 1550 3910 1524 
C 3616 534 2752 57 2112 57 
C 1434 57 845 489 845 1391 
C 845 1595 909 2700 1632 3532 
C 1984 3939 2586 4295 3194 4295 
C 3898 4295 4211 3717 4211 3068 
C 4211 2903 4192 2764 4192 2738 
C 4192 2681 4256 2681 4275 2681 
C 4346 2681 4352 2687 4378 2801 
L 4781 4423 
z
" transform="scale(0.015625)"/>
       <path id="CMMI12-4d" d="M 5811 3886 
C 5869 4103 5882 4167 6336 4167 
C 6458 4167 6515 4167 6515 4288 
C 6515 4352 6470 4352 6349 4352 
L 5581 4352 
C 5421 4352 5414 4346 5344 4243 
L 3008 562 
L 2528 4211 
C 2509 4352 2502 4352 2336 4352 
L 1542 4352 
C 1421 4352 1363 4352 1363 4231 
C 1363 4167 1421 4167 1517 4167 
C 1907 4167 1907 4116 1907 4046 
C 1907 4034 1907 3995 1882 3899 
L 1062 634 
C 986 327 838 186 410 186 
C 390 186 314 186 314 73 
C 314 0 371 0 397 0 
C 525 0 851 0 979 0 
L 1286 0 
C 1376 0 1485 0 1574 0 
C 1619 0 1690 0 1690 122 
C 1690 180 1626 186 1600 186 
C 1389 186 1184 224 1184 454 
C 1184 518 1184 524 1210 613 
L 2093 4129 
L 2099 4129 
L 2630 172 
C 2650 19 2656 0 2714 0 
C 2784 0 2816 51 2848 109 
L 5421 4161 
L 5427 4161 
L 4499 473 
C 4442 250 4429 186 3981 186 
C 3859 186 3795 186 3795 70 
C 3795 0 3853 0 3891 0 
C 4000 0 4128 0 4237 0 
L 4992 0 
C 5101 0 5235 0 5344 0 
C 5395 0 5466 0 5466 122 
C 5466 186 5408 186 5312 186 
C 4922 186 4922 234 4922 294 
C 4922 301 4922 345 4934 396 
L 5811 3886 
z
" transform="scale(0.015625)"/>
      </defs>
      <use xlink:href="#CMMI12-43" transform="scale(0.996264)"/>
      <use xlink:href="#CMMI12-4d" transform="translate(69.792037 -14.943915) scale(0.697382)"/>
      <use xlink:href="#CMR17-5b" transform="translate(174.865023 0) scale(0.996264)"/>
      <use xlink:href="#CMSY10-0" transform="translate(199.736082 0) scale(0.996264)"/>
      <use xlink:href="#CMR17-5d" transform="translate(277.22355 0) scale(0.996264)"/>
     </g>
    </g>
   </g>
   <g id="line2d_10">
    <path d="M 110.113345 46.358694 
L 110.118979 -1 
M 112.478031 -1 
L 112.55057 35.196243 
L 112.600616 23.950847 
L 112.657266 -1 
M 112.66779 -1 
L 112.715721 14.212874 
L 112.775776 32.601059 
L 112.815812 14.552791 
L 112.839429 -1 
M 115.379943 -1 
L 115.403174 5.463262 
L 115.424961 -1 
M 115.621714 -1 
L 115.778517 33.527134 
L 115.958682 39.769202 
L 116.103814 39.939838 
L 116.268965 39.939788 
L 116.273969 39.559606 
L 116.344033 41.840036 
L 116.354043 41.806278 
L 116.389075 41.42011 
L 116.43912 42.053745 
L 116.519193 42.823284 
L 116.569239 42.355399 
L 116.749403 41.252752 
L 116.819467 40.455354 
L 116.874518 40.964262 
L 116.974609 43.517385 
L 117.324929 55.09285 
L 117.525112 56.097883 
L 117.760326 56.159348 
L 117.860418 56.163563 
L 117.865422 55.933993 
L 117.900454 56.98215 
L 117.955505 56.668585 
L 118.110646 57.088182 
L 118.150683 57.013907 
L 118.240765 56.560173 
L 118.295815 56.872789 
L 118.320838 56.959062 
L 118.380893 56.740277 
L 118.506007 56.626271 
L 118.455961 56.771237 
L 118.516016 56.638903 
L 118.566062 57.296588 
L 118.676162 61.855839 
L 118.966427 72.01484 
L 119.126574 72.688017 
L 119.431852 72.745849 
L 119.541953 72.751178 
L 119.627031 72.33191 
L 119.576985 72.942636 
L 119.657058 72.365896 
L 119.672072 72.358631 
L 119.702099 72.463625 
L 119.80219 72.895651 
L 119.852236 72.662234 
L 119.9223 72.335948 
L 119.987359 72.47875 
L 120.037405 72.500407 
L 120.072437 72.412843 
L 120.102465 72.355491 
L 120.162519 72.485889 
L 120.207561 72.584884 
L 120.307652 73.801942 
L 120.833132 84.261994 
L 120.838136 84.257505 
L 120.983269 84.304664 
L 121.218483 84.316399 
L 121.223488 84.035889 
L 121.253515 84.495979 
L 121.328584 84.259164 
L 121.468712 84.327492 
L 122.044237 85.55872 
L 122.199379 86.275816 
L 122.36453 88.475796 
L 122.609754 90.722101 
L 122.920037 91.652877 
L 123.630686 91.679504 
L 123.815855 91.67772 
L 123.820859 91.164342 
L 123.93096 91.265724 
L 124.036056 91.353109 
L 124.071088 91.424725 
L 124.126138 91.285968 
L 124.481462 90.567403 
L 124.491471 90.574016 
L 124.671636 90.953916 
L 124.841791 92.518062 
L 125.132056 94.743001 
L 125.302212 94.907424 
L 125.707582 94.904991 
L 125.802668 94.904616 
L 125.807673 94.691922 
L 125.8377 95.497093 
L 125.907764 95.148332 
L 125.917774 95.150663 
L 125.947801 95.048711 
L 125.987838 94.993586 
L 126.037883 95.111745 
L 126.082924 95.237467 
L 126.142979 95.096054 
L 126.208039 95.051399 
L 126.238066 95.128615 
L 126.413226 95.39128 
L 126.653445 95.92134 
L 126.773555 96.399011 
L 127.178925 98.125092 
L 127.459181 98.428063 
L 128.034706 98.48002 
L 128.700314 98.51664 
L 128.720332 98.730698 
L 128.80541 98.438518 
L 128.895492 98.248828 
L 128.945538 98.319002 
L 129.110688 98.46398 
L 129.15573 98.31715 
L 129.230798 98.343145 
L 129.340899 98.090852 
L 129.511054 98.033946 
L 129.536077 98.105201 
L 129.946451 99.278903 
L 130.516972 99.773698 
L 131.287676 99.774395 
L 131.332717 99.875444 
L 131.352735 100.043445 
L 131.397776 99.734089 
L 131.432808 99.73612 
L 131.527895 99.495535 
L 131.572936 99.599139 
L 131.688041 99.757468 
L 131.723073 99.680569 
L 131.778124 99.577134 
L 131.828169 99.702527 
L 131.943274 99.855641 
L 131.983311 99.817595 
L 132.028352 99.816055 
L 132.068389 99.87932 
L 132.794051 101.005356 
L 134.540646 101.446276 
L 135.136189 101.434499 
L 135.211258 100.721012 
L 135.256299 100.835197 
L 135.331367 100.667843 
L 135.371404 100.864389 
L 135.436463 101.099419 
L 135.486509 100.922116 
L 135.671678 100.56415 
L 135.931916 100.523583 
L 136.037012 100.623559 
L 136.577505 101.399909 
L 137.868684 101.665914 
L 139.144849 101.543694 
L 139.149853 101.687976 
L 139.174876 102.049614 
L 139.264959 101.816956 
L 139.315004 101.728657 
L 139.36505 101.846233 
L 139.395077 101.893546 
L 139.440118 101.724973 
L 139.495169 101.460788 
L 139.550219 101.704595 
L 139.720374 102.117534 
L 139.730383 102.106243 
L 140.115735 101.425027 
L 140.145763 101.450602 
L 140.481069 101.767604 
L 141.081617 101.932696 
L 142.678075 101.987035 
L 142.858239 101.984516 
L 142.943317 101.756187 
L 142.893271 102.117584 
L 142.973344 101.826778 
L 143.113472 101.738099 
L 143.163518 101.723125 
L 143.218568 101.786843 
L 143.278623 101.86951 
L 143.318659 101.765161 
L 143.3637 101.631042 
L 143.418751 101.815525 
L 143.493819 101.701203 
L 143.42876 101.826284 
L 143.543865 101.799185 
L 143.668979 101.902191 
L 143.673984 101.901027 
L 143.839134 102.108193 
L 144.449692 103.150552 
L 144.935135 103.234066 
L 146.216305 103.306606 
L 146.961985 103.247698 
L 147.067081 103.021167 
L 147.107118 103.175462 
L 147.207209 103.452143 
L 147.247246 103.361553 
L 147.287282 103.279697 
L 147.342333 103.387994 
L 147.357346 103.378805 
L 147.552525 103.214726 
L 147.95289 103.038508 
L 148.143064 103.260774 
L 148.473365 103.636069 
L 149.219046 103.806692 
L 150.820508 103.821286 
L 150.865549 103.821793 
L 150.940618 103.445156 
L 150.980654 103.566845 
L 151.060727 103.375729 
L 151.115778 103.546947 
L 151.175832 103.772631 
L 151.230883 103.5833 
L 151.275924 103.487255 
L 151.340983 103.593223 
L 151.826426 103.203878 
L 152.512052 103.617526 
L 152.957459 103.656764 
L 154.874209 103.794275 
L 154.899232 104.211935 
L 154.984309 103.865525 
L 155.044364 103.837906 
L 155.079396 103.916712 
L 155.114428 104.017883 
L 155.174483 103.842627 
L 155.189497 103.832893 
L 155.229533 103.953785 
L 155.259561 104.020263 
L 155.309606 103.839096 
L 155.334629 103.779694 
L 155.37967 104.0062 
L 155.414702 104.177393 
L 155.484766 103.958646 
L 155.699963 103.904282 
L 156.480675 104.619824 
L 156.810977 104.902669 
L 157.366484 104.969488 
L 158.872859 104.982424 
L 158.897882 105.951117 
L 158.98296 105.460536 
L 159.09306 105.543431 
L 159.273225 105.704675 
L 159.33328 105.963977 
L 159.698613 109.25759 
L 159.908805 116.342522 
L 160.149024 119.863996 
L 160.454303 120.484151 
L 161.019819 120.661318 
L 161.82055 120.645711 
L 162.491162 120.67209 
L 162.876514 120.627168 
L 162.881519 119.808809 
L 162.991619 119.916727 
L 163.031656 120.02805 
L 163.376971 121.903552 
L 163.396989 121.894907 
L 163.487072 121.789458 
L 163.517099 121.704513 
L 163.572149 121.869314 
L 163.587163 121.855112 
L 163.632204 121.739283 
L 163.672241 121.922374 
L 164.633118 129.146349 
L 164.928387 129.297683 
L 165.403822 129.335681 
L 166.945229 129.265444 
L 167.030306 129.119756 
L 167.070343 129.193992 
L 167.170434 129.493748 
L 167.255512 129.632322 
L 167.310562 129.584211 
L 167.675896 129.237597 
L 167.690909 129.254837 
L 167.821028 129.428802 
L 167.926124 129.779099 
L 168.081266 131.379857 
L 168.50165 135.014097 
L 168.751878 135.524878 
L 170.688646 135.657833 
L 170.883824 135.662023 
L 170.963897 135.329725 
L 170.913852 135.678832 
L 170.998929 135.39962 
L 171.189103 135.594229 
L 171.244153 135.44725 
L 171.344245 135.318611 
L 171.39429 135.354609 
L 171.489377 135.359166 
L 171.5144 135.29036 
L 171.694565 135.128736 
L 171.964811 135.180277 
L 172.164994 135.520018 
L 172.610401 136.692383 
L 173.230967 139.482264 
L 173.791479 140.177238 
L 174.892484 140.455767 
L 174.912502 140.569178 
L 174.967553 140.280485 
L 174.977562 140.292422 
L 175.047626 140.223615 
L 175.137708 140.335141 
L 175.28284 140.274764 
L 175.337891 140.185263 
L 175.382932 140.30818 
L 175.422968 140.397314 
L 175.473014 140.235944 
L 175.573105 140.143999 
L 175.608137 140.178365 
L 175.75327 140.122406 
L 175.963462 140.115507 
L 176.098585 140.320369 
L 176.604047 141.688736 
L 177.164558 143.648942 
L 177.509873 144.214253 
L 178.13044 144.53269 
L 178.896139 144.571789 
L 178.921162 145.008917 
L 179.011244 144.800194 
L 179.176395 144.930225 
L 179.186404 144.920972 
L 179.251463 144.827813 
L 179.306514 144.927175 
L 179.331537 144.930921 
L 179.371573 144.838939 
L 179.41161 144.796106 
L 179.456651 144.895619 
L 179.496687 144.999892 
L 179.556742 144.861609 
L 179.786952 144.66829 
L 179.997144 144.455049 
L 180.067208 144.552284 
L 181.168213 146.314616 
L 181.66867 147.125444 
L 181.938917 147.274929 
L 182.939831 147.310092 
L 183.104981 146.899798 
L 183.170041 146.821588 
L 183.230096 146.869344 
L 183.470315 147.203579 
L 183.490333 147.178745 
L 183.535374 147.149164 
L 183.580415 147.227894 
L 183.635466 147.310029 
L 183.700525 147.235792 
L 183.99079 147.076029 
L 183.995795 147.081003 
L 184.566316 147.858137 
L 185.256946 148.843727 
L 185.96259 149.276324 
L 186.868417 149.535385 
L 186.903449 149.598571 
L 186.928472 149.931059 
L 186.973513 149.582825 
L 187.01355 149.640771 
L 187.128655 149.501463 
L 187.163687 149.554169 
L 187.24376 149.702135 
L 187.29881 149.587496 
L 187.343851 149.51212 
L 187.388892 149.630595 
L 187.433933 149.76379 
L 187.509002 149.6601 
L 187.659139 149.704122 
L 187.894354 149.613014 
L 188.414829 150.014738 
L 189.020382 150.756279 
L 189.630939 151.083716 
L 190.236492 151.363789 
L 190.9021 151.424494 
L 190.977168 151.145358 
L 190.927122 151.439721 
L 191.017205 151.213975 
L 191.142319 150.935952 
L 191.252419 151.055933 
L 191.737863 151.154016 
L 191.923032 151.064109 
L 192.328402 151.164205 
L 193.099105 151.659431 
L 194.905755 152.376163 
L 194.930778 152.612428 
L 194.985828 152.242866 
L 195.010851 152.305521 
L 195.040878 152.344835 
L 195.100933 152.265865 
L 195.120951 152.284965 
L 195.186011 152.415755 
L 195.266084 152.348291 
L 195.431234 152.341949 
L 195.441244 152.358164 
L 195.626413 152.466664 
L 195.881646 152.579126 
L 196.151892 153.014912 
L 196.472185 153.458798 
L 197.217865 153.634016 
L 198.90941 153.863662 
L 198.914414 153.735555 
L 198.944442 154.008147 
L 199.014506 153.902634 
L 199.214688 154.168366 
L 199.244716 154.118597 
L 199.354816 153.973301 
L 199.394853 154.022653 
L 199.484935 154.049221 
L 199.509958 154.01283 
L 199.655091 153.949454 
L 200.270652 153.959213 
L 201.036351 154.306852 
L 201.57184 154.394898 
L 203.078216 154.394986 
L 203.223348 154.380671 
L 203.288407 154.472678 
L 203.453558 154.621417 
L 203.458563 154.619315 
L 204.01407 154.418428 
L 204.684682 154.630998 
L 205.160116 154.839303 
L 205.620537 154.938146 
L 206.936738 155.149083 
L 206.951752 155.249483 
L 207.031825 155.022571 
L 207.086875 154.884794 
L 207.176957 154.956436 
L 207.337104 155.252293 
L 207.387149 155.094909 
L 207.427186 155.015357 
L 207.477232 155.154703 
L 207.582328 155.19522 
L 207.602346 155.185436 
L 207.717451 155.190056 
L 207.737469 155.219105 
L 207.777506 155.233939 
L 207.822547 155.161753 
L 207.977688 155.106668 
L 210.199717 155.393297 
L 210.945398 155.507645 
L 210.950402 155.51762 
L 210.985434 155.345971 
L 211.075517 155.186562 
L 211.115553 155.247711 
L 211.240667 155.395829 
L 211.280704 155.314694 
L 211.395809 154.993408 
L 211.485891 155.038343 
L 211.766147 155.200713 
L 212.006366 155.352654 
L 213.647865 155.629461 
L 214.92403 155.678737 
L 214.999098 155.47728 
L 214.954057 155.838412 
L 215.03413 155.610956 
L 215.164249 155.667295 
L 215.199281 155.695572 
L 215.27435 155.640828 
L 215.344414 155.733456 
L 215.499555 155.895105 
L 215.534587 155.857689 
L 215.79983 155.735392 
L 218.947703 156.09965 
L 218.957712 156.121953 
L 219.002754 155.85455 
L 219.047795 155.982454 
L 219.122863 155.840032 
L 219.182918 155.934457 
L 219.257987 156.09198 
L 219.333055 156.042654 
L 219.828507 156.06545 
L 220.09375 156.097119 
L 221.339887 156.248882 
L 222.475924 156.297652 
L 222.93134 156.301449 
L 222.966372 157.280597 
L 223.046445 156.93716 
L 223.081477 156.875582 
L 223.136527 156.986866 
L 223.321696 157.419095 
L 223.376747 157.323911 
L 223.406774 157.409147 
L 223.812144 160.841499 
L 224.532802 169.47842 
L 224.808053 171.212488 
L 225.058282 171.506509 
L 225.42862 171.835605 
L 225.728894 171.938574 
L 226.279397 172.261074 
L 226.934995 172.582778 
L 226.94 172.003734 
L 227.0501 172.051099 
L 227.135178 172.251898 
L 227.28031 173.202667 
L 227.395415 173.110508 
L 227.670667 173.786407 
L 227.69569 173.70031 
L 227.735726 173.570014 
L 227.785772 173.785533 
L 228.296238 176.784302 
L 228.611526 177.422608 
L 229.152019 178.156023 
L 229.792604 178.952763 
L 230.788513 179.212445 
L 230.93865 179.20947 
L 231.013719 178.865059 
L 231.05876 178.912664 
L 231.158851 178.835491 
L 231.198888 178.912791 
L 231.334011 179.218887 
L 231.374048 179.147334 
L 231.529189 179.032594 
L 231.629281 178.988786 
L 231.654304 179.014063 
L 232.054669 179.886888 
L 232.7453 181.323845 
L 233.14066 181.599324 
L 234.331748 182.187 
L 234.977337 182.535866 
L 235.00236 182.378964 
L 235.132479 182.2744 
L 235.292625 182.315841 
L 235.387712 182.248908 
L 235.547858 182.298221 
L 236.698909 183.156933 
L 238.270343 184.285882 
L 238.94596 184.609206 
L 239.031038 184.340259 
L 238.975988 184.62704 
L 239.061065 184.368295 
L 239.221212 184.491326 
L 239.356335 184.621205 
L 239.371349 184.613446 
L 239.456426 184.55774 
L 239.511477 184.635116 
L 240.567441 185.521256 
L 241.523313 186.144019 
L 241.90366 186.425902 
L 242.279003 186.566679 
L 242.959624 186.877585 
L 242.979643 187.112382 
L 243.024684 186.820512 
L 243.07473 186.942949 
L 243.35999 186.843688 
L 243.630237 186.918064 
L 243.955534 187.000262 
L 244.17073 187.257994 
L 244.420959 187.508347 
L 244.876374 187.772168 
L 246.627973 188.551453 
L 246.95327 188.614171 
L 247.033343 188.414575 
L 246.983298 188.656536 
L 247.063371 188.49595 
L 247.083389 188.511013 
L 247.143444 188.425258 
L 247.148449 188.423397 
L 247.268558 188.520177 
L 247.408686 188.547099 
L 248.144358 188.761011 
L 248.579755 189.057324 
L 249.825893 189.675656 
L 250.976944 190.039421 
L 250.986953 190.069242 
L 251.031994 189.793789 
L 251.042003 189.80194 
L 251.172122 189.828344 
L 251.447373 189.90058 
L 251.492414 189.895619 
L 251.537455 189.967387 
L 251.822716 190.180489 
L 254.975594 191.430026 
L 254.990608 191.594384 
L 255.040654 191.311084 
L 255.08069 191.356233 
L 255.230827 191.325551 
L 255.245841 191.348335 
L 255.305896 191.420812 
L 255.37596 191.367954 
L 255.516088 191.411711 
L 255.741293 191.381384 
L 256.391887 191.374055 
L 257.988345 191.798753 
L 259.019286 191.781146 
L 259.149405 191.670418 
L 259.194446 191.653381 
L 259.244491 191.718479 
L 259.354592 191.725592 
L 259.369606 191.711479 
L 259.534756 191.684632 
L 260.285442 191.741819 
L 260.620748 191.922898 
L 261.221296 192.175643 
L 262.312292 192.420401 
L 262.972895 192.557786 
L 262.997918 192.784761 
L 263.042959 192.534939 
L 263.082996 192.613074 
L 263.243142 192.606999 
L 263.323215 192.714347 
L 263.408293 192.702512 
L 263.428311 192.675539 
L 263.503379 192.539914 
L 263.568439 192.645933 
L 263.973809 192.662198 
L 264.219033 192.716157 
L 264.734503 192.955954 
L 265.114851 193.08644 
L 266.441061 193.373664 
L 266.971546 193.447913 
L 267.006578 194.187328 
L 267.086651 193.908103 
L 267.497025 194.418846 
L 267.637153 194.556383 
L 268.012496 195.838071 
L 269.048442 203.558006 
L 269.383748 204.586632 
L 269.603949 205.020405 
L 269.889209 205.346285 
L 270.309593 205.50639 
L 270.975201 205.761389 
L 270.980205 205.140436 
L 271.090306 205.266011 
L 271.220425 205.326729 
L 271.590763 206.161037 
L 271.610781 206.140608 
L 271.655822 206.104547 
L 271.695859 206.210946 
L 271.730891 206.314396 
L 271.79595 206.152582 
L 271.835987 206.12795 
L 271.886032 206.215439 
L 272.401503 207.474963 
L 272.651731 207.822577 
L 273.392407 209.25537 
L 274.488408 210.044959 
L 274.988865 210.386826 
L 275.008883 210.495731 
L 275.058929 210.266351 
L 275.083952 210.280465 
L 275.274125 210.353131 
L 275.489322 210.58446 
L 275.754564 211.240588 
L 276.044829 212.090983 
L 276.370126 212.605841 
L 276.690418 213.044867 
L 277.210893 213.770522 
L 277.436099 214.062379 
L 277.936556 214.317036 
L 278.837378 214.475369 
L 278.99252 214.542466 
L 279.012538 214.672788 
L 279.057579 214.497115 
L 279.10262 214.530492 
L 279.28779 214.509949 
L 279.472959 214.537327 
L 279.477963 214.531467 
L 279.528009 214.510177 
L 279.57305 214.579793 
L 279.918365 214.821312 
L 280.629014 215.217707 
L 281.159498 215.527753 
L 282.745947 216.169907 
L 283.016193 216.328379 
L 283.036212 216.20788 
L 283.161326 216.10624 
L 283.296449 216.139276 
L 283.466604 216.17535 
L 283.661783 216.261801 
L 284.102185 216.494446 
L 287.009839 217.859306 
L 287.019848 217.904747 
L 287.064889 217.711213 
L 287.104926 217.767286 
L 288.646333 218.073851 
L 290.673184 218.775584 
L 291.003485 218.897349 
L 291.018499 218.982534 
L 291.068545 218.776723 
L 291.103577 218.807354 
L 291.513951 218.865705 
L 292.795121 219.370614 
L 294.231432 219.762237 
L 295.002136 219.930962 
L 295.027158 220.09589 
L 295.117241 219.989567 
L 295.262373 219.991971 
L 295.657734 220.059183 
L 296.153186 220.132723 
L 296.533534 220.272589 
L 299.0158 220.810786 
L 299.030814 220.862429 
L 299.075855 220.677882 
L 299.110887 220.711425 
L 299.491234 220.74117 
L 299.611343 220.79661 
L 299.756476 220.812685 
L 300.882504 220.955335 
L 301.453025 221.051532 
L 303.059491 221.191145 
L 303.119546 221.204941 
L 303.179601 221.144439 
L 303.324734 221.156969 
L 303.534925 221.143932 
L 303.625008 221.218232 
L 303.965318 221.290759 
L 304.520826 221.332276 
L 305.556771 221.495305 
L 307.008096 221.671371 
L 307.083165 221.609729 
L 307.038124 221.744152 
L 307.118197 221.658967 
L 307.218288 221.609223 
L 307.498544 221.639221 
L 307.653686 221.633019 
L 307.868882 221.685927 
L 308.29427 221.710736 
L 308.924846 221.758455 
L 311.011751 221.974519 
L 311.046783 222.579675 
L 311.121852 222.261591 
L 311.367076 222.365256 
L 311.632318 222.583345 
L 311.77745 222.60942 
L 311.782455 222.618533 
L 312.022674 223.276091 
L 312.508117 226.167828 
L 312.843423 227.117775 
L 313.103661 227.602685 
L 313.834328 229.264617 
L 314.850256 229.968122 
L 315.015406 230.030903 
L 315.020411 229.775348 
L 315.125507 229.842053 
L 315.250621 229.918884 
L 315.43579 230.330253 
L 315.505854 230.290888 
L 315.826146 230.687069 
L 315.856174 230.61644 
L 315.891206 230.577202 
L 315.946256 230.689094 
L 316.571827 231.839283 
L 317.827974 233.160728 
L 318.533618 233.525517 
L 319.199226 233.643486 
L 319.329345 233.662978 
L 319.339354 233.680699 
L 319.584578 233.933849 
L 320.730624 235.84678 
L 321.015884 235.988924 
L 323.057748 236.421178 
L 323.077767 236.298527 
L 323.192872 236.272579 
L 323.423082 236.302324 
L 324.283868 236.573321 
L 327.026371 236.918492 
L 327.051394 237.060383 
L 327.096435 236.880519 
L 327.136472 236.915707 
L 327.867139 236.970388 
L 328.757952 237.05937 
L 330.099177 237.238348 
L 332.67653 237.452386 
L 335.033682 237.656932 
L 335.068714 238.029189 
L 335.143782 237.805784 
L 335.524129 237.874768 
L 335.704294 237.957041 
L 335.709298 237.952738 
L 335.849426 237.960079 
L 336.314851 238.399042 
L 338.496843 241.614305 
L 339.037337 241.998208 
L 339.042341 241.926946 
L 339.067364 242.036813 
L 339.147437 241.948717 
L 339.352624 241.993524 
L 339.462725 242.168578 
L 339.692935 242.355782 
L 339.813045 242.430082 
L 339.9832 242.70918 
L 340.458634 244.268966 
L 340.768917 244.667931 
L 341.299402 244.883995 
L 342.455457 245.090693 
L 343.616517 245.171954 
L 344.086947 245.211319 
L 344.50733 245.199168 
L 345.03281 245.308655 
L 346.218893 245.726606 
L 347.044647 245.918621 
L 347.064665 246.01254 
L 347.109706 245.896723 
L 347.154747 245.904824 
L 347.505067 245.954315 
L 347.845378 246.161898 
L 348.115624 246.408847 
L 348.631095 246.697058 
L 348.86631 246.849328 
L 349.136557 246.937425 
L 355.762606 247.33082 
L 356.878624 246.279613 
L 357.80447 245.801792 
L 358.885457 245.696102 
L 359.055612 245.686862 
L 359.085639 245.86913 
L 359.165712 245.756098 
L 359.591101 245.840397 
L 359.791284 245.898622 
L 359.926407 246.007097 
L 360.086553 246.710982 
L 360.371814 247.58106 
L 361.4528 248.796561 
L 361.878189 249.196412 
L 362.413678 249.777266 
L 363.164363 250.051174 
L 363.484655 250.091932 
L 363.71987 250.220405 
L 364.230336 250.616079 
L 364.450537 250.736832 
L 365.626611 250.891127 
L 367.087945 251.137189 
L 367.097954 251.169719 
L 367.137991 251.063523 
L 367.188036 251.075674 
L 367.698502 251.160226 
L 368.158923 251.360848 
L 368.849553 251.421098 
L 371.131636 251.597797 
L 371.386869 251.577798 
L 371.692148 251.608049 
L 371.982413 251.755889 
L 372.237646 251.826898 
L 375.09025 251.862972 
L 375.10026 251.886388 
L 375.145301 251.807405 
L 375.185337 251.809937 
L 375.655767 251.827657 
L 375.96605 251.986762 
L 376.386434 252.103971 
L 382.537049 252.459267 
L 383.102565 252.552427 
L 383.117579 252.62103 
L 383.152611 252.482557 
L 383.207661 252.506227 
L 384.954256 252.883294 
L 385.524776 253.172519 
L 387.006129 253.814635 
L 387.256357 253.818938 
L 387.601672 253.881466 
L 387.836887 253.996523 
L 388.132157 254.183348 
L 388.587573 254.612691 
L 389.273198 254.671928 
L 391.11488 254.914826 
L 391.119884 254.926977 
L 391.159921 254.815211 
L 391.199957 254.832679 
L 391.690405 254.820907 
L 392.931538 254.990138 
L 396.119449 255.181393 
L 396.709988 255.24544 
L 407.099473 255.497072 
L 407.104477 255.394166 
L 407.139509 255.600484 
L 407.209573 255.509856 
L 407.720039 255.544664 
L 409.997118 256.233613 
L 411.553539 256.35791 
L 411.863822 256.444234 
L 413.260097 256.752445 
L 420.121361 257.035467 
L 420.541744 257.105589 
L 422.543572 257.146094 
L 425.58635 257.232291 
L 425.58635 257.232291 
" clip-path="url(#pec55d56104)" style="fill: none; stroke: #1a1a1a; stroke-width: 1.5; stroke-linecap: round"/>
   </g>
   <g id="patch_3">
    <path d="M 94.339695 278.817032 
L 94.339695 25.66665 
" style="fill: none; stroke: #ffffff; stroke-width: 1.25; stroke-linejoin: miter; stroke-linecap: square"/>
   </g>
   <g id="patch_4">
    <path d="M 441.36 278.817032 
L 441.36 25.66665 
" style="fill: none; stroke: #ffffff; stroke-width: 1.25; stroke-linejoin: miter; stroke-linecap: square"/>
   </g>
   <g id="patch_5">
    <path d="M 94.339695 278.817032 
L 441.36 278.817032 
" style="fill: none; stroke: #ffffff; stroke-width: 1.25; stroke-linejoin: miter; stroke-linecap: square"/>
   </g>
   <g id="patch_6">
    <path d="M 94.339695 25.66665 
L 441.36 25.66665 
" style="fill: none; stroke: #ffffff; stroke-width: 1.25; stroke-linejoin: miter; stroke-linecap: square"/>
   </g>
  </g>
 </g>
 <defs>
  <clipPath id="pec55d56104">
   <rect x="94.339695" y="25.66665" width="347.020305" height="253.150382"/>
  </clipPath>
 </defs>
</svg>
