<?xml version="1.0" encoding="UTF-8"?>
<svg xmlns="http://www.w3.org/2000/svg" xmlns:xlink="http://www.w3.org/1999/xlink" width="49pt" height="45pt" viewBox="0 0 49 45" version="1.1">
  <g id="surface1">
    <rect x="0" y="0" width="49" height="45" style="fill:rgb(100%,100%,100%);fill-opacity:1;stroke:none;" />
    <path style=" stroke:none;fill-rule:nonzero;fill:rgb(0%,0%,56.862745%);fill-opacity:1;" d="M 12.367188 11.054688 C 12.429688 10.988281 12.492188 10.925781 12.550781 10.855469 C 12.664062 10.71875 12.78125 10.597656 12.914062 10.476562 C 12.953125 10.441406 12.992188 10.40625 13.035156 10.382812 C 13.046875 10.371094 13.046875 10.347656 13.058594 10.335938 C 13.003906 10.359375 12.96875 10.402344 12.914062 10.425781 C 12.902344 10.425781 12.890625 10.414062 12.902344 10.402344 C 12.941406 10.371094 12.980469 10.34375 13.015625 10.3125 L 13.011719 10.3125 C 13 10.3125 13 10.300781 13 10.289062 C 12.855469 10.265625 12.75 10.367188 12.652344 10.453125 C 12.628906 10.464844 12.605469 10.441406 12.601562 10.441406 C 12.441406 10.496094 12.320312 10.644531 12.15625 10.707031 L 12.15625 10.683594 C 12.09375 10.707031 12.03125 10.75 11.960938 10.761719 C 11.863281 10.785156 11.777344 10.773438 11.691406 10.773438 C 11.558594 10.785156 11.425781 10.8125 11.292969 10.84375 C 11.289062 10.84375 11.289062 10.84375 11.28125 10.847656 C 11.210938 10.867188 11.144531 10.894531 11.078125 10.929688 L 11.058594 10.953125 C 11.035156 10.976562 11.011719 11.007812 10.980469 11.019531 C 10.914062 11.054688 10.859375 11.113281 10.804688 11.164062 C 10.796875 11.171875 10.792969 11.171875 10.785156 11.171875 C 10.726562 11.230469 10.671875 11.289062 10.613281 11.339844 C 10.605469 11.347656 10.589844 11.347656 10.578125 11.347656 C 10.578125 11.339844 10.585938 11.339844 10.585938 11.335938 C 10.59375 11.316406 10.601562 11.304688 10.613281 11.289062 L 10.648438 11.234375 C 10.664062 11.210938 10.675781 11.1875 10.695312 11.171875 C 10.699219 11.164062 10.699219 11.160156 10.695312 11.160156 C 10.6875 11.152344 10.683594 11.152344 10.675781 11.152344 C 10.726562 11.101562 10.796875 11.054688 10.859375 11.011719 C 10.855469 11.011719 10.84375 11.007812 10.847656 11 C 10.855469 10.988281 10.859375 10.984375 10.867188 10.972656 C 10.867188 10.964844 10.867188 10.964844 10.871094 10.960938 C 10.871094 10.953125 10.867188 10.953125 10.867188 10.949219 L 10.816406 10.984375 C 10.785156 11.007812 10.769531 11.054688 10.726562 11.054688 L 10.710938 11.054688 C 10.703125 11.054688 10.699219 11.054688 10.699219 11.046875 L 10.699219 11.042969 C 10.699219 11.035156 10.703125 11.035156 10.703125 11.03125 C 10.703125 11.023438 10.710938 11.023438 10.710938 11.019531 C 10.710938 11.019531 10.710938 11.011719 10.714844 11.011719 C 10.714844 11.007812 10.722656 11 10.722656 11 C 10.722656 10.996094 10.726562 10.996094 10.726562 10.988281 C 10.734375 10.984375 10.738281 10.972656 10.738281 10.964844 C 10.738281 10.960938 10.746094 10.960938 10.746094 10.953125 C 10.75 10.949219 10.75 10.941406 10.757812 10.9375 C 10.761719 10.925781 10.757812 10.917969 10.75 10.917969 C 10.769531 10.890625 10.796875 10.871094 10.824219 10.855469 L 10.820312 10.855469 C 10.859375 10.832031 10.90625 10.808594 10.945312 10.785156 L 10.964844 10.765625 C 10.902344 10.789062 10.847656 10.820312 10.792969 10.855469 C 10.792969 10.855469 10.78125 10.859375 10.773438 10.867188 C 10.773438 10.867188 10.761719 10.871094 10.746094 10.855469 L 10.746094 10.847656 C 10.757812 10.824219 10.792969 10.8125 10.808594 10.796875 C 10.820312 10.796875 10.832031 10.796875 10.832031 10.808594 C 11.183594 10.53125 11.660156 10.597656 12.066406 10.453125 C 12.101562 10.429688 12.128906 10.40625 12.164062 10.390625 C 12.214844 10.367188 12.261719 10.3125 12.324219 10.277344 C 12.410156 10.214844 12.476562 10.132812 12.507812 10.027344 C 12.507812 10.015625 12.496094 10.003906 12.496094 10.003906 C 12.355469 10.15625 12.191406 10.277344 12.019531 10.367188 C 11.789062 10.488281 11.539062 10.464844 11.296875 10.503906 C 11.308594 10.476562 11.332031 10.476562 11.351562 10.476562 C 11.351562 10.441406 11.375 10.429688 11.398438 10.414062 L 11.429688 10.414062 C 11.441406 10.414062 11.441406 10.390625 11.453125 10.390625 C 11.476562 10.390625 11.511719 10.378906 11.5 10.378906 C 11.464844 10.332031 11.402344 10.414062 11.351562 10.378906 C 11.375 10.355469 11.363281 10.324219 11.386719 10.3125 L 11.429688 10.3125 C 11.429688 10.289062 11.453125 10.265625 11.453125 10.265625 C 11.617188 10.167969 11.773438 10.089844 11.921875 10.003906 C 11.886719 10.003906 11.871094 10.039062 11.835938 10.015625 C 11.859375 10.015625 11.835938 9.980469 11.859375 9.980469 C 11.980469 9.945312 12.078125 9.878906 12.199219 9.832031 C 12.152344 9.832031 12.125 9.867188 12.078125 9.832031 C 12.101562 9.820312 12.113281 9.796875 12.140625 9.796875 L 12.140625 9.761719 C 12.140625 9.75 12.152344 9.75 12.164062 9.75 C 12.152344 9.75 12.140625 9.738281 12.140625 9.738281 C 12.152344 9.714844 12.1875 9.726562 12.203125 9.703125 C 12.191406 9.703125 12.167969 9.703125 12.167969 9.691406 C 12.203125 9.644531 12.253906 9.640625 12.3125 9.628906 C 12.300781 9.605469 12.265625 9.628906 12.265625 9.605469 C 12.265625 9.59375 12.277344 9.59375 12.289062 9.59375 L 12.265625 9.59375 C 12.246094 9.582031 12.253906 9.558594 12.253906 9.546875 C 12.320312 9.46875 12.320312 9.371094 12.355469 9.28125 C 12.34375 9.28125 12.332031 9.28125 12.332031 9.269531 C 12.222656 9.394531 12.046875 9.433594 11.886719 9.480469 L 11.8125 9.480469 C 11.761719 9.503906 11.679688 9.503906 11.628906 9.46875 C 11.582031 9.445312 11.5625 9.417969 11.519531 9.382812 C 11.429688 9.328125 11.34375 9.28125 11.246094 9.246094 C 10.976562 9.160156 10.695312 9.113281 10.410156 9.125 C 10.53125 9.058594 10.664062 9.054688 10.792969 9.011719 C 10.976562 8.957031 11.148438 8.886719 11.34375 8.898438 C 11.308594 8.886719 11.269531 8.898438 11.234375 8.898438 C 11.085938 8.886719 10.929688 8.933594 10.769531 8.964844 C 10.660156 8.988281 10.5625 9.03125 10.453125 9.054688 C 10.386719 9.078125 10.351562 9.140625 10.277344 9.128906 L 10.277344 9.09375 C 10.386719 8.957031 10.519531 8.828125 10.695312 8.816406 C 10.890625 8.78125 11.074219 8.816406 11.269531 8.839844 C 11.414062 8.851562 11.539062 8.886719 11.683594 8.917969 C 11.738281 8.917969 11.75 9.007812 11.792969 9.019531 C 11.859375 9.042969 11.925781 9.019531 11.992188 9.066406 C 11.992188 9.042969 11.980469 9.019531 11.992188 9 C 12.035156 8.953125 12.089844 9.011719 12.132812 8.988281 C 12.222656 8.933594 12.058594 8.835938 12.011719 8.753906 C 12.011719 8.742188 12.023438 8.730469 12.023438 8.730469 C 12.113281 8.804688 12.175781 8.894531 12.285156 8.953125 C 12.335938 8.976562 12.46875 9.007812 12.445312 8.941406 C 12.394531 8.816406 12.285156 8.71875 12.191406 8.605469 L 12.191406 8.558594 C 12.167969 8.558594 12.167969 8.546875 12.15625 8.535156 L 12.15625 8.488281 C 12.113281 8.464844 12.125 8.425781 12.105469 8.390625 C 12.070312 8.335938 12.09375 8.253906 12.070312 8.191406 C 12.046875 8.125 12.035156 8.066406 12.023438 8.003906 C 11.992188 7.816406 11.949219 7.652344 11.925781 7.46875 C 11.902344 7.257812 12.046875 7.09375 12.144531 6.90625 C 12.222656 6.769531 12.308594 6.640625 12.453125 6.554688 C 12.488281 6.417969 12.574219 6.308594 12.660156 6.203125 C 12.746094 6.097656 12.890625 6.027344 12.992188 5.976562 C 13.144531 5.90625 13.28125 5.867188 13.28125 5.867188 L 5.765625 5.867188 L 5.765625 11.734375 L 11.109375 11.734375 C 11.316406 11.582031 11.523438 11.511719 11.8125 11.363281 C 11.949219 11.304688 12.261719 11.160156 12.367188 11.054688 M 10.695312 10.253906 C 10.671875 10.253906 10.628906 10.265625 10.640625 10.242188 C 10.652344 10.191406 10.726562 10.191406 10.773438 10.167969 C 10.796875 10.15625 10.824219 10.132812 10.847656 10.144531 C 10.871094 10.179688 10.902344 10.167969 10.925781 10.191406 C 10.855469 10.253906 10.769531 10.226562 10.695312 10.253906 M 9.023438 10.015625 C 9.023438 10.015625 9.011719 10.003906 9.011719 9.992188 C 9.15625 9.804688 9.257812 9.628906 9.363281 9.429688 C 9.507812 9.351562 9.621094 9.242188 9.730469 9.117188 C 9.914062 8.917969 10.109375 8.742188 10.34375 8.628906 C 10.429688 8.59375 10.539062 8.605469 10.625 8.640625 C 10.589844 8.6875 10.539062 8.675781 10.492188 8.707031 C 10.480469 8.707031 10.46875 8.707031 10.457031 8.695312 C 10.46875 8.683594 10.46875 8.671875 10.46875 8.660156 C 10.359375 8.78125 10.210938 8.835938 10.121094 8.980469 C 10.058594 9.09375 10.011719 9.234375 9.875 9.269531 C 9.828125 9.28125 9.886719 9.234375 9.863281 9.246094 C 9.523438 9.457031 9.285156 9.714844 9.023438 10.015625 M 9.925781 9.28125 C 9.914062 9.304688 9.902344 9.304688 9.890625 9.328125 C 9.878906 9.351562 9.871094 9.363281 9.847656 9.375 C 9.835938 9.375 9.824219 9.375 9.824219 9.363281 C 9.835938 9.316406 9.871094 9.277344 9.910156 9.265625 C 9.925781 9.257812 9.925781 9.269531 9.925781 9.28125 M 10.433594 10.941406 C 10.429688 10.953125 10.417969 10.964844 10.40625 10.976562 C 10.417969 10.976562 10.429688 10.988281 10.417969 10.996094 C 10.394531 11.019531 10.363281 11.042969 10.335938 11.054688 L 10.320312 11.054688 C 10.308594 11.066406 10.289062 11.078125 10.277344 11.09375 C 10.265625 11.105469 10.203125 11.101562 10.222656 11.082031 C 10.25 11.058594 10.273438 11.03125 10.300781 11.007812 C 10.320312 10.996094 10.335938 10.976562 10.347656 10.960938 C 10.351562 10.949219 10.359375 10.941406 10.371094 10.9375 C 10.386719 10.925781 10.445312 10.917969 10.433594 10.941406 M 10.238281 10.855469 C 10.191406 10.882812 10.152344 10.914062 10.109375 10.941406 C 10.066406 10.972656 10.011719 10.988281 9.96875 11.011719 C 9.960938 11.007812 9.957031 11.007812 9.949219 11.007812 C 9.910156 11.03125 9.875 11.058594 9.839844 11.09375 L 9.824219 11.113281 L 9.804688 11.128906 L 9.78125 11.152344 C 9.777344 11.160156 9.777344 11.164062 9.765625 11.171875 C 9.757812 11.175781 9.742188 11.175781 9.742188 11.164062 C 9.738281 11.171875 9.730469 11.171875 9.726562 11.175781 C 9.71875 11.183594 9.714844 11.183594 9.707031 11.1875 L 9.695312 11.1875 C 9.683594 11.199219 9.667969 11.210938 9.65625 11.222656 C 9.632812 11.246094 9.609375 11.265625 9.59375 11.292969 L 9.59375 11.300781 L 9.585938 11.304688 C 9.585938 11.304688 9.585938 11.3125 9.582031 11.3125 C 9.582031 11.316406 9.574219 11.316406 9.574219 11.324219 C 9.574219 11.324219 9.570312 11.328125 9.5625 11.328125 L 9.558594 11.324219 C 9.558594 11.324219 9.558594 11.316406 9.550781 11.316406 C 9.546875 11.3125 9.546875 11.304688 9.539062 11.300781 L 9.539062 11.292969 C 9.550781 11.28125 9.5625 11.269531 9.574219 11.253906 C 9.582031 11.246094 9.582031 11.242188 9.585938 11.242188 C 9.59375 11.234375 9.597656 11.222656 9.605469 11.21875 C 9.605469 11.210938 9.609375 11.210938 9.609375 11.207031 C 9.621094 11.1875 9.632812 11.175781 9.644531 11.160156 L 9.648438 11.152344 C 9.65625 11.148438 9.660156 11.136719 9.667969 11.128906 C 9.671875 11.125 9.671875 11.117188 9.679688 11.105469 L 9.679688 11.101562 C 9.683594 11.089844 9.683594 11.082031 9.691406 11.078125 L 9.691406 11.070312 C 9.691406 11.066406 9.691406 11.066406 9.695312 11.058594 C 9.695312 11.054688 9.695312 11.046875 9.703125 11.042969 L 9.703125 11.035156 C 9.714844 11.011719 9.730469 10.996094 9.75 10.976562 L 9.742188 10.976562 C 9.726562 10.988281 9.714844 11 9.703125 11.011719 C 9.691406 11.023438 9.667969 11.007812 9.683594 10.996094 C 9.695312 10.988281 9.703125 10.976562 9.707031 10.972656 C 9.726562 10.953125 9.742188 10.929688 9.765625 10.914062 C 9.777344 10.902344 9.789062 10.894531 9.800781 10.890625 L 9.804688 10.882812 C 9.8125 10.871094 9.824219 10.867188 9.828125 10.855469 C 9.933594 10.753906 10.109375 10.753906 10.242188 10.691406 C 10.296875 10.667969 10.363281 10.703125 10.417969 10.691406 C 10.453125 10.691406 10.480469 10.691406 10.515625 10.714844 C 10.417969 10.730469 10.332031 10.796875 10.238281 10.855469 M 10.464844 10.078125 C 10.453125 10.066406 10.496094 10.078125 10.507812 10.054688 L 10.421875 10.054688 C 10.410156 10.054688 10.410156 10.042969 10.410156 10.03125 C 10.359375 10.042969 10.289062 10.066406 10.238281 10.078125 C 10.164062 10.101562 10.09375 10.15625 10.007812 10.179688 C 9.886719 10.226562 9.789062 10.324219 9.660156 10.367188 C 9.648438 10.367188 9.648438 10.355469 9.648438 10.34375 C 9.660156 10.308594 9.703125 10.296875 9.726562 10.265625 C 9.726562 10.253906 9.726562 10.242188 9.714844 10.242188 C 9.800781 10.121094 9.921875 10.054688 10.03125 9.957031 L 10.03125 9.921875 C 10.066406 9.875 10.117188 9.855469 10.140625 9.796875 C 10.152344 9.761719 10.199219 9.722656 10.25 9.699219 C 10.238281 9.6875 10.214844 9.6875 10.214844 9.664062 C 10.167969 9.664062 10.128906 9.6875 10.082031 9.652344 C 10.105469 9.632812 10.128906 9.621094 10.152344 9.609375 C 10.140625 9.609375 10.132812 9.605469 10.128906 9.59375 C 10.117188 9.570312 10.152344 9.546875 10.179688 9.539062 C 10.226562 9.527344 10.277344 9.527344 10.3125 9.492188 C 10.238281 9.480469 10.152344 9.515625 10.070312 9.46875 C 10.121094 9.324219 10.214844 9.207031 10.34375 9.136719 C 10.351562 9.136719 10.375 9.136719 10.375 9.148438 C 10.375 9.199219 10.34375 9.246094 10.289062 9.257812 C 10.375 9.28125 10.464844 9.28125 10.550781 9.324219 C 10.539062 9.347656 10.515625 9.335938 10.503906 9.335938 C 10.554688 9.371094 10.625 9.347656 10.675781 9.386719 C 10.640625 9.421875 10.613281 9.386719 10.578125 9.386719 C 10.917969 9.488281 11.277344 9.5625 11.558594 9.785156 C 11.316406 9.910156 11.066406 9.960938 10.808594 10.019531 C 10.773438 10.019531 10.757812 10.019531 10.722656 10.007812 C 10.722656 10.019531 10.722656 10.042969 10.710938 10.042969 C 10.664062 10.042969 10.636719 10.042969 10.601562 10.066406 C 10.5625 10.101562 10.496094 10.113281 10.464844 10.078125 " />
    <path style=" stroke:none;fill-rule:nonzero;fill:rgb(88.235294%,0%,5.882353%);fill-opacity:1;" d="M 21.644531 5.867188 L 15.457031 5.867188 C 15.457031 5.867188 15.464844 5.867188 15.511719 5.894531 C 15.566406 5.925781 15.628906 5.960938 15.667969 5.976562 C 15.75 6.019531 15.824219 6.074219 15.875 6.15625 C 15.898438 6.191406 15.929688 6.253906 15.910156 6.300781 C 15.886719 6.355469 15.875 6.449219 15.824219 6.464844 C 15.761719 6.5 15.675781 6.5 15.59375 6.488281 C 15.546875 6.488281 15.507812 6.476562 15.460938 6.464844 C 15.621094 6.53125 15.777344 6.613281 15.886719 6.765625 C 15.898438 6.789062 15.9375 6.800781 15.984375 6.800781 C 15.996094 6.800781 15.996094 6.824219 15.996094 6.835938 C 15.972656 6.859375 15.949219 6.871094 15.960938 6.898438 L 15.996094 6.898438 C 16.050781 6.875 16.042969 6.765625 16.117188 6.800781 C 16.171875 6.835938 16.191406 6.910156 16.164062 6.964844 C 16.117188 7.011719 16.078125 7.039062 16.03125 7.074219 C 16.019531 7.097656 16.019531 7.128906 16.03125 7.152344 C 16.066406 7.199219 16.078125 7.238281 16.082031 7.285156 C 16.117188 7.363281 16.128906 7.449219 16.160156 7.535156 C 16.203125 7.699219 16.246094 7.867188 16.234375 8.03125 C 16.234375 8.121094 16.1875 8.195312 16.222656 8.285156 C 16.246094 8.371094 16.296875 8.4375 16.34375 8.519531 C 16.390625 8.582031 16.429688 8.628906 16.464844 8.695312 C 16.527344 8.804688 16.648438 8.917969 16.597656 9.046875 C 16.5625 9.125 16.445312 9.113281 16.367188 9.160156 C 16.300781 9.210938 16.355469 9.304688 16.390625 9.359375 C 16.441406 9.457031 16.324219 9.523438 16.246094 9.550781 C 16.269531 9.585938 16.308594 9.574219 16.320312 9.597656 C 16.332031 9.652344 16.382812 9.6875 16.355469 9.746094 C 16.308594 9.808594 16.179688 9.84375 16.246094 9.945312 C 16.292969 10.019531 16.261719 10.109375 16.234375 10.191406 C 16.199219 10.277344 16.125 10.335938 16.039062 10.355469 C 15.972656 10.378906 15.894531 10.378906 15.828125 10.367188 C 15.808594 10.355469 15.785156 10.34375 15.765625 10.34375 C 15.582031 10.320312 15.398438 10.265625 15.214844 10.265625 C 15.160156 10.277344 15.105469 10.289062 15.0625 10.308594 C 15.015625 10.34375 14.972656 10.382812 14.929688 10.425781 C 14.925781 10.4375 14.914062 10.441406 14.90625 10.453125 C 14.902344 10.460938 14.894531 10.464844 14.894531 10.472656 L 14.882812 10.484375 C 14.851562 10.527344 14.828125 10.566406 14.796875 10.613281 C 14.796875 10.621094 14.792969 10.621094 14.792969 10.621094 C 14.792969 10.625 14.785156 10.632812 14.78125 10.636719 C 14.746094 10.703125 14.71875 10.773438 14.699219 10.84375 C 14.625 11.09375 14.660156 11.3125 14.710938 11.363281 C 14.722656 11.375 15.070312 11.488281 15.3125 11.597656 C 15.425781 11.652344 15.5 11.6875 15.570312 11.734375 L 21.652344 11.734375 L 21.652344 5.867188 Z M 21.644531 5.867188 " />
    <path style=" stroke:none;fill-rule:nonzero;fill:rgb(50.196078%,50.196078%,50.196078%);fill-opacity:1;" d="M 15.824219 8.015625 C 15.871094 8.027344 15.933594 8.027344 15.933594 8.050781 C 15.910156 8.136719 15.785156 8.160156 15.714844 8.25 L 15.679688 8.25 C 15.644531 8.273438 15.65625 8.324219 15.628906 8.324219 C 15.59375 8.3125 15.566406 8.324219 15.53125 8.335938 C 15.578125 8.382812 15.628906 8.414062 15.691406 8.402344 C 15.703125 8.402344 15.726562 8.425781 15.726562 8.449219 C 15.726562 8.449219 15.738281 8.449219 15.75 8.4375 C 15.761719 8.4375 15.773438 8.4375 15.773438 8.449219 L 15.773438 8.496094 C 15.738281 8.542969 15.6875 8.519531 15.640625 8.53125 C 15.726562 8.554688 15.8125 8.554688 15.894531 8.53125 C 15.957031 8.507812 15.894531 8.394531 15.9375 8.34375 C 15.917969 8.34375 15.9375 8.308594 15.917969 8.308594 C 15.9375 8.285156 15.960938 8.253906 15.980469 8.242188 C 16.003906 8.242188 16.03125 8.230469 16.042969 8.207031 C 16.042969 8.183594 15.996094 8.171875 16.007812 8.15625 C 16.070312 8.109375 16.128906 8.042969 16.105469 7.980469 C 16.09375 7.945312 16.007812 7.945312 15.957031 7.921875 C 15.90625 7.898438 15.835938 7.921875 15.773438 7.933594 C 15.71875 7.933594 15.664062 7.96875 15.609375 7.980469 C 15.535156 8.003906 15.464844 8.042969 15.402344 8.089844 C 15.476562 8.054688 15.554688 8.042969 15.640625 8.027344 C 15.703125 8.015625 15.753906 8.003906 15.824219 8.015625 " />
    <path style=" stroke:none;fill-rule:nonzero;fill:rgb(0%,0%,0%);fill-opacity:1;" d="M 5.765625 19.066406 L 5.765625 14.667969 L 7.078125 14.667969 C 7.554688 14.667969 7.929688 14.785156 8.199219 15.019531 C 8.46875 15.253906 8.609375 15.574219 8.613281 15.980469 C 8.613281 16.242188 8.554688 16.46875 8.433594 16.664062 C 8.316406 16.859375 8.144531 17.011719 7.925781 17.121094 L 9.277344 19.066406 L 8.230469 19.066406 L 7.085938 17.289062 L 6.640625 17.289062 L 6.640625 19.066406 Z M 6.640625 16.535156 L 7.132812 16.535156 C 7.316406 16.535156 7.457031 16.484375 7.558594 16.386719 C 7.660156 16.289062 7.714844 16.148438 7.714844 15.96875 C 7.714844 15.800781 7.660156 15.667969 7.558594 15.570312 C 7.453125 15.472656 7.3125 15.425781 7.132812 15.429688 L 6.640625 15.429688 Z M 9.886719 19.066406 L 9.886719 14.667969 L 12.394531 14.667969 L 12.394531 15.429688 L 10.757812 15.429688 L 10.757812 16.445312 L 12.144531 16.445312 L 12.144531 17.207031 L 10.757812 17.207031 L 10.757812 18.304688 L 12.394531 18.304688 L 12.394531 19.066406 Z M 10.734375 14.292969 L 11.425781 13.441406 L 12.324219 13.441406 L 11.53125 14.292969 Z M 13.460938 19.066406 L 13.460938 14.667969 L 14.882812 14.667969 C 15.355469 14.667969 15.726562 14.785156 15.996094 15.019531 C 16.269531 15.253906 16.40625 15.574219 16.40625 15.980469 C 16.40625 16.386719 16.269531 16.707031 15.996094 16.9375 C 15.722656 17.171875 15.351562 17.289062 14.882812 17.289062 L 14.335938 17.289062 L 14.335938 19.066406 Z M 14.335938 16.535156 L 14.917969 16.535156 C 15.105469 16.535156 15.253906 16.480469 15.355469 16.378906 C 15.460938 16.28125 15.511719 16.144531 15.511719 15.96875 C 15.511719 15.800781 15.460938 15.667969 15.351562 15.570312 C 15.246094 15.472656 15.105469 15.425781 14.917969 15.429688 L 14.335938 15.429688 Z M 17.109375 17.347656 L 17.109375 14.667969 L 17.984375 14.667969 L 17.984375 17.417969 C 17.984375 17.710938 18.0625 17.941406 18.214844 18.113281 C 18.371094 18.277344 18.582031 18.359375 18.855469 18.359375 C 19.125 18.359375 19.335938 18.277344 19.492188 18.113281 C 19.644531 17.945312 19.722656 17.714844 19.722656 17.417969 L 19.722656 14.667969 L 20.597656 14.667969 L 20.597656 17.347656 C 20.597656 17.925781 20.441406 18.378906 20.128906 18.703125 C 19.820312 19.027344 19.390625 19.191406 18.851562 19.191406 C 18.3125 19.191406 17.886719 19.027344 17.578125 18.703125 C 17.265625 18.375 17.109375 17.921875 17.109375 17.347656 Z M 21.738281 19.066406 L 21.738281 14.667969 L 22.960938 14.667969 C 23.410156 14.667969 23.761719 14.773438 24.015625 14.984375 C 24.273438 15.195312 24.402344 15.488281 24.402344 15.863281 C 24.402344 16.226562 24.25 16.519531 23.945312 16.734375 C 24.171875 16.839844 24.347656 16.980469 24.472656 17.15625 C 24.59375 17.335938 24.65625 17.539062 24.65625 17.769531 C 24.65625 18.175781 24.511719 18.492188 24.222656 18.722656 C 23.9375 18.953125 23.546875 19.066406 23.054688 19.066406 Z M 22.609375 18.304688 L 23.105469 18.304688 C 23.308594 18.304688 23.46875 18.253906 23.582031 18.152344 C 23.699219 18.046875 23.757812 17.902344 23.757812 17.722656 C 23.757812 17.542969 23.699219 17.402344 23.582031 17.300781 C 23.46875 17.203125 23.308594 17.15625 23.105469 17.15625 L 22.609375 17.15625 Z M 22.609375 16.390625 L 22.976562 16.390625 C 23.144531 16.390625 23.273438 16.347656 23.363281 16.261719 C 23.457031 16.179688 23.503906 16.0625 23.503906 15.90625 C 23.503906 15.757812 23.457031 15.640625 23.363281 15.558594 C 23.277344 15.472656 23.148438 15.429688 22.976562 15.429688 L 22.609375 15.429688 Z M 25.605469 19.066406 L 25.605469 14.667969 L 26.476562 14.667969 L 26.476562 18.257812 L 28.113281 18.257812 L 28.113281 19.066406 Z M 28.945312 19.066406 L 28.945312 14.667969 L 29.816406 14.667969 L 29.816406 19.066406 Z M 30.882812 17.765625 C 30.769531 17.480469 30.714844 17.179688 30.714844 16.867188 C 30.714844 16.554688 30.769531 16.257812 30.882812 15.976562 C 30.992188 15.691406 31.148438 15.441406 31.34375 15.230469 C 31.542969 15.019531 31.785156 14.851562 32.070312 14.726562 C 32.355469 14.601562 32.667969 14.539062 32.996094 14.539062 C 33.328125 14.539062 33.636719 14.601562 33.925781 14.726562 C 34.214844 14.851562 34.457031 15.019531 34.652344 15.230469 C 34.847656 15.441406 35 15.691406 35.113281 15.976562 C 35.222656 16.257812 35.28125 16.554688 35.28125 16.867188 C 35.28125 17.234375 35.203125 17.578125 35.054688 17.898438 C 34.90625 18.222656 34.699219 18.488281 34.433594 18.703125 L 34.691406 18.957031 C 34.996094 19.238281 35.296875 19.375 35.589844 19.371094 C 35.714844 19.371094 35.816406 19.355469 35.902344 19.324219 L 35.902344 20.082031 C 35.769531 20.136719 35.617188 20.164062 35.445312 20.160156 C 34.980469 20.160156 34.535156 19.96875 34.105469 19.585938 L 33.589844 19.113281 C 33.402344 19.164062 33.203125 19.191406 32.996094 19.191406 C 32.667969 19.191406 32.355469 19.128906 32.070312 19.003906 C 31.785156 18.878906 31.542969 18.710938 31.34375 18.503906 C 31.148438 18.292969 30.992188 18.046875 30.882812 17.765625 Z M 32.003906 15.804688 C 31.746094 16.089844 31.613281 16.445312 31.609375 16.867188 C 31.609375 17.289062 31.742188 17.644531 32.003906 17.929688 C 32.265625 18.214844 32.597656 18.359375 33.003906 18.359375 C 33.269531 18.359375 33.503906 18.292969 33.710938 18.164062 C 33.921875 18.035156 34.089844 17.855469 34.207031 17.625 C 34.328125 17.398438 34.386719 17.144531 34.386719 16.867188 C 34.386719 16.445312 34.253906 16.089844 33.988281 15.804688 C 33.726562 15.519531 33.398438 15.378906 32.996094 15.378906 C 32.59375 15.378906 32.261719 15.519531 32 15.804688 Z M 36.097656 17.347656 L 36.097656 14.667969 L 36.976562 14.667969 L 36.976562 17.417969 C 36.976562 17.710938 37.050781 17.941406 37.207031 18.113281 C 37.359375 18.277344 37.574219 18.359375 37.84375 18.359375 C 38.113281 18.359375 38.324219 18.277344 38.480469 18.113281 C 38.632812 17.945312 38.710938 17.714844 38.710938 17.417969 L 38.710938 14.667969 L 39.585938 14.667969 L 39.585938 17.347656 C 39.585938 17.925781 39.429688 18.378906 39.121094 18.703125 C 38.808594 19.03125 38.382812 19.195312 37.839844 19.191406 C 37.300781 19.191406 36.875 19.027344 36.566406 18.703125 C 36.253906 18.375 36.097656 17.921875 36.097656 17.347656 Z M 40.726562 19.066406 L 40.726562 14.667969 L 43.234375 14.667969 L 43.234375 15.429688 L 41.597656 15.429688 L 41.597656 16.445312 L 42.988281 16.445312 L 42.988281 17.207031 L 41.597656 17.207031 L 41.597656 18.304688 L 43.234375 18.304688 L 43.234375 19.066406 Z M 5.765625 25.433594 L 5.765625 21.035156 L 8.273438 21.035156 L 8.273438 21.796875 L 6.640625 21.796875 L 6.640625 22.8125 L 8.03125 22.8125 L 8.03125 23.574219 L 6.640625 23.574219 L 6.640625 25.433594 Z M 9.101562 25.433594 L 9.101562 21.035156 L 10.417969 21.035156 C 10.890625 21.035156 11.265625 21.152344 11.539062 21.386719 C 11.8125 21.621094 11.949219 21.941406 11.949219 22.347656 C 11.949219 22.609375 11.890625 22.839844 11.773438 23.035156 C 11.652344 23.230469 11.484375 23.378906 11.265625 23.484375 L 12.613281 25.433594 L 11.570312 25.433594 L 10.421875 23.65625 L 9.980469 23.65625 L 9.980469 25.433594 Z M 9.980469 22.898438 L 10.46875 22.898438 C 10.652344 22.898438 10.796875 22.851562 10.902344 22.753906 C 11.003906 22.65625 11.054688 22.515625 11.050781 22.335938 C 11.050781 22.167969 11 22.035156 10.902344 21.9375 C 10.800781 21.839844 10.65625 21.792969 10.46875 21.796875 L 9.980469 21.796875 Z M 12.859375 25.433594 L 14.492188 21.035156 L 15.632812 21.035156 L 17.265625 25.433594 L 16.335938 25.433594 L 15.921875 24.289062 L 14.199219 24.289062 L 13.789062 25.433594 Z M 14.46875 23.527344 L 15.65625 23.527344 L 15.0625 21.878906 Z M 17.992188 25.433594 L 17.992188 21.035156 L 19.109375 21.035156 L 21.035156 24.183594 L 21.035156 21.035156 L 21.90625 21.035156 L 21.90625 25.433594 L 20.789062 25.433594 L 18.863281 22.269531 L 18.863281 25.433594 Z M 22.8125 23.234375 C 22.8125 22.921875 22.867188 22.625 22.976562 22.339844 C 23.089844 22.054688 23.242188 21.808594 23.4375 21.597656 C 23.640625 21.386719 23.882812 21.21875 24.164062 21.097656 C 24.453125 20.972656 24.765625 20.910156 25.097656 20.910156 C 25.480469 20.910156 25.824219 20.988281 26.136719 21.144531 C 26.453125 21.304688 26.710938 21.523438 26.910156 21.800781 L 26.222656 22.347656 C 26.097656 22.164062 25.9375 22.015625 25.746094 21.90625 C 25.554688 21.796875 25.335938 21.742188 25.097656 21.742188 C 24.695312 21.742188 24.363281 21.886719 24.101562 22.171875 C 23.839844 22.457031 23.707031 22.8125 23.703125 23.234375 C 23.703125 23.65625 23.835938 24.011719 24.101562 24.300781 C 24.363281 24.585938 24.695312 24.726562 25.097656 24.722656 C 25.335938 24.722656 25.554688 24.671875 25.746094 24.566406 C 25.9375 24.457031 26.097656 24.308594 26.222656 24.121094 L 26.910156 24.660156 C 26.742188 24.898438 26.527344 25.09375 26.277344 25.246094 C 26.023438 25.398438 25.742188 25.492188 25.433594 25.535156 L 24.898438 26.449219 L 24.125 26.449219 L 24.667969 25.523438 C 24.300781 25.453125 23.976562 25.3125 23.691406 25.09375 C 23.410156 24.875 23.191406 24.601562 23.035156 24.277344 C 22.882812 23.953125 22.808594 23.605469 22.8125 23.234375 Z M 27.164062 25.433594 L 28.792969 21.035156 L 29.9375 21.035156 L 31.566406 25.433594 L 30.640625 25.433594 L 30.230469 24.289062 L 28.507812 24.289062 L 28.089844 25.433594 Z M 28.777344 23.527344 L 29.960938 23.527344 L 29.367188 21.878906 Z M 32.292969 25.433594 L 32.292969 21.035156 L 33.171875 21.035156 L 33.171875 25.433594 Z M 34.046875 24.824219 L 34.679688 24.230469 C 34.8125 24.402344 34.957031 24.535156 35.117188 24.628906 C 35.285156 24.722656 35.453125 24.769531 35.632812 24.769531 C 35.804688 24.769531 35.9375 24.726562 36.035156 24.636719 C 36.136719 24.546875 36.183594 24.421875 36.183594 24.261719 C 36.183594 24.167969 36.15625 24.082031 36.105469 24.003906 C 36.046875 23.921875 35.972656 23.859375 35.878906 23.808594 C 35.789062 23.753906 35.679688 23.699219 35.5625 23.644531 C 35.441406 23.585938 35.324219 23.527344 35.199219 23.472656 C 35.078125 23.417969 34.957031 23.351562 34.84375 23.273438 C 34.722656 23.195312 34.617188 23.109375 34.523438 23.015625 C 34.433594 22.921875 34.359375 22.804688 34.300781 22.660156 C 34.242188 22.515625 34.214844 22.355469 34.214844 22.183594 C 34.214844 21.828125 34.34375 21.527344 34.605469 21.28125 C 34.867188 21.035156 35.199219 20.910156 35.597656 20.910156 C 36.195312 20.910156 36.699219 21.15625 37.101562 21.648438 L 36.460938 22.234375 C 36.183594 21.867188 35.898438 21.683594 35.601562 21.683594 C 35.457031 21.683594 35.335938 21.730469 35.238281 21.820312 C 35.144531 21.910156 35.097656 22.019531 35.101562 22.148438 C 35.101562 22.230469 35.125 22.304688 35.171875 22.375 C 35.214844 22.441406 35.277344 22.503906 35.347656 22.558594 C 35.425781 22.609375 35.515625 22.660156 35.613281 22.710938 L 35.917969 22.859375 C 36.03125 22.910156 36.140625 22.960938 36.25 23.011719 C 36.359375 23.066406 36.464844 23.132812 36.558594 23.210938 C 36.660156 23.285156 36.75 23.371094 36.824219 23.46875 C 36.902344 23.5625 36.960938 23.671875 37.003906 23.800781 C 37.050781 23.933594 37.074219 24.082031 37.074219 24.242188 C 37.066406 24.640625 36.925781 24.960938 36.652344 25.199219 C 36.382812 25.4375 36.046875 25.558594 35.644531 25.558594 C 35.289062 25.558594 34.984375 25.496094 34.726562 25.375 C 34.46875 25.25 34.242188 25.066406 34.046875 24.824219 Z M 38.046875 25.433594 L 38.046875 21.035156 L 40.554688 21.035156 L 40.554688 21.796875 L 38.921875 21.796875 L 38.921875 22.8125 L 40.3125 22.8125 L 40.3125 23.574219 L 38.921875 23.574219 L 38.921875 24.671875 L 40.554688 24.671875 L 40.554688 25.433594 Z M 38.046875 25.433594 " />
    <path style=" stroke:none;fill-rule:nonzero;fill:rgb(0%,0%,0%);fill-opacity:1;" d="M 20.085938 37.496094 C 20.210938 37.496094 20.320312 37.597656 20.261719 37.824219 L 19.679688 37.984375 C 19.773438 37.703125 19.945312 37.496094 20.085938 37.496094 M 20.40625 38.457031 L 20.292969 38.457031 C 20.148438 38.632812 19.984375 38.773438 19.832031 38.773438 C 19.667969 38.773438 19.589844 38.675781 19.589844 38.457031 C 19.589844 38.371094 19.601562 38.277344 19.617188 38.195312 L 20.5625 37.878906 C 20.746094 37.429688 20.523438 37.238281 20.261719 37.238281 C 19.8125 37.238281 19.304688 38.035156 19.304688 38.664062 C 19.304688 38.960938 19.445312 39.128906 19.664062 39.128906 C 19.921875 39.128906 20.1875 38.875 20.40625 38.457031 M 20.257812 37.027344 L 20.792969 36.527344 L 20.792969 36.457031 L 20.4375 36.457031 L 20.117188 37.03125 L 20.257812 37.03125 Z M 18.246094 37.507812 L 18.554688 37.507812 L 18.0625 38.890625 C 18.015625 39.011719 18.078125 39.128906 18.199219 39.128906 C 18.550781 39.128906 18.972656 38.820312 19.132812 38.386719 L 19.046875 38.386719 C 18.917969 38.570312 18.644531 38.769531 18.433594 38.808594 L 18.890625 37.507812 L 19.359375 37.507812 L 19.414062 37.308594 L 18.960938 37.308594 L 19.132812 36.808594 L 18.953125 36.808594 L 18.632812 37.308594 L 18.246094 37.359375 Z M 17.921875 37.4375 C 17.960938 37.308594 17.875 37.238281 17.8125 37.238281 C 17.542969 37.238281 17.214844 37.488281 17.085938 37.835938 L 17.171875 37.835938 C 17.257812 37.707031 17.410156 37.566406 17.554688 37.542969 L 17.027344 38.925781 C 16.984375 39.058594 17.074219 39.128906 17.144531 39.128906 C 17.402344 39.128906 17.710938 38.875 17.835938 38.527344 L 17.75 38.527344 C 17.664062 38.65625 17.511719 38.796875 17.367188 38.820312 Z M 17.972656 36.886719 C 18.089844 36.886719 18.1875 36.785156 18.1875 36.667969 C 18.1875 36.550781 18.089844 36.453125 17.972656 36.453125 C 17.917969 36.453125 17.863281 36.476562 17.824219 36.515625 C 17.785156 36.558594 17.761719 36.609375 17.761719 36.667969 C 17.761719 36.792969 17.851562 36.886719 17.972656 36.886719 M 15.445312 37.625 C 15.523438 37.625 15.570312 37.753906 15.445312 38.042969 L 15.074219 38.875 C 15.003906 39.035156 15.082031 39.132812 15.230469 39.132812 C 15.324219 39.132812 15.363281 39.109375 15.402344 39.011719 L 15.765625 38.035156 C 15.933594 37.824219 16.246094 37.601562 16.382812 37.601562 C 16.480469 37.601562 16.46875 37.683594 16.40625 37.8125 L 15.847656 38.898438 C 15.796875 39.003906 15.863281 39.132812 15.984375 39.132812 C 16.257812 39.132812 16.585938 38.878906 16.710938 38.535156 L 16.613281 38.535156 C 16.527344 38.664062 16.378906 38.804688 16.234375 38.828125 L 16.710938 37.84375 C 16.773438 37.71875 16.804688 37.601562 16.804688 37.507812 C 16.804688 37.347656 16.71875 37.242188 16.550781 37.242188 C 16.3125 37.242188 16.113281 37.515625 15.824219 37.847656 L 15.824219 37.589844 C 15.824219 37.40625 15.765625 37.242188 15.605469 37.242188 C 15.414062 37.242188 15.242188 37.550781 15.105469 37.84375 L 15.191406 37.84375 C 15.289062 37.703125 15.375 37.625 15.445312 37.625 M 15.070312 37.660156 C 15.132812 37.429688 15.097656 37.238281 14.929688 37.238281 C 14.71875 37.238281 14.648438 37.382812 14.441406 37.84375 L 14.441406 37.585938 C 14.441406 37.402344 14.382812 37.238281 14.222656 37.238281 C 14.03125 37.238281 13.859375 37.542969 13.71875 37.835938 L 13.804688 37.835938 C 13.898438 37.703125 13.984375 37.621094 14.054688 37.621094 C 14.136719 37.621094 14.179688 37.75 14.054688 38.035156 L 13.683594 38.867188 C 13.617188 39.027344 13.691406 39.128906 13.839844 39.128906 C 13.933594 39.128906 13.972656 39.105469 14.015625 39.003906 L 14.367188 38.03125 C 14.46875 37.902344 14.5625 37.789062 14.675781 37.667969 L 15.070312 37.667969 Z M 13.058594 37.496094 C 13.183594 37.496094 13.292969 37.597656 13.234375 37.824219 L 12.652344 37.984375 C 12.75 37.703125 12.917969 37.496094 13.058594 37.496094 M 13.378906 38.457031 L 13.265625 38.457031 C 13.121094 38.632812 12.960938 38.773438 12.804688 38.773438 C 12.640625 38.773438 12.5625 38.675781 12.5625 38.457031 C 12.5625 38.371094 12.574219 38.277344 12.589844 38.195312 L 13.535156 37.878906 C 13.71875 37.429688 13.5 37.238281 13.234375 37.238281 C 12.785156 37.238281 12.277344 38.035156 12.277344 38.664062 C 12.277344 38.960938 12.417969 39.128906 12.636719 39.128906 C 12.894531 39.128906 13.160156 38.875 13.378906 38.457031 M 11.21875 37.507812 L 11.53125 37.507812 L 11.035156 38.890625 C 10.988281 39.011719 11.050781 39.128906 11.171875 39.128906 C 11.523438 39.128906 11.949219 38.820312 12.105469 38.386719 L 12.019531 38.386719 C 11.894531 38.570312 11.617188 38.769531 11.410156 38.808594 L 11.863281 37.507812 L 12.332031 37.507812 L 12.386719 37.308594 L 11.933594 37.308594 L 12.105469 36.808594 L 11.925781 36.808594 L 11.605469 37.308594 L 11.21875 37.359375 Z M 9.5625 38.585938 C 9.5625 38.160156 10.03125 37.578125 10.296875 37.578125 C 10.351562 37.578125 10.410156 37.585938 10.457031 37.601562 L 10.1875 38.339844 C 10.03125 38.535156 9.789062 38.769531 9.671875 38.769531 C 9.605469 38.769531 9.5625 38.714844 9.5625 38.585938 M 11 37.15625 L 10.855469 37.144531 L 10.695312 37.308594 L 10.664062 37.308594 C 9.980469 37.308594 9.242188 38.175781 9.242188 38.863281 C 9.242188 39.023438 9.328125 39.128906 9.496094 39.128906 C 9.695312 39.128906 9.890625 38.832031 10.117188 38.523438 L 10.105469 38.632812 C 10.078125 38.949219 10.175781 39.128906 10.335938 39.128906 C 10.527344 39.128906 10.699219 38.820312 10.832031 38.527344 L 10.746094 38.527344 C 10.652344 38.664062 10.566406 38.746094 10.496094 38.746094 C 10.429688 38.746094 10.375 38.609375 10.496094 38.328125 Z M 9.527344 37.660156 C 9.59375 37.429688 9.558594 37.238281 9.390625 37.238281 C 9.175781 37.238281 9.109375 37.382812 8.902344 37.84375 L 8.902344 37.585938 C 8.902344 37.402344 8.84375 37.238281 8.675781 37.238281 C 8.484375 37.238281 8.3125 37.542969 8.179688 37.835938 L 8.265625 37.835938 C 8.359375 37.703125 8.445312 37.621094 8.515625 37.621094 C 8.59375 37.621094 8.640625 37.75 8.515625 38.035156 L 8.140625 38.875 C 8.070312 39.035156 8.144531 39.132812 8.296875 39.132812 C 8.386719 39.132812 8.429688 39.109375 8.46875 39.011719 L 8.832031 38.03125 C 8.933594 37.902344 9.027344 37.789062 9.144531 37.667969 L 9.527344 37.667969 Z M 7.113281 39.0625 L 7.148438 38.957031 C 6.691406 38.867188 6.636719 38.867188 6.820312 38.363281 L 6.992188 37.890625 L 7.355469 37.890625 C 7.582031 37.890625 7.585938 37.988281 7.550781 38.242188 L 7.683594 38.242188 L 7.984375 37.402344 L 7.851562 37.402344 C 7.734375 37.601562 7.648438 37.753906 7.402344 37.753906 L 7.039062 37.753906 L 7.285156 37.066406 C 7.375 36.820312 7.414062 36.773438 7.726562 36.773438 L 7.804688 36.773438 C 8.121094 36.773438 8.164062 36.863281 8.164062 37.203125 L 8.289062 37.203125 L 8.394531 36.632812 L 6.636719 36.632812 L 6.601562 36.738281 C 6.964844 36.816406 7 36.851562 6.832031 37.332031 L 6.457031 38.371094 C 6.285156 38.84375 6.214844 38.886719 5.792969 38.960938 L 5.765625 39.070312 L 7.113281 39.070312 Z M 15.835938 33.453125 C 15.960938 33.453125 16.070312 33.554688 16.015625 33.78125 L 15.433594 33.941406 C 15.523438 33.660156 15.699219 33.453125 15.835938 33.453125 M 16.160156 34.414062 L 16.042969 34.414062 C 15.898438 34.59375 15.738281 34.734375 15.582031 34.734375 C 15.421875 34.734375 15.339844 34.632812 15.339844 34.414062 C 15.339844 34.328125 15.351562 34.234375 15.367188 34.152344 L 16.3125 33.835938 C 16.5 33.390625 16.273438 33.195312 16.015625 33.195312 C 15.566406 33.195312 15.058594 33.992188 15.058594 34.621094 C 15.058594 34.921875 15.195312 35.085938 15.414062 35.085938 C 15.675781 35.089844 15.9375 34.832031 16.160156 34.414062 M 16.007812 32.984375 L 16.542969 32.484375 L 16.542969 32.414062 L 16.1875 32.414062 L 15.871094 32.988281 L 16.007812 32.988281 Z M 13.996094 33.464844 L 14.308594 33.464844 L 13.8125 34.851562 C 13.765625 34.96875 13.828125 35.085938 13.949219 35.085938 C 14.300781 35.085938 14.722656 34.78125 14.882812 34.34375 L 14.796875 34.34375 C 14.671875 34.527344 14.394531 34.726562 14.1875 34.769531 L 14.640625 33.464844 L 15.109375 33.464844 L 15.167969 33.265625 L 14.710938 33.265625 L 14.882812 32.765625 L 14.707031 32.765625 L 14.382812 33.265625 L 13.996094 33.324219 Z M 13.675781 33.402344 C 13.714844 33.273438 13.628906 33.203125 13.558594 33.203125 C 13.289062 33.203125 12.960938 33.453125 12.832031 33.800781 L 12.917969 33.800781 C 13.003906 33.671875 13.15625 33.53125 13.300781 33.507812 L 12.773438 34.890625 C 12.726562 35.019531 12.820312 35.089844 12.890625 35.089844 C 13.148438 35.089844 13.453125 34.839844 13.582031 34.492188 L 13.496094 34.492188 C 13.410156 34.621094 13.257812 34.761719 13.113281 34.785156 Z M 13.726562 32.847656 C 13.839844 32.847656 13.9375 32.75 13.9375 32.632812 C 13.9375 32.515625 13.839844 32.414062 13.726562 32.414062 C 13.652344 32.414062 13.582031 32.457031 13.542969 32.519531 C 13.5 32.585938 13.5 32.671875 13.542969 32.742188 C 13.582031 32.808594 13.652344 32.855469 13.726562 32.847656 M 12.054688 34.785156 L 12.917969 32.449219 L 12.890625 32.410156 L 12.289062 32.480469 L 12.289062 32.550781 L 12.40625 32.636719 C 12.507812 32.71875 12.476562 32.796875 12.382812 33.0625 L 11.726562 34.84375 C 11.667969 34.949219 11.742188 35.078125 11.863281 35.078125 C 12.132812 35.078125 12.429688 34.828125 12.554688 34.480469 L 12.46875 34.480469 C 12.375 34.617188 12.191406 34.757812 12.054688 34.785156 M 10.289062 34.546875 C 10.289062 34.117188 10.757812 33.535156 11.023438 33.535156 C 11.078125 33.535156 11.132812 33.542969 11.183594 33.558594 L 10.90625 34.296875 C 10.75 34.492188 10.507812 34.726562 10.394531 34.726562 C 10.332031 34.734375 10.289062 34.675781 10.289062 34.546875 M 11.726562 33.121094 L 11.582031 33.109375 L 11.417969 33.273438 L 11.390625 33.273438 C 10.703125 33.273438 9.96875 34.140625 9.96875 34.828125 C 9.96875 34.984375 10.054688 35.089844 10.222656 35.089844 C 10.421875 35.089844 10.617188 34.796875 10.84375 34.484375 L 10.832031 34.597656 C 10.804688 34.914062 10.902344 35.089844 11.0625 35.089844 C 11.253906 35.089844 11.425781 34.785156 11.558594 34.492188 L 11.472656 34.492188 C 11.378906 34.628906 11.292969 34.710938 11.222656 34.710938 C 11.15625 34.710938 11.101562 34.574219 11.222656 34.296875 Z M 8.386719 35.425781 C 8.386719 35.242188 8.5625 35.125 8.808594 35.027344 C 8.890625 35.066406 9.015625 35.113281 9.175781 35.167969 C 9.4375 35.253906 9.535156 35.289062 9.535156 35.367188 C 9.535156 35.535156 9.296875 35.664062 8.867188 35.664062 C 8.542969 35.671875 8.386719 35.601562 8.386719 35.425781 M 9.097656 34.304688 C 8.980469 34.304688 8.941406 34.203125 8.941406 34.09375 C 8.941406 33.746094 9.101562 33.332031 9.363281 33.332031 C 9.476562 33.332031 9.515625 33.429688 9.515625 33.542969 C 9.515625 33.882812 9.351562 34.304688 9.097656 34.304688 M 9.835938 35.253906 C 9.835938 35.03125 9.636719 34.949219 9.320312 34.855469 C 9.050781 34.773438 8.921875 34.75 8.921875 34.65625 C 8.921875 34.585938 8.980469 34.496094 9.097656 34.433594 C 9.546875 34.410156 9.828125 34 9.828125 33.636719 C 9.828125 33.570312 9.816406 33.511719 9.800781 33.460938 L 10.105469 33.460938 L 10.164062 33.261719 L 9.644531 33.261719 C 9.574219 33.214844 9.488281 33.191406 9.390625 33.191406 C 8.917969 33.191406 8.613281 33.613281 8.613281 33.988281 C 8.613281 34.226562 8.75 34.390625 8.96875 34.421875 C 8.75 34.527344 8.625 34.640625 8.625 34.78125 C 8.625 34.863281 8.652344 34.921875 8.722656 34.972656 C 8.214844 35.125 8.007812 35.320312 8.007812 35.542969 C 8.007812 35.78125 8.320312 35.882812 8.6875 35.882812 C 9.308594 35.886719 9.835938 35.542969 9.835938 35.253906 M 7.484375 33.847656 C 7.707031 33.847656 7.714844 33.945312 7.679688 34.199219 L 7.8125 34.199219 L 8.109375 33.359375 L 7.976562 33.359375 C 7.863281 33.558594 7.777344 33.710938 7.527344 33.710938 L 7.027344 33.710938 L 7.273438 33.027344 C 7.363281 32.777344 7.40625 32.730469 7.714844 32.730469 L 7.933594 32.730469 C 8.25 32.730469 8.289062 32.820312 8.289062 33.160156 L 8.417969 33.160156 L 8.519531 32.589844 L 6.636719 32.589844 L 6.601562 32.695312 C 6.964844 32.773438 7 32.808594 6.832031 33.289062 L 6.457031 34.328125 C 6.285156 34.804688 6.214844 34.84375 5.792969 34.921875 L 5.765625 35.027344 L 7.863281 35.027344 L 8.238281 34.421875 L 8.09375 34.421875 C 7.851562 34.667969 7.605469 34.886719 7.136719 34.886719 C 6.578125 34.886719 6.628906 34.855469 6.8125 34.328125 L 6.988281 33.851562 L 7.484375 33.851562 Z M 7.753906 32.414062 L 8.289062 32.015625 L 8.289062 31.945312 L 7.933594 31.945312 L 7.613281 32.414062 Z M 15.765625 29.417969 C 15.894531 29.417969 16.003906 29.515625 15.945312 29.746094 L 15.363281 29.902344 C 15.457031 29.617188 15.628906 29.417969 15.765625 29.417969 M 16.089844 30.378906 L 15.972656 30.378906 C 15.828125 30.554688 15.667969 30.695312 15.511719 30.695312 C 15.351562 30.695312 15.269531 30.597656 15.269531 30.378906 C 15.269531 30.292969 15.28125 30.199219 15.300781 30.117188 L 16.246094 29.796875 C 16.429688 29.351562 16.203125 29.160156 15.945312 29.160156 C 15.496094 29.160156 14.988281 29.957031 14.988281 30.585938 C 14.988281 30.882812 15.125 31.046875 15.34375 31.046875 C 15.605469 31.046875 15.871094 30.796875 16.089844 30.378906 M 15.9375 28.949219 L 16.476562 28.449219 L 16.476562 28.378906 L 16.117188 28.378906 L 15.800781 28.953125 L 15.9375 28.953125 Z M 13.925781 29.421875 L 14.246094 29.421875 L 13.75 30.808594 C 13.703125 30.925781 13.765625 31.042969 13.886719 31.042969 C 14.238281 31.042969 14.664062 30.738281 14.820312 30.304688 L 14.734375 30.304688 C 14.609375 30.484375 14.332031 30.683594 14.125 30.726562 L 14.578125 29.421875 L 15.046875 29.421875 L 15.105469 29.222656 L 14.648438 29.222656 L 14.820312 28.726562 L 14.640625 28.726562 L 14.320312 29.222656 L 13.933594 29.277344 L 13.933594 29.421875 Z M 13.765625 29.582031 C 13.828125 29.351562 13.796875 29.160156 13.628906 29.160156 C 13.414062 29.160156 13.34375 29.304688 13.136719 29.761719 L 13.136719 29.503906 C 13.136719 29.324219 13.082031 29.160156 12.917969 29.160156 C 12.726562 29.160156 12.554688 29.464844 12.417969 29.757812 L 12.503906 29.757812 C 12.597656 29.621094 12.683594 29.539062 12.75 29.539062 C 12.832031 29.539062 12.878906 29.667969 12.75 29.957031 L 12.382812 30.789062 C 12.3125 30.949219 12.386719 31.046875 12.539062 31.046875 C 12.628906 31.046875 12.671875 31.023438 12.710938 30.925781 L 13.074219 29.949219 C 13.179688 29.820312 13.269531 29.710938 13.386719 29.585938 L 13.765625 29.585938 Z M 11.753906 29.417969 C 11.882812 29.417969 11.992188 29.515625 11.933594 29.746094 L 11.351562 29.902344 C 11.441406 29.617188 11.617188 29.417969 11.753906 29.417969 M 12.078125 30.378906 L 11.960938 30.378906 C 11.816406 30.554688 11.65625 30.695312 11.5 30.695312 C 11.339844 30.695312 11.257812 30.597656 11.257812 30.378906 C 11.257812 30.292969 11.269531 30.199219 11.289062 30.117188 L 12.234375 29.796875 C 12.417969 29.351562 12.199219 29.160156 11.933594 29.160156 C 11.484375 29.160156 10.976562 29.957031 10.976562 30.585938 C 10.976562 30.882812 11.113281 31.046875 11.332031 31.046875 C 11.59375 31.046875 11.859375 30.796875 12.078125 30.378906 M 9.875 30.765625 C 9.78125 30.765625 9.648438 30.679688 9.648438 30.601562 C 9.648438 30.578125 9.691406 30.46875 9.742188 30.332031 L 9.890625 29.921875 C 10.054688 29.722656 10.308594 29.503906 10.453125 29.503906 C 10.539062 29.503906 10.601562 29.5625 10.601562 29.6875 C 10.59375 30.074219 10.25 30.765625 9.875 30.765625 M 10.925781 29.539062 C 10.925781 29.257812 10.855469 29.152344 10.660156 29.152344 C 10.417969 29.152344 10.191406 29.417969 9.960938 29.734375 L 10.445312 28.40625 L 10.417969 28.367188 L 9.816406 28.4375 L 9.816406 28.507812 L 9.933594 28.597656 C 10.035156 28.679688 10 28.761719 9.910156 29.019531 L 9.386719 30.421875 C 9.339844 30.539062 9.285156 30.679688 9.285156 30.714844 C 9.285156 30.878906 9.507812 31.035156 9.707031 31.035156 C 10.164062 31.046875 10.925781 30.199219 10.925781 29.539062 M 9.15625 29.359375 C 9.1875 29.230469 9.109375 29.160156 9.039062 29.160156 C 8.769531 29.160156 8.441406 29.410156 8.3125 29.757812 L 8.398438 29.757812 C 8.484375 29.628906 8.636719 29.488281 8.78125 29.464844 L 8.253906 30.847656 C 8.207031 30.976562 8.300781 31.046875 8.371094 31.046875 C 8.628906 31.046875 8.933594 30.796875 9.0625 30.449219 L 8.976562 30.449219 C 8.890625 30.578125 8.738281 30.71875 8.59375 30.742188 Z M 9.210938 28.808594 C 9.328125 28.808594 9.425781 28.707031 9.425781 28.589844 C 9.425781 28.472656 9.328125 28.371094 9.210938 28.371094 C 9.136719 28.371094 9.066406 28.414062 9.027344 28.476562 C 8.988281 28.542969 8.988281 28.632812 9.027344 28.703125 C 9.066406 28.765625 9.136719 28.8125 9.210938 28.808594 M 7.878906 28.542969 L 6.636719 28.542969 L 6.601562 28.648438 C 6.964844 28.726562 7 28.761719 6.832031 29.242188 L 6.457031 30.28125 C 6.285156 30.753906 6.214844 30.796875 5.792969 30.871094 L 5.765625 30.976562 L 7.65625 30.976562 L 8.066406 30.234375 L 7.921875 30.234375 C 7.683594 30.496094 7.414062 30.832031 6.992188 30.832031 C 6.675781 30.832031 6.628906 30.773438 6.808594 30.273438 L 7.183594 29.234375 C 7.355469 28.761719 7.425781 28.71875 7.847656 28.644531 Z M 7.878906 28.542969 " />
  </g>
</svg>
